<?xml version="1.0" standalone="no"?>
<!DOCTYPE svg PUBLIC "-//W3C//DTD SVG 1.1//EN" "http://www.w3.org/Graphics/SVG/1.1/DTD/svg11.dtd" >
<svg xmlns="http://www.w3.org/2000/svg" xmlns:xlink="http://www.w3.org/1999/xlink" version="1.1">
<metadata>
Created by FontForge 20190801 at Wed Jun 11 00:37:26 2014
 By Unknown
(c) Copyright Beijing HANYI KEYIN Information Technology Co.
</metadata>
<defs>
<font id="HYShuaiXianTiW" horiz-adv-x="1000" vert-adv-y="1000" >
  <font-face 
    font-family="HYShuaiXianTiW"
    font-weight="400"
    font-stretch="normal"
    units-per-em="1000"
    panose-1="0 2 6 0 4 1 1 1 1 1"
    ascent="850"
    descent="-150"
    x-height="493"
    cap-height="587"
    bbox="-29 -291 1006 859"
    underline-thickness="50"
    underline-position="-316"
    unicode-range="U+0020-FFE5"
  />
<missing-glyph 
 />
    <glyph glyph-name=".notdef" 
 />
    <glyph glyph-name="space" unicode=" " horiz-adv-x="500" 
 />
    <glyph glyph-name="exclam" unicode="!" horiz-adv-x="300" 
d="M117 162h74v-106h-74v106zM117 677h74v-442h-74v442z" />
    <glyph glyph-name="quotedbl" unicode="&#x22;" horiz-adv-x="400" 
d="M97 681h60v-204h-60v204zM236 681h60v-204h-60v204z" />
    <glyph glyph-name="numbersign" unicode="#" horiz-adv-x="650" 
d="M152 235h-87v68h100l26 136h-106v68h120l33 175l67 -13l-31 -162h114l30 174l67 -11l-28 -163h91v-68h-103l-23 -136h106v-68h-118l-32 -184l-67 12l30 172h-120l-35 -184l-67 13zM234 303h118l24 136h-115z" />
    <glyph glyph-name="dollar" unicode="$" horiz-adv-x="550" 
d="M141 243q20 -42 49.5 -67.5t64.5 -33.5v215q-26 6 -53.5 15t-50.5 26t-37.5 43.5t-14.5 67.5q0 68 43 112.5t113 52.5v76h60v-76q39 -5 66.5 -20t45 -33.5t26.5 -39t11 -35.5l-34 -5l-35 -5q0 2 -3 11t-11.5 20t-24.5 21t-41 15v-189q14 -4 27 -8t26 -10
q63 -29 88.5 -66.5t22.5 -96.5q-2 -29 -14 -55t-33 -47t-49 -36t-60 -21q-2 -1 -4 -1t-4 -1v-54h-60v53q-49 7 -97 39.5t-81 102.5zM338 333q-13 5 -23 8v-197q39 9 65.5 35t28.5 57q1 15 0 27t-8 23.5t-21.5 23t-41.5 23.5zM169 509q0 -36 20 -52t66 -28v175
q-41 -7 -63.5 -31.5t-22.5 -63.5z" />
    <glyph glyph-name="percent" unicode="%" horiz-adv-x="750" 
d="M208 39l-57 37l404 621l57 -37zM200 367q-26 0 -49.5 11.5t-41 31.5t-27.5 46.5t-10 56.5q0 29 10 55.5t27.5 46.5t41 32t49.5 13h5q26 -1 48.5 -13t39.5 -32t26.5 -46t9.5 -56t-10 -56.5t-27.5 -46.5t-41 -31.5t-50.5 -11.5zM203 592q-26 -2 -44.5 -25t-18.5 -54
q0 -32 17.5 -55t42.5 -23q26 0 43.5 23t17.5 55t-17 54.5t-41 24.5zM563 350q25 -1 47.5 -13t39 -32t26 -46t9.5 -56t-10 -56.5t-27 -46.5t-40 -31.5t-49 -11.5t-49.5 11.5t-40.5 31.5t-27 46.5t-10 56.5q0 29 10 55.5t27 46.5t40.5 32t49.5 13h4zM559 125q24 0 41 23t17 55
t-16.5 54.5t-39.5 24.5q-22 -2 -41.5 -23t-19.5 -56q0 -32 17 -55t42 -23z" />
    <glyph glyph-name="ampersand" unicode="&#x26;" horiz-adv-x="650" 
d="M564 354q1 -104 -40 -176q33 -33 53.5 -53t21.5 -21l-48 -50q-3 2 -22 20.5t-49 48.5q-25 -23 -53 -37.5t-56.5 -22.5t-56 -11t-51.5 -3q-50 0 -94 23.5t-71 64.5q-24 36 -28 75.5t12 76.5q16 35 52 64t81 57q-16 18 -29.5 36t-25.5 35q-9 12 -15 28.5t-8 35.5t1 39
t13 39q6 13 17.5 26t29.5 23.5t44 17.5t61 7q38 0 72 -18.5t54 -50.5q18 -29 20 -62t-14 -64q-15 -32 -46 -58t-69 -51q38 -42 77 -84t75 -79q22 50 22 123zM213 590q-10 -18 -6.5 -38t11.5 -31q23 -34 56 -74q33 21 60.5 43t38.5 43q9 19 6 33.5t-9 24.5q-11 17 -29 26.5
t-38 9.5q-24 0 -51 -7t-39 -30zM263 119q38 0 84 10t83 43q-39 41 -83.5 88t-86.5 96q-37 -23 -70.5 -47.5t-43.5 -47.5q-9 -20 -6.5 -42.5t16.5 -42.5q17 -27 46 -42t61 -15z" />
    <glyph glyph-name="quotesingle" unicode="'" horiz-adv-x="250" 
d="M93 681h65v-204h-65v204z" />
    <glyph glyph-name="parenleft" unicode="(" horiz-adv-x="350" 
d="M257 -39q-19 12 -45.5 42.5t-50.5 78.5t-40.5 112.5t-15.5 144.5q1 89 23.5 155t49.5 110t50 66.5t25 24.5l23 -28l22 -28l-20.5 -20.5t-40.5 -55.5t-40.5 -92.5t-19.5 -131.5q-1 -69 13 -124.5t33 -96t39.5 -65t32.5 -31.5z" />
    <glyph glyph-name="parenright" unicode=")" horiz-adv-x="350" 
d="M188 340q-1 76 -20 132t-41.5 92.5t-41 55l-18.5 18.5l46 58q2 -2 25.5 -24.5t50.5 -66t49.5 -109.5t23.5 -155q1 -80 -16 -144.5t-41 -112.5t-50.5 -78t-45.5 -42l-38 63q12 7 32 31.5t39 64t33 94t13 123.5z" />
    <glyph glyph-name="asterisk" unicode="*" horiz-adv-x="400" 
d="M71 451l67 81l-85 20l15 63l95 -23v95h65v-95l94 23l16 -63l-87 -21l70 -82l-49 -42l-78 91l-73 -88z" />
    <glyph glyph-name="plus" unicode="+" horiz-adv-x="550" 
d="M479 396v-72h-166v-197h-72v197h-167v72h167v175h72v-175h166z" />
    <glyph glyph-name="comma" unicode="," horiz-adv-x="250" 
d="M121 74q-17 0 -29.5 10t-14.5 27q-1 16 8 30q6 7 14 12v1q1 0 2 0.5t2 0.5q4 3 9 3v1h4q1 1 4 1q21 3 38.5 -5.5t26.5 -27.5q6 -14 6 -30.5t-8.5 -34t-25.5 -34.5t-45 -32l-21 40q20 11 32 21.5t17 20.5q-3 -2 -6.5 -2.5t-6.5 -1.5h-6z" />
    <glyph glyph-name="hyphen" unicode="-" horiz-adv-x="450" 
d="M74 398h309v-70h-309v70z" />
    <glyph glyph-name="period" unicode="." horiz-adv-x="250" 
d="M128 185q22 -2 36.5 -15t16.5 -33q3 -23 -10.5 -41.5t-36.5 -21.5q-2 0 -4 -0.5t-4 -0.5q-18 0 -33 12q-18 13 -21 37q-3 23 11.5 40.5t39.5 22.5v1q1 0 2 -0.5t2 -0.5t1 1v-1z" />
    <glyph glyph-name="slash" unicode="/" horiz-adv-x="380" 
d="M233 694l70 -16l-150 -649l-70 17z" />
    <glyph glyph-name="zero" unicode="0" horiz-adv-x="550" 
d="M271 60q-45 0 -83.5 24t-67.5 66t-45.5 98.5t-16.5 121.5q0 63 16.5 119t45.5 98t68 66.5t83 25.5h3q44 -1 82 -25t66.5 -65.5t44.5 -98t16 -120.5q0 -65 -16.5 -121.5t-45 -98.5t-67 -66t-83.5 -24zM272 606q-29 0 -54.5 -19.5t-44.5 -51.5t-30.5 -74.5t-11.5 -90.5
t11 -91t30.5 -75t44.5 -51t54 -19q28 0 53.5 19t44.5 51t30 75t11 91t-11 90.5t-30 74.5t-44 51.5t-53 19.5z" />
    <glyph glyph-name="one" unicode="1" horiz-adv-x="450" 
d="M276 676v-540h106v-70h-305v70h127v454l-105 -19l-12 71z" />
    <glyph glyph-name="two" unicode="2" horiz-adv-x="550" 
d="M86 487q3 60 22 97.5t48 58.5t63 28.5t67 7.5q43 0 79.5 -18t61.5 -52q25 -33 31.5 -74.5t-7.5 -83.5q-16 -52 -71 -117t-130 -147q-13 -14 -25.5 -28t-25.5 -28h271v-72h-243h-104l-35 1v55l9 10q26 29 51 56.5t49 53.5q34 37 65 71.5t55.5 64.5t42 56t23.5 46
q8 25 4 49.5t-18 44.5q-14 19 -35.5 29.5t-47.5 10.5q-65 0 -95 -29t-33 -94z" />
    <glyph glyph-name="three" unicode="3" horiz-adv-x="550" 
d="M475 233q0 -47 -17.5 -83.5t-45 -61t-62.5 -37t-70 -12.5q-80 0 -134 40.5t-79 119.5l69 21q34 -109 144 -109q23 0 45 8t39.5 23t28 38t10.5 53q0 51 -33 83q-20 19 -46.5 29.5t-50.5 15.5t-41 5.5l-17 0.5l-78 -2l179 221h-190v72h341l-183 -226q32 -6 69.5 -20.5
t67.5 -43.5q54 -54 54 -135z" />
    <glyph glyph-name="four" unicode="4" horiz-adv-x="550" 
d="M326 44v160h-277v72l277 398v3h72v-401h92v-72h-92v-160h-72zM136 276h190v272z" />
    <glyph glyph-name="five" unicode="5" horiz-adv-x="550" 
d="M221 592l-16 -154q27 3 56 3t57.5 -4.5t54.5 -15t48 -29.5q58 -49 58 -146q0 -51 -17 -88t-44 -61t-61.5 -36t-68.5 -12q-77 0 -129.5 38.5t-76.5 113.5l68 23q34 -103 138 -103q4 0 23.5 2.5t40.5 14.5t38 37.5t17 70.5q0 62 -33 92q-20 17 -49.5 23.5t-59 7.5t-56 -2.5
t-40.5 -5.5l-46 -7l34 310h302v-72h-238z" />
    <glyph glyph-name="six" unicode="6" horiz-adv-x="550" 
d="M321 661l-99 -213q12 4 24 5.5t25 2.5h5q40 -1 75 -17.5t61.5 -44t41.5 -64t15 -77.5q0 -42 -15.5 -79t-42.5 -64.5t-63 -43.5t-77 -16t-77.5 16t-63.5 43.5t-42.5 64.5t-15.5 79q0 31 9 59.5t25 52.5l151 326zM273 386q-33 -1 -61 -17t-46 -42l-19 -40q-5 -18 -5 -34
q0 -27 10 -51.5t27.5 -42.5t41 -28.5t50.5 -10.5t50 10.5t40.5 28.5t27.5 42.5t10 51.5t-10 51t-27 42t-40 28.5t-49 11.5z" />
    <glyph glyph-name="seven" unicode="7" horiz-adv-x="500" 
d="M252 55l-68 22l176 522h-266v72h366z" />
    <glyph glyph-name="eight" unicode="8" horiz-adv-x="550" 
d="M71 240q0 52 26.5 94.5t71.5 68.5q-32 23 -50.5 56.5t-18.5 72.5q0 33 13.5 62.5t37.5 52t55.5 35.5t67.5 14h4q35 -1 66 -14t54 -35.5t36 -52t13 -62.5q0 -39 -18 -72t-49 -56q45 -26 72.5 -69t27.5 -95q0 -40 -16 -75t-44 -61t-65 -41t-79 -15t-79.5 15t-65.5 41
t-44 61t-16 75zM276 626q-22 0 -41 -8t-33.5 -20.5t-23 -29.5t-8.5 -36t8 -36t22.5 -29.5t33.5 -20t40 -7.5t40 7.5t33 20t22 29.5t8 36t-8 36t-21.5 29.5t-32 20.5t-39.5 8zM276 361q-28 0 -52.5 -9.5t-43 -26t-29 -38.5t-10.5 -47t10.5 -47.5t29 -39t43 -26t52.5 -9.5
t52.5 9.5t42.5 26t28.5 39t10.5 47.5t-10.5 47t-28.5 38.5t-42.5 26t-52.5 9.5z" />
    <glyph glyph-name="nine" unicode="9" horiz-adv-x="550" 
d="M67 480q0 42 15.5 79t43.5 65t65.5 45t79.5 18q43 1 81.5 -14t67.5 -44q29 -28 45 -64t16 -77q1 -30 -7.5 -57.5t-23.5 -50.5l-154 -339l-64 29l101 221q-14 -4 -27.5 -6.5t-28.5 -3.5h-4q-42 0 -79 15t-66 43t-44.5 64t-16.5 77zM273 617q-29 -1 -53.5 -12t-43 -29.5
t-29 -43t-10.5 -51.5q2 -54 40 -92q19 -18 43.5 -28t51.5 -10q37 1 68 18.5t50 46.5l17 38q5 19 4 33q0 55 -39 92q-41 38 -96 38h-3z" />
    <glyph glyph-name="colon" unicode=":" horiz-adv-x="250" 
d="M93 351q-18 13 -21 37q-3 23 11.5 40.5t39.5 22.5v1q1 0 2 -0.5t2 -0.5t1 1v-1q22 -2 36.5 -15t16.5 -33q3 -23 -10.5 -41.5t-36.5 -21.5q-2 0 -4 -0.5t-4 -0.5q-18 0 -33 12zM72 122q-3 23 11.5 40.5t39.5 22.5v1q1 0 2 -0.5t2 -0.5t1 1v-1q22 -2 36.5 -15t16.5 -33
q3 -23 -10.5 -41.5t-36.5 -21.5q-2 0 -4 -0.5t-4 -0.5q-18 0 -33 12q-18 13 -21 37z" />
    <glyph glyph-name="semicolon" unicode=";" horiz-adv-x="250" 
d="M85 36q20 11 32 21.5t17 20.5q-3 -2 -6.5 -2.5t-6.5 -1.5h-6q-17 0 -29.5 10t-14.5 27q-1 16 8 30q6 7 14 12v1q1 0 2 0.5t3 0.5q2 2 8 4h4q1 1 4 1q21 3 38.5 -5.5t26.5 -27.5q6 -14 6 -30.5t-8 -34t-25.5 -34.5t-45.5 -32zM93 351q-18 13 -21 37q-3 23 11.5 40.5
t39.5 22.5v1q1 0 2 -0.5t2 -0.5t1 1v-1q22 -2 36.5 -15t16.5 -33q3 -23 -10.5 -41.5t-36.5 -21.5q-2 0 -4 -0.5t-4 -0.5q-18 0 -33 12z" />
    <glyph glyph-name="less" unicode="&#x3c;" horiz-adv-x="550" 
d="M425 523l38 -63l-272 -167l279 -151l-35 -66l-344 187v55z" />
    <glyph glyph-name="equal" unicode="=" horiz-adv-x="550" 
d="M91 234h369v-72h-369v72zM91 407h369v-72h-369v72z" />
    <glyph glyph-name="greater" unicode="&#x3e;" horiz-adv-x="550" 
d="M146 76l-36 66l279 151l-272 167l39 63l333 -205v-55z" />
    <glyph glyph-name="question" unicode="?" horiz-adv-x="550" 
d="M302 153v-90h-94v90h94zM267 621q-111 0 -120 -133l-72 5q7 94 57 147t135 53h1q88 -1 139 -45t54 -123q2 -60 -29 -108.5t-91 -77.5q-28 -14 -36 -34.5t-12 -49.5l-1 -2q-2 -14 -2 -17.5v-6.5v-20l-72 1v16q0 8 0.5 14t2.5 23v2q2 13 5.5 31.5t12.5 38t25.5 37.5
t44.5 32q12 6 26 15.5t26.5 24t20.5 34t7 45.5q-3 96 -121 98h-1z" />
    <glyph glyph-name="at" unicode="@" horiz-adv-x="750" 
d="M392 118q59 0 110.5 19t83.5 53l50 -46q-42 -45 -106.5 -69.5t-137.5 -24.5q-66 0 -123 23.5t-98.5 65t-65 98.5t-23.5 124q0 68 23.5 126t66 100t100.5 66t127 25h2h1q65 -1 117 -21t88.5 -57.5t56 -90.5t19.5 -119q0 -44 -20.5 -87t-53.5 -72q-45 -37 -97 -37
q-6 0 -12.5 0.5t-12.5 1.5q-33 6 -50 36q0 1 -2 5l-4 -4q-34 -25 -72 -25q-5 0 -9 0.5t-9 1.5q-28 4 -50 20.5t-37 41t-21.5 55t-2.5 64.5q5 35 22 64.5t43 49.5q41 31 90 26q4 0 6 -1q24 -5 44 -19.5t34 -35.5q6 16 11 29t9 21l62 -27q-18 -42 -31 -82t-19.5 -72
t-7.5 -53.5t5 -27.5q36 -6 67 20q25 21 37.5 52t12.5 55q0 105 -55.5 162t-158.5 58q-56 0 -102 -18.5t-79 -51.5t-51.5 -78.5t-18.5 -100.5q0 -52 18.5 -96.5t51 -77t76.5 -51t96 -18.5zM392 285q15 11 25.5 31t13.5 43q2 19 -1 37t-10.5 33t-18.5 25t-25 13h-3
q-20 0 -39 -14q-16 -12 -26.5 -30.5t-12.5 -39.5q-5 -40 11.5 -72t44.5 -37q14 -2 24 2t17 9z" />
    <glyph glyph-name="A" unicode="A" horiz-adv-x="600" 
d="M329 670l239 -586l-66 -28l-73 178h-260l-73 -178l-66 28l240 586h59zM400 306l-100 247l-102 -247h202z" />
    <glyph glyph-name="B" unicode="B" horiz-adv-x="600" 
d="M505 524q0 -48 -20.5 -81.5t-54.5 -55.5q33 -15 53.5 -35t31 -41.5t14 -42t3.5 -34.5q0 -44 -12 -74.5t-31 -50t-43 -30.5t-47.5 -15.5t-44 -5.5t-33.5 -1h-186h-31v621h35v1h164q47 0 80 -9t55.5 -23t35.5 -32t20 -35t9 -32t2 -24zM464 234q0 108 -168 108h-124v-217
h149q45 0 72.5 7.5t43.5 21.5t21.5 34t5.5 46zM276 413q4 0 17.5 1t31.5 4t38 10t36.5 19.5t27 31t10.5 45.5q0 87 -134 87h-130v-198h103z" />
    <glyph glyph-name="C" unicode="C" horiz-adv-x="600" 
d="M302 64q-56 2 -103 25.5t-80.5 64t-53 95.5t-19.5 120q0 64 20 119t56 96.5t84.5 65.5t104.5 26h3h1q50 0 88 -14t65.5 -36.5t45.5 -50t30 -54.5l-67 -30q-25 58 -64.5 85t-97.5 27q-42 0 -78 -18.5t-62 -50t-41 -74t-15 -90.5q0 -50 14 -92t39 -73t58.5 -49t74.5 -19
q63 -3 107 25.5t73 90.5l66 -31q-76 -159 -236 -159q-3 0 -6 0.5t-7 0.5z" />
    <glyph glyph-name="D" unicode="D" horiz-adv-x="600" 
d="M115 60v2h-33v612h72h111q60 0 112.5 -22.5t91.5 -61.5t61.5 -91.5t22.5 -111.5q0 -85 -24.5 -146.5t-64.5 -101.5t-91 -59.5t-103 -19.5h-155zM154 602v-470h116q36 0 73.5 13.5t68 43.5t50 78.5t19.5 119.5q0 45 -17 84t-46.5 68t-68.5 46t-84 17h-111z" />
    <glyph glyph-name="E" unicode="E" horiz-adv-x="600" 
d="M504 601h-331v-178h305v-70h-305v-222h331v-70h-401v540v0v70h401v-70z" />
    <glyph glyph-name="F" unicode="F" horiz-adv-x="600" 
d="M123 601v70h411v-70h-341v-188h314v-70h-314v-297h-70v555z" />
    <glyph glyph-name="G" unicode="G" horiz-adv-x="600" 
d="M308 610q-41 0 -76 -19t-61 -51t-40.5 -75.5t-14.5 -93.5q0 -52 13 -94.5t36.5 -73.5t56 -49t73.5 -21q51 -4 96.5 8t71.5 35v112h-136v73h209v-213l-9 -11q-32 -37 -87.5 -57.5t-121.5 -20.5h-13.5t-14.5 1q-55 4 -100 28t-77.5 65t-51 96t-18.5 121q0 65 19.5 121.5
t55 98.5t83 66.5t103.5 26.5h4q26 0 56.5 -5t61.5 -22.5t60 -50.5t52 -88l-67 -29q-17 40 -36.5 64t-40.5 37t-42.5 17t-43.5 4z" />
    <glyph glyph-name="H" unicode="H" horiz-adv-x="670" 
d="M493 414v267h72v-625h-72v286h-315v-286h-72v625h72v-267h315z" />
    <glyph glyph-name="I" unicode="I" horiz-adv-x="300" 
d="M114 687h74v-635h-74v635z" />
    <glyph glyph-name="J" unicode="J" horiz-adv-x="450" 
d="M338 217q0 -44 -15.5 -75.5t-39.5 -52t-52 -30.5t-53 -10q-57 0 -91 20.5t-53 48t-26.5 55.5t-10.5 44l71 13q11 -60 35.5 -84.5t74.5 -24.5q11 0 26 4.5t29 16t23.5 30t9.5 45.5v471h72v-471z" />
    <glyph glyph-name="K" unicode="K" horiz-adv-x="600" 
d="M537 625l-245 -223l272 -303l-54 -48l-271 303l-47 -43v-259h-68v627h68v-271l297 270z" />
    <glyph glyph-name="L" unicode="L" horiz-adv-x="520" 
d="M136 677h72v-548h307v-72h-379v620z" />
    <glyph glyph-name="M" unicode="M" horiz-adv-x="740" 
d="M593 678h58v-618h-72v467l-206 -309l-201 306v-464h-72v618h58l215 -329z" />
    <glyph glyph-name="N" unicode="N" horiz-adv-x="650" 
d="M500 198v477h72v-618h-56l-360 477v-474h-72v615h56z" />
    <glyph glyph-name="O" unicode="O" horiz-adv-x="700" 
d="M355 673q55 -1 104 -25.5t85.5 -66.5t57.5 -98t21 -119q0 -64 -21.5 -120.5t-58.5 -98.5t-86.5 -66t-105.5 -24t-106 24t-87 66t-58.5 98.5t-21.5 120.5q0 63 21.5 119t58.5 98t86.5 66.5t106.5 25.5v1h4v-1zM351 128q41 0 77.5 18.5t63.5 50.5t42.5 75t15.5 92
t-15.5 91.5t-42 75t-62.5 51t-77 19.5q-42 -1 -78.5 -19.5t-64 -51t-43.5 -75t-16 -91.5t16 -92t43 -75t63.5 -50.5t77.5 -18.5z" />
    <glyph glyph-name="P" unicode="P" horiz-adv-x="550" 
d="M82 674h72h84q60 0 108.5 -15t83 -42t53 -66t18.5 -87q0 -102 -67 -157t-191 -55h-89v-199h-72v621zM154 602v-278h89q70 0 107.5 17t55 40t20.5 46.5t3 36.5q0 65 -50 101.5t-141 36.5h-84z" />
    <glyph glyph-name="Q" unicode="Q" horiz-adv-x="650" 
d="M591 364q0 -56 -16 -105.5t-45 -89.5l78 -67l-47 -55l-80 69q-34 -29 -75 -45t-87 -16q-56 0 -106 24t-87 66t-58.5 98.5t-21.5 120.5q0 63 21.5 119t58.5 98t86.5 66.5t106.5 25.5v1h4v-1q55 -1 104 -25.5t85.5 -66.5t57.5 -98t21 -119zM319 128q29 0 56 9.5t50 26.5
l-85 73l47 55l87 -75q21 30 32.5 67.5t11.5 79.5q0 49 -15.5 91.5t-42 75t-62.5 51t-77 19.5q-42 -1 -78.5 -19.5t-64 -51t-43.5 -75t-16 -91.5t16 -92t43 -75t63.5 -50.5t77.5 -18.5z" />
    <glyph glyph-name="R" unicode="R" horiz-adv-x="560" 
d="M401 323q12 -9 23 -20.5t20 -26.5q15 -25 28 -60.5t22.5 -68.5t15 -57.5t5.5 -26.5l-70 -14q-3 14 -9 38.5t-14.5 52.5t-18.5 54.5t-20 43.5q-9 15 -21.5 25t-25 17t-23 10.5l-16.5 5.5q-26 -3 -54 -3h-89v-240h-72v621h72h84q125 0 193.5 -49t68.5 -139q0 -19 -4 -41
t-14.5 -44t-30 -42.5t-50.5 -35.5zM243 365q69 0 107 14.5t55 34t20 40t3 32.5q0 36 -17.5 58.5t-45 35.5t-61 17.5t-66.5 4.5h-84v-237h89z" />
    <glyph glyph-name="S" unicode="S" horiz-adv-x="550" 
d="M346 408q145 -50 146 -187q0 -32 -13.5 -63t-39.5 -55t-65 -39t-90 -15q-38 0 -76.5 10t-69.5 32t-51.5 57.5t-22.5 86.5l72 3q1 -38 17 -61t38.5 -35.5t47.5 -16.5t45 -4q35 0 60.5 9t42.5 23t25 32t8 36q0 16 -3 32t-13.5 32t-29.5 30t-51 25q-11 4 -24 6.5t-27 5.5
q-28 5 -62.5 14t-64.5 29.5t-49 55.5t-16 93q1 21 12.5 47t34.5 48.5t58 38t85 15.5q40 0 74 -11t60 -32t43 -50t23 -65l-71 -11q-7 46 -41 71.5t-88 25.5q-35 0 -57.5 -9.5t-36 -23t-19 -27t-5.5 -21.5q-2 -33 7 -53t26.5 -32.5t43 -19.5t57.5 -13q17 -3 31.5 -6t28.5 -8z
" />
    <glyph glyph-name="T" unicode="T" horiz-adv-x="500" 
d="M32 586v70h445v-70h-188v-524h-72v524h-185z" />
    <glyph glyph-name="U" unicode="U" horiz-adv-x="600" 
d="M517 674v-363q0 -64 -17.5 -115t-52.5 -86q-57 -57 -142 -57q-105 0 -161.5 67t-57.5 191v363h72v-363q2 -186 147 -186q56 0 91 36q24 24 36.5 62.5t12.5 87.5v363h72z" />
    <glyph glyph-name="V" unicode="V" horiz-adv-x="600" 
d="M300 193l182 489l68 -25l-224 -600h-52l-226 600l67 25z" />
    <glyph glyph-name="W" unicode="W" horiz-adv-x="800" 
d="M590 192l92 483l71 -13l-116 -608h-53l-193 349l-187 -349h-55l-95 609l71 11l74 -477l191 357z" />
    <glyph glyph-name="X" unicode="X" horiz-adv-x="600" 
d="M546 641l-201 -269l213 -281l-58 -45l-200 265l-198 -264l-58 43l210 281l-203 268l58 44l190 -251l189 252z" />
    <glyph glyph-name="Y" unicode="Y" horiz-adv-x="600" 
d="M310 410l175 287l62 -38l-209 -344v-260h-73v255l-215 349l62 38l177 -287h21z" />
    <glyph glyph-name="Z" unicode="Z" horiz-adv-x="600" 
d="M184 146h368v-72h-472v47l6 11l326 462h-333v72h437v-49z" />
    <glyph glyph-name="bracketleft" unicode="[" horiz-adv-x="340" 
d="M306 601h-128v-555h128v-72h-200v699h200v-72z" />
    <glyph glyph-name="backslash" unicode="\" horiz-adv-x="400" 
d="M183 686l102 -718l-68 -9l-101 717z" />
    <glyph glyph-name="bracketright" unicode="]" horiz-adv-x="300" 
d="M32 46h128v555h-128v72h200v-699h-200v72z" />
    <glyph glyph-name="asciicircum" unicode="^" horiz-adv-x="550" 
d="M300 676l12 -18l167 -282l-62 -36l-137 231l-138 -231l-62 37l179 299h41z" />
    <glyph glyph-name="underscore" unicode="_" horiz-adv-x="500" 
d="M-7 26h513v-70h-513v70z" />
    <glyph glyph-name="grave" unicode="`" horiz-adv-x="300" 
d="M171 466l-91 188l66 33l92 -188z" />
    <glyph glyph-name="a" unicode="a" horiz-adv-x="480" 
d="M410 206q0 -1 0.5 -1.5t0.5 -2.5q0 -1 -0.5 -1.5t-0.5 -1.5v-152h-70v28q-44 -27 -106 -27q-37 0 -69 12t-56 33t-38 49.5t-14 60.5q0 31 14 59t38 49t56 33.5t69 12.5h2q60 0 104 -28q-2 32 -11.5 53t-23.5 33.5t-29.5 17.5t-27.5 5q-88 0 -147 -47l-45 54q80 63 192 63
q30 0 59.5 -12t52 -36t36.5 -59t14 -81v-114zM234 118q9 0 26.5 2t35 10.5t31 24.5t13.5 45v6q0 22 -10 37.5t-25 25t-33.5 14t-36.5 4.5q-22 0 -41.5 -7t-34.5 -18.5t-23.5 -26.5t-8.5 -32q0 -18 8.5 -33.5t23 -27t34 -18t41.5 -6.5z" />
    <glyph glyph-name="b" unicode="b" horiz-adv-x="500" 
d="M275 485q40 -1 75 -18t61.5 -46t41.5 -67.5t15 -82.5t-15.5 -83t-41.5 -68t-61 -46t-75 -17q-38 0 -71.5 15.5t-59.5 42.5v-58h-68v619h68v-248q26 26 58.5 41t69.5 16h3zM275 125q26 0 48.5 11.5t39.5 31.5t27 46.5t10 56.5t-10 56.5t-27 46t-40 31.5t-49 12t-48 -12
t-39 -31.5t-26.5 -46t-9.5 -56.5t9.5 -56.5t26.5 -46.5t39.5 -31.5t48.5 -11.5z" />
    <glyph glyph-name="c" unicode="c" horiz-adv-x="420" 
d="M236 126q13 0 27.5 5t28.5 15.5t26.5 25.5t21.5 35l64 -28q-12 -27 -30 -49.5t-40 -39t-47.5 -25.5t-50.5 -9q-42 0 -79.5 18t-65 48.5t-43.5 72t-16 88.5t15 88t41 72t61.5 48.5t76.5 18.5h2h1q21 0 44 -6.5t45.5 -20.5t43 -36t35.5 -54l-63 -30q-10 21 -23 35.5
t-27 23.5t-29 13.5t-28 4.5q-27 0 -50 -12.5t-39.5 -33.5t-26 -49.5t-9.5 -61.5q0 -32 10.5 -60.5t28.5 -50t42.5 -34t52.5 -12.5z" />
    <glyph glyph-name="d" unicode="d" horiz-adv-x="470" 
d="M330 679h68v-622h-68v55q-25 -26 -56.5 -40.5t-66.5 -14.5q-38 0 -71.5 17t-58.5 46.5t-39.5 68.5t-14.5 84q0 44 14.5 82.5t39.5 68t58.5 46.5t71.5 18h3q35 -1 65.5 -15.5t54.5 -39.5v246zM207 125q24 0 45.5 11.5t37.5 31.5t25 47t9 58q0 30 -9 56.5t-25 46.5
t-36.5 32t-44.5 12t-45.5 -12t-37.5 -32t-25.5 -46.5t-9.5 -56.5q0 -31 9 -58t25 -47t37 -31.5t45 -11.5z" />
    <glyph glyph-name="e" unicode="e" horiz-adv-x="500" 
d="M251 129q45 0 76 16t59 53l56 -43q-38 -50 -84 -73.5t-107 -23.5q-51 0 -88 20t-61 52t-36 73.5t-12 84.5q0 44 14.5 83.5t41 68.5t61.5 46.5t75 17.5h1q42 0 78 -15t62 -41q19 -20 36 -58t14 -98l-2 -34h-308q2 -18 8.5 -40.5t20.5 -42t37 -33t58 -13.5zM246 433
q-41 0 -73.5 -29.5t-43.5 -74.5h236q-4 43 -30 70q-16 16 -39 25t-49 9h-1z" />
    <glyph glyph-name="f" unicode="f" horiz-adv-x="360" 
d="M220 616q-10 -5 -16 -15.5t-9.5 -23.5t-4.5 -25.5t-1 -22.5v-62h129v-72h-129v-336h-72v336h-91v72h91v62q0 35 6.5 60.5t16.5 43.5t22.5 29.5t24.5 17.5q20 11 42 13t43 -2t40 -12.5t34 -18.5l-40 -60q-23 16 -46.5 20t-39.5 -4z" />
    <glyph glyph-name="g" unicode="g" horiz-adv-x="480" 
d="M318 13q25 25 25 59v49q-25 -22 -54.5 -32.5t-60.5 -10.5q-38 0 -71.5 17t-58 46.5t-39 68.5t-14.5 84q0 44 14.5 83.5t39 68.5t58 46.5t71.5 18.5h2q34 -1 62 -12.5t51 -31.5v47h71v-160v-71v-73.5v-72v-65.5q0 -64 -45 -109q-26 -26 -61 -40t-74 -14q-35 0 -84.5 10.5
t-105.5 52.5l43 57q43 -32 80.5 -40.5t66.5 -8.5q25 0 47 8.5t37 24.5zM228 149q51 0 81 39t30 106q0 66 -30 105.5t-80 39.5q-23 0 -43.5 -11.5t-36 -31.5t-24.5 -46.5t-9 -55.5q0 -30 9 -56.5t24 -46t35.5 -31t43.5 -11.5z" />
    <glyph glyph-name="h" unicode="h" horiz-adv-x="490" 
d="M153 57h-72v619h72v-222q19 12 40.5 19.5t44.5 7.5q47 0 79.5 -13t53.5 -33.5t32.5 -46.5t17 -51.5t7 -48t1.5 -36.5l1 -197l-72 -1l-1 198q-1 85 -28 121t-91 36q-15 0 -29 -6.5t-26 -15.5t-20 -18.5t-10 -14.5v1q0 1 0.5 1.5t0.5 1.5h-1v-301z" />
    <glyph glyph-name="i" unicode="i" horiz-adv-x="240" 
d="M89 488h73v-432h-73v432zM89 678h73v-91h-73v91z" />
    <glyph glyph-name="j" unicode="j" horiz-adv-x="300" 
d="M200 682v-91h-73v91h73zM132 -74q-21 -10 -48 -10q-31 0 -61 13t-52 31l47 56q9 -7 20 -13t22 -10t22 -4.5t19 3.5t13 12.5t8 19t4 21t1 19.5v86.5v93.5v91v78v54.5v21.5h73v-21.5v-54.5v-78v-91v-94v-87q0 -33 -6.5 -56.5t-16 -39.5t-21.5 -26t-24 -15z" />
    <glyph glyph-name="k" unicode="k" horiz-adv-x="500" 
d="M173 243v-191h-68v627h68v-348l241 164l41 -59l-179 -122l203 -222l-53 -48l-210 229z" />
    <glyph glyph-name="l" unicode="l" horiz-adv-x="250" 
d="M93 678h73v-622h-73v622z" />
    <glyph glyph-name="m" unicode="m" horiz-adv-x="720" 
d="M75 400v106h68v-29q20 11 42 17.5t45 6.5q48 0 81.5 -13t54.5 -33q23 20 54 33t61 13q61 0 96 -19.5t52.5 -46t22 -53t4.5 -40.5l1 -287l-72 -1l-1 288q0 87 -103 87q-12 0 -25 -4.5t-24 -11t-20 -13.5t-14 -13q1 -4 1 -11l1 -321l-72 -1l-1 322q0 2 -0.5 4.5t-0.5 4.5
h-2v5q-8 18 -32.5 28.5t-61.5 10.5q-32 0 -55.5 -16.5t-31.5 -36.5v-319h-68v342v1z" />
    <glyph glyph-name="n" unicode="n" horiz-adv-x="500" 
d="M138 57h-72v449h72v-43q22 17 47.5 27.5t54.5 10.5q33 0 67.5 -7.5t62.5 -28.5t46 -58t18 -95v-258h-72v258q0 23 -4 44t-17 37.5t-37 26t-64 9.5q-18 0 -35 -8.5t-31 -20.5t-23.5 -25.5t-12.5 -23.5v-294z" />
    <glyph glyph-name="o" unicode="o" horiz-adv-x="480" 
d="M242 50q-43 0 -80.5 18t-65.5 49.5t-44 73.5t-16 90q0 47 16 88.5t44 73t65.5 49.5t80.5 19h3q42 -1 79 -19t64 -49.5t43 -73t16 -88.5q0 -48 -16 -90t-44 -73.5t-65.5 -49.5t-79.5 -18zM243 439q-28 0 -52.5 -12.5t-43 -34t-29 -50t-10.5 -61.5t10.5 -62t28.5 -50.5
t42.5 -34t52.5 -12.5q27 0 51.5 12.5t42.5 34t28.5 50.5t10.5 62t-10.5 61.5t-28.5 50t-42 34t-51 12.5z" />
    <glyph glyph-name="p" unicode="p" horiz-adv-x="500" 
d="M152 -82h-72v586h72v-54q24 26 55.5 40.5t66.5 15.5h3q41 -1 75 -17.5t58 -45.5t37.5 -69t13.5 -88q0 -57 -16 -98.5t-42.5 -68t-60 -39.5t-68.5 -13t-66.5 14t-55.5 40v-203zM276 434q-24 0 -45.5 -12t-37.5 -32t-25.5 -47t-9.5 -57q0 -31 9 -58t25 -47t37 -31.5
t45 -11.5q54 0 85 39.5t31 108.5q0 68 -31 108t-83 40z" />
    <glyph glyph-name="q" unicode="q" horiz-adv-x="500" 
d="M227 65q-35 0 -68.5 13t-60 40t-42.5 68.5t-16 98.5q0 48 13.5 88.5t38 69.5t58 45.5t74.5 16.5v1h3v-1q35 0 66.5 -14.5t56.5 -40.5v54h72v-586h-72v201q-25 -25 -56.5 -39.5t-66.5 -14.5zM226 434q-52 0 -83.5 -41t-31.5 -108q0 -69 31 -109t85 -40q24 0 45 11.5t37 32
t25 47.5t9 58q0 30 -9.5 57.5t-25.5 47.5t-37 32t-45 12z" />
    <glyph glyph-name="r" unicode="r" horiz-adv-x="350" 
d="M173 445q38 32 82.5 44.5t76.5 10.5l-5 -72q-8 1 -30.5 -3t-47.5 -16.5t-47 -35.5t-29 -62v-255h-73v244h-1q0 6 1 8v199h73v-62z" />
    <glyph glyph-name="s" unicode="s" horiz-adv-x="450" 
d="M222 121q46 0 71.5 18.5t25.5 40.5q0 9 -1 17.5t-7.5 18t-20.5 19t-39 19.5q-8 3 -17.5 6t-20.5 6q-21 6 -45.5 15t-46 23t-35.5 34.5t-14 51.5q0 24 9 47.5t27 42t45 30t63 11.5q38 0 64 -7.5t44 -20t30.5 -28.5t23.5 -32l-59 -42v1q-11 15 -19.5 25.5t-19 17.5
t-25.5 10.5t-39 3.5q-26 0 -40.5 -8t-21.5 -18t-8.5 -19.5t-1.5 -13.5q0 -20 25.5 -32t63.5 -23q12 -3 23 -6.5t22 -7.5q60 -24 86.5 -57t26.5 -84q0 -24 -11 -47t-32.5 -42t-53 -30.5t-72.5 -11.5q-28 0 -56 8t-51.5 24t-40 40.5t-19.5 58.5l72 7q2 -20 12.5 -32.5t25 -20
t30 -10.5t27.5 -3z" />
    <glyph glyph-name="t" unicode="t" horiz-adv-x="420" 
d="M155 408h-111v72h111v140h72v-140h138v-72h-138v-235q0 -26 7 -34t11 -10q17 -8 44 -2t49 23l44 -57q-23 -17 -53.5 -28.5t-61.5 -11.5q-29 0 -54 12q-8 4 -18 11.5t-19 20.5t-15 31.5t-6 44.5v235z" />
    <glyph glyph-name="u" unicode="u" horiz-adv-x="490" 
d="M251 59q-82 0 -129 47q-49 49 -49 143v252h72v-252q0 -63 28 -93q27 -25 78 -25q15 0 32 9.5t32 24.5t26.5 32.5t16.5 33.5v270h72v-274h2q-1 -1 -1 -2t-1 -3v-168h-72v54q-23 -22 -51 -35.5t-56 -13.5z" />
    <glyph glyph-name="v" unicode="v" horiz-adv-x="460" 
d="M207 57l-11 22l-173 393l66 29l140 -320l139 320l66 -29l-180 -415h-47z" />
    <glyph glyph-name="w" unicode="w" horiz-adv-x="630" 
d="M114 54l-80 438l71 13l57 -315l142 244l157 -250l65 321l70 -14l-88 -437h-49l-12 17l-141 224l-139 -241h-53z" />
    <glyph glyph-name="x" unicode="x" horiz-adv-x="500" 
d="M111 45l-57 47l152 186l-152 186l57 47l143 -175l143 175l57 -47l-152 -186l152 -186l-57 -47l-143 174z" />
    <glyph glyph-name="y" unicode="y" horiz-adv-x="460" 
d="M109 -68l88 187l-186 347l64 35l160 -299l142 305l66 -31l-267 -575z" />
    <glyph glyph-name="z" unicode="z" horiz-adv-x="480" 
d="M426 443l-8 -12l-248 -292h271v-73h-386v50l9 11l248 293h-247v73h361v-50z" />
    <glyph glyph-name="braceleft" unicode="{" horiz-adv-x="350" 
d="M95 250l-71 89l72 78v144q0 41 15 64t30 34q20 14 43 17.5t44.5 2t39 -5.5t25.5 -7l-24 -68q-22 8 -47.5 10t-39.5 -8q-2 -2 -8 -9.5t-6 -29.5v-173l-49 -53l48 -59v-188q0 -7 0.5 -16t2.5 -18t6 -16.5t10 -11.5q15 -8 41 -1.5t47 19.5l37 -62q-5 -2 -15 -7.5t-24 -11
t-31.5 -9.5t-35.5 -4q-14 0 -27.5 3t-26.5 11q-56 32 -56 124v162z" />
    <glyph glyph-name="bar" unicode="|" horiz-adv-x="250" 
d="M92 680h68v-724h-68v724z" />
    <glyph glyph-name="braceright" unicode="}" horiz-adv-x="350" 
d="M187 275l48 60l-49 52v172q0 22 -6 29.5t-8 9.5q-14 10 -39.5 8t-47.5 -10l-24 68q8 3 25.5 7.5t39 6t44.5 -2.5t43 -18q15 -11 30 -33.5t15 -64.5v-143l72 -78l-71 -88v-163q0 -91 -56 -123q-13 -8 -26.5 -11t-27.5 -3q-18 0 -35.5 4t-31.5 9.5t-24.5 11t-14.5 7.5
l37 62q10 -6 22.5 -11t24.5 -8t23 -3t18 4q13 8 16 27.5t3 33.5v188z" />
    <glyph glyph-name="asciitilde" unicode="~" horiz-adv-x="550" 
d="M351 331q15 1 25 3.5t17.5 10.5t12.5 22t10 38l71 -14q-5 -24 -13 -47.5t-22.5 -41.5t-38 -30t-60.5 -13h-3q-54 0 -106 57q-16 17 -29 24.5t-27 7.5q-16 0 -26.5 -11.5t-17 -25t-9 -25.5l-2.5 -12l-72 11q3 19 11.5 42.5t23.5 44t37.5 34.5t54.5 14q40 0 66.5 -19
t43.5 -37q30 -33 53 -33z" />
    <glyph glyph-name="currency" unicode="&#xa4;" horiz-adv-x="600" 
d="M476 52l-86 96q-42 -22 -92 -22q-24 0 -46.5 5.5t-42.5 15.5l-81 -89l-52 48l76 83q-26 27 -40.5 62.5t-14.5 75.5q0 39 15 73.5t41 61.5l-74 92l55 45l76 -94q20 10 42.5 16t45.5 7h7q24 -1 46 -7t42 -17l75 88l54 -47l-73 -85q24 -27 37.5 -61t13.5 -72q0 -39 -14 -74
t-39 -61l82 -93zM168 327q0 -27 10 -50.5t28 -41.5t41.5 -28t50.5 -10t51 10t41.5 28t28 41.5t10.5 50.5t-10 50t-27.5 40.5t-40.5 28t-49 11.5q-27 -1 -51.5 -11.5t-43 -28.5t-29 -41t-10.5 -49z" />
    <glyph glyph-name="section" unicode="&#xa7;" horiz-adv-x="400" 
d="M204 121q38 0 59.5 16.5t21.5 36.5q0 7 -1 15t-6.5 16.5t-17 17.5t-33.5 18l-9 4q-20 8 -45.5 20t-48 29.5t-38.5 42t-16 56.5t15 58t41 43q-23 16 -38.5 38t-15.5 54q0 21 8 40.5t25 35.5t42.5 25.5t61.5 9.5q55 0 92 -30.5t48 -84.5q-1 2 -4 8.5t-11 12.5l-40 -61
q-9 7 -12 14.5t-4 10.5q-4 22 -13.5 33.5t-20 17t-20.5 6.5t-15 1q-31 0 -48 -10.5t-17 -28.5q0 -11 8 -20t21 -17t28 -14.5t30 -11.5h2v-1q1 0 2 -0.5t2 -0.5q8 -3 15 -6t13 -5q54 -23 78 -54.5t24 -78.5q0 -29 -14.5 -56t-42.5 -46q47 -38 47 -101q0 -23 -10 -45
t-29.5 -40t-48 -29t-65.5 -11q-25 0 -51 8.5t-48.5 24t-39 37t-21.5 47.5l71 13q2 -11 11 -21t21.5 -18.5t27.5 -13.5t29 -5zM142 393q0 -12 7.5 -22.5t19.5 -19.5t26.5 -17t28.5 -14q36 3 53.5 21.5t17.5 35.5q0 7 -1 15t-6.5 16.5t-17 17t-33.5 17.5q-6 4 -18 7
q-30 -2 -53.5 -16t-23.5 -41z" />
    <glyph glyph-name="dieresis" unicode="&#xa8;" horiz-adv-x="400" 
d="M73 682h90v-96h-90v96zM233 682h90v-96h-90v96z" />
    <glyph glyph-name="degree" unicode="&#xb0;" horiz-adv-x="340" 
d="M165 447q-22 0 -41.5 8.5t-34 23t-23 34t-8.5 41.5t8.5 41t23 33.5t34 23.5t41.5 9h1q47 -1 76.5 -31t29.5 -76q0 -48 -29.5 -77.5t-77.5 -29.5zM166 604q-21 -1 -36 -15.5t-15 -34.5q0 -21 14.5 -35.5t35.5 -14.5q6 0 14.5 1.5t16.5 6.5t13.5 15t5.5 27q0 27 -15.5 38
t-33.5 12z" />
    <glyph glyph-name="plusminus" unicode="&#xb1;" horiz-adv-x="550" 
d="M86 178h379v-70h-379v70zM311 208h-70v150h-155v70h155v132h70v-132h154v-70h-154v-150z" />
    <glyph glyph-name="periodcentered" unicode="&#xb7;" 
d="M399 460h139v-130h-139v130z" />
    <glyph glyph-name="multiply" unicode="&#xd7;" horiz-adv-x="580" 
d="M233 309l-153 164l53 49l148 -158l142 164l54 -47l-147 -170l158 -170l-52 -49l-153 164l-144 -166l-54 47z" />
    <glyph glyph-name="agrave" unicode="&#xe0;" horiz-adv-x="480" 
d="M234 660l77 -105l-58 -43l-78 105zM250 344q61 -2 103 -27q-2 30 -11.5 49t-23.5 30.5t-29 16t-27 4.5q-35 0 -67.5 -5t-67.5 -22l-30 63q46 23 86.5 28.5t78.5 5.5q30 0 59 -11.5t52 -34.5t37 -56.5t14 -78.5v-108v-3v-4v-144h-70v25q-44 -26 -106 -26q-36 0 -68 11.5
t-56 32t-38 47.5t-14 58q0 30 13.5 57t37.5 47.5t56 32.5t69 12h2zM354 198q-1 21 -10.5 35t-24.5 23t-33.5 13.5t-36.5 4.5q-22 0 -41.5 -6.5t-34.5 -17.5t-23.5 -25t-8.5 -30q0 -17 8.5 -31t23 -25t34 -17t41.5 -6q19 0 37.5 4t33.5 13t24.5 23.5t10.5 35.5v6z" />
    <glyph glyph-name="aacute" unicode="&#xe1;" horiz-adv-x="480" 
d="M253 661l59 -44l-78 -105l-59 44zM97 453q46 23 86.5 28.5t78.5 5.5q30 0 59 -11.5t52 -34.5t37 -56.5t14 -78.5v-108v-3v-4v-144h-70v25q-44 -26 -106 -26q-36 0 -68 11.5t-56 32t-38 47.5t-14 58q0 30 13.5 57t37.5 47t56 32t69 13h2q61 -2 103 -27q-2 30 -11.5 49.5
t-23.5 31t-29 16t-27 4.5q-36 0 -68 -5.5t-67 -22.5zM248 116q19 0 37.5 4t33.5 13t24.5 23.5t10.5 35.5v6q-1 21 -10.5 35t-24.5 23t-33.5 13.5t-36.5 4.5q-22 0 -41.5 -6.5t-34 -17.5t-23 -25t-8.5 -30q0 -17 8.5 -31t22.5 -25t33.5 -17t41.5 -6z" />
    <glyph glyph-name="egrave" unicode="&#xe8;" horiz-adv-x="480" 
d="M312 555l-59 -43l-77 105l58 44zM438 237h-317q9 -49 40.5 -80t76.5 -31q26 0 47 5t38 14t32.5 23t31.5 32l54 -48q-20 -22 -40.5 -40t-44.5 -31t-53 -20t-65 -7q-40 0 -75 16.5t-61 45.5t-41 68t-15 84t15.5 84t42 68.5t62 46.5t76.5 17l1 1q37 0 72 -15t61 -41
q30 -29 46 -69.5t16 -86.5v-36zM362 309q-5 25 -15.5 41.5t-21.5 27.5q-17 17 -38 26t-44 9q-43 -1 -76 -30t-44 -74h239z" />
    <glyph glyph-name="eacute" unicode="&#xe9;" horiz-adv-x="480" 
d="M234 513l-59 43l78 105l59 -43zM238 126q26 0 47 5t38 14t32.5 23t31.5 32l54 -48q-20 -22 -40.5 -40t-44.5 -31t-53 -20t-65 -7q-40 0 -75 16.5t-61 45.5t-41 68t-15 84t15.5 84t42 68.5t62 46.5t76.5 17h1q37 0 72 -14.5t61 -40.5q30 -29 46 -69.5t16 -86.5v-36h-317
q9 -49 40.5 -80t76.5 -31zM243 413q-43 -1 -76 -30t-44 -74h239q-5 25 -15.5 41.5t-21.5 27.5q-17 17 -38 26t-44 9z" />
    <glyph glyph-name="ecircumflex" unicode="&#xea;" horiz-adv-x="480" 
d="M238 126q26 0 47 5t38 14t32.5 23t31.5 32l54 -48q-20 -22 -40.5 -40t-44.5 -31t-53 -20t-65 -7q-40 0 -75 16.5t-61 45.5t-41 68t-15 84t15.5 84t42 68.5t62 46.5t76.5 17q38 1 72.5 -13.5t61.5 -41.5q30 -29 46 -69.5t16 -86.5v-36h-317q9 -49 40.5 -80t76.5 -31z
M243 413q-43 -1 -75.5 -30t-44.5 -74h239q-5 25 -15.5 41.5t-20.5 27.5q-17 17 -38.5 26t-44.5 9zM272 660l109 -114l-47 -45l-86 90l-87 -90l-47 45l120 124h28z" />
    <glyph glyph-name="igrave" unicode="&#xec;" horiz-adv-x="240" 
d="M89 477h73v-421h-73v421zM109 671l65 -120l-64 -35l-65 120z" />
    <glyph glyph-name="iacute" unicode="&#xed;" horiz-adv-x="240" 
d="M89 477h73v-421h-73v421zM194 637l-65 -120l-64 35l65 120z" />
    <glyph glyph-name="ograve" unicode="&#xf2;" horiz-adv-x="480" 
d="M311 555l-58 -43l-78 105l59 44zM240 478q41 -1 77.5 -18t63.5 -46t42.5 -67.5t15.5 -82.5t-16 -83t-43.5 -68t-64 -46t-78.5 -17t-78.5 17t-63.5 46t-43 68t-16 83t16 82.5t43 67.5t63.5 46t78.5 18h3zM237 122q27 0 50.5 11t41.5 30.5t28 45.5t10 55t-10 55t-27.5 45
t-40.5 30.5t-50 11.5t-51 -11.5t-41.5 -30.5t-28 -45t-10.5 -55t10 -55t27.5 -45.5t41 -30.5t50.5 -11z" />
    <glyph glyph-name="oacute" unicode="&#xf3;" horiz-adv-x="480" 
d="M253 661l59 -44l-78 -105l-59 43zM240 478q41 -1 77.5 -18t63.5 -46t42.5 -67.5t15.5 -82.5t-16 -83t-43.5 -68t-64 -46t-78.5 -17t-78.5 17t-63.5 46t-43 68t-16 83t16 82.5t43 67.5t63.5 46t78.5 18h3zM237 122q27 0 50.5 11t41.5 30.5t28 45.5t10 55t-10 55t-27.5 45
t-40.5 30.5t-50 11.5t-51 -11.5t-41.5 -30.5t-28 -45t-10.5 -55t10 -55t27.5 -45.5t41 -30.5t50.5 -11z" />
    <glyph glyph-name="divide" unicode="&#xf7;" horiz-adv-x="550" 
d="M233 246h90v-94h-90v94zM75 396h405v-72h-405v72zM233 561h90v-94h-90v94z" />
    <glyph glyph-name="ugrave" unicode="&#xf9;" horiz-adv-x="480" 
d="M164 637l64 35l65 -121l-64 -34zM56 471h72v-222q0 -8 1 -19t4 -23t9 -24t16 -22q30 -30 92 -30q16 0 32 7.5t30 19t24.5 26t15.5 29.5v258h72v-263h2q-1 -2 -1 -2.5t-1 -2.5v-149h-72v43q-22 -17 -48 -27.5t-54 -10.5q-91 0 -143 52q-25 25 -38 60.5t-13 77.5v222z" />
    <glyph glyph-name="uacute" unicode="&#xfa;" horiz-adv-x="480" 
d="M239 671l64 -35l-65 -120l-64 35zM426 208q-1 -2 -1 -2.5t-1 -2.5v-149h-72v43q-22 -17 -48 -27.5t-54 -10.5q-91 0 -143 52q-25 25 -38 60.5t-13 77.5v222h72v-222q0 -8 1 -19t4 -23t9 -24t16 -22q30 -30 92 -30q16 0 32 7.5t30 19t24.5 26t15.5 29.5v258h72v-263h2z
" />
    <glyph glyph-name="udieresis" unicode="&#xfc;" horiz-adv-x="480" 
d="M194 618v-80h-82v80h82zM374 618v-80h-82v80h82zM426 208q-1 -2 -1 -2.5t-1 -2.5v-149h-72v43q-22 -17 -48 -27.5t-54 -10.5q-91 0 -143 52q-25 25 -38 60.5t-13 77.5v222h72v-222q0 -8 1 -19t4 -23t9 -24t16 -22q30 -30 92 -30q16 0 32 7.5t30 19t24.5 26t15.5 29.5v258
h72v-263h2z" />
    <glyph glyph-name="amacron" unicode="&#x101;" horiz-adv-x="480" 
d="M389 612v-68h-267v68h267zM424 195v-4v-144h-70v25q-44 -26 -106 -26q-36 0 -68 11.5t-56 32t-38 47.5t-14 58q0 30 13.5 57t37.5 47t56 32t69 13h2q61 -2 103 -27q-2 30 -11.5 49t-23.5 30.5t-29 16t-27 4.5q-36 0 -68 -5t-67 -22l-30 63q46 23 86.5 29t78.5 6
q30 0 59 -11.5t52 -34.5t37 -57t14 -79v-108v-3zM248 116q19 0 37.5 4t33.5 13t24.5 23.5t10.5 35.5v6q-1 21 -10.5 35t-24.5 23t-33.5 13.5t-36.5 4.5q-22 0 -41.5 -6.5t-34 -17.5t-23 -25t-8.5 -30q0 -17 8.5 -31t22.5 -25t33.5 -17t41.5 -6z" />
    <glyph glyph-name="emacron" unicode="&#x113;" horiz-adv-x="480" 
d="M379 612v-68h-267v68h267zM238 126q26 0 47 5t38 14t32.5 23t31.5 32l54 -48q-20 -22 -40.5 -40t-44.5 -31t-53 -20t-65 -7q-40 0 -75 16.5t-61 45.5t-41 68t-15 84t15.5 84t42 68.5t62 46.5t76.5 17h1q37 0 72 -14.5t61 -40.5q30 -29 46 -69.5t16 -86.5v-36h-317
q9 -49 40.5 -80t76.5 -31zM243 413q-43 -1 -76 -30t-44 -74h239q-5 25 -15.5 41.5t-21.5 27.5q-17 17 -38 26t-44 9z" />
    <glyph glyph-name="ecaron" unicode="&#x11b;" horiz-adv-x="480" 
d="M238 126q26 0 47 5t38 14t32.5 23t31.5 32l54 -48q-20 -22 -40.5 -40t-44.5 -31t-53 -20t-65 -7q-40 0 -75 16.5t-61 45.5t-41 68t-15 84q0 44 15.5 83.5t42 69t62 46.5t76.5 17q37 1 72 -13.5t62 -41.5q30 -29 46 -69t16 -87v-36h-317q9 -49 40.5 -80t76.5 -31zM243 413
q-43 -1 -75.5 -29.5t-44.5 -73.5h239q-5 24 -15.5 40.5t-20.5 27.5q-17 17 -38.5 26t-44.5 9zM225 508l-110 107l45 46l88 -85l87 85l45 -46l-118 -116h-26z" />
    <glyph glyph-name="imacron" unicode="&#x12b;" horiz-adv-x="280" 
d="M99 477h73v-421h-73v421zM29 611h217v-68h-217v68z" />
    <glyph glyph-name="nacute" unicode="&#x144;" 
d="M307 -5v329h-64v26h87q13 0 42 3q4 4 14 4v-107l4 4q54 108 156 103q132 0 132 -92v-270h61v-22h-201v22h64v255q5 83 -79 78q-118 -16 -137 -160v-173h65v-22h-208v22h64zM469 410l-3 -4q-14 -18 -30 -18q-31 3 -34 33q0 21 53 47l113 68q25 9 30 7q13 -6 0 -22z" />
    <glyph glyph-name="ncaron" unicode="&#x148;" 
d="M307 -5v329h-64v26h87q13 0 42 3q4 4 14 4v-107l4 4q54 108 156 103q132 0 132 -92v-270h61v-22h-201v22h64v255q5 83 -79 78q-118 -16 -137 -160v-173h65v-22h-208v22h64zM515 390h-52l-115 156h27l118 -99l113 99h30z" />
    <glyph glyph-name="omacron" unicode="&#x14d;" horiz-adv-x="480" 
d="M370 610v-68h-267v68h267zM439 264q0 -44 -16 -83t-43.5 -68t-64 -46t-78.5 -17t-78.5 17t-63.5 46t-43 68t-16 83t16 82.5t43 67.5t63.5 46t78.5 18h3q41 -1 77.5 -18t63.5 -46t42.5 -67.5t15.5 -82.5zM237 122q27 0 50.5 11t41.5 30.5t28 45.5t10 55t-10 55t-27.5 45
t-40.5 30.5t-50 11.5t-51 -11.5t-42 -30.5t-28 -45t-10 -55t10 -55t27.5 -45.5t41 -30.5t50.5 -11z" />
    <glyph glyph-name="umacron" unicode="&#x16b;" horiz-adv-x="480" 
d="M360 610v-68h-267v68h267zM426 208q-1 -2 -1 -2.5t-1 -2.5v-149h-72v43q-22 -17 -48 -27.5t-54 -10.5q-91 0 -143 52q-25 25 -38 60.5t-13 77.5v222h72v-222q0 -8 1 -19t4 -23t9 -24t16 -22q30 -30 92 -30q16 0 32 7.5t30 19t24.5 26t15.5 29.5v258h72v-263h2z" />
    <glyph glyph-name="uni01CE" unicode="&#x1ce;" horiz-adv-x="480" 
d="M424 195v-4v-144h-70v25q-44 -26 -106 -26q-36 0 -68 11.5t-56 32t-38 47.5t-14 58q0 30 13.5 57t37.5 47t56 32t69 13h2q61 -2 103 -27q-2 29 -12 48t-23.5 30t-28.5 15.5t-27 4.5q-36 0 -68 -5.5t-67 -22.5l-30 63q46 23 86.5 28.5t78.5 5.5q30 0 59 -11.5t52 -34.5
t37 -56.5t14 -78.5v-105v-3zM248 116q19 0 37.5 4t33.5 13t24.5 23.5t10.5 35.5v6q-1 21 -10.5 35t-24.5 23t-33.5 13.5t-36.5 4.5q-22 0 -41.5 -6.5t-34 -17.5t-23 -25t-8.5 -30q0 -17 8.5 -31t22.5 -25t33.5 -17t41.5 -6zM234 508l-110 107l45 46l88 -85l87 85l45 -46
l-118 -116h-26z" />
    <glyph glyph-name="uni01D0" unicode="&#x1d0;" horiz-adv-x="280" 
d="M109 477h73v-421h-73v421zM135 499l-11 9l-110 107l45 46l88 -85l87 85l45 -46l-118 -116h-26z" />
    <glyph glyph-name="uni01D2" unicode="&#x1d2;" horiz-adv-x="480" 
d="M240 478q41 -1 77.5 -18t63.5 -46t42.5 -67.5t15.5 -82.5t-16 -83t-43.5 -68t-64 -46t-78.5 -17t-78.5 17t-63.5 46t-43 68t-16 83t16 82.5t43 67.5t63.5 46t78.5 18h3zM237 122q27 0 50.5 11t41.5 30.5t28 45.5t10 55t-10 55t-27.5 45t-40.5 30.5t-50 11.5t-51 -11.5
t-41.5 -30.5t-28 -45t-10.5 -55t10 -55t27.5 -45.5t41 -30.5t50.5 -11zM236 499l-11 9l-110 107l45 46l88 -85l87 85l45 -46l-118 -116h-26z" />
    <glyph glyph-name="uni01D4" unicode="&#x1d4;" horiz-adv-x="480" 
d="M352 97q-22 -17 -48 -27.5t-54 -10.5q-91 0 -143 52q-25 25 -38 60.5t-13 77.5v222h72v-222q0 -8 1 -19t4 -23t9 -24t16 -22q30 -30 92 -30q16 0 32 7.5t30 19t24.5 26t15.5 29.5v258h72v-263h2q-1 -2 -1 -2.5t-1 -2.5v-149h-72v43zM245 576l87 85l45 -46l-118 -116h-26
l-11 9l-110 107l45 46z" />
    <glyph glyph-name="uni01D6" unicode="&#x1d6;" 
d="M716 -8v-19h-136v65q-54 -71 -155 -71q-133 0 -129 82v275h-57v23h23q56 0 110 6v-296q0 -68 71 -68q125 9 137 123v212h-69v23h27q81 0 118 10v-365h60zM341 532v48h261v-48h-261zM379 402q-38 5 -41 45q3 43 41 48q46 -4 49 -48q-7 -40 -49 -45zM572 402q-41 4 -45 45
q4 43 45 48q37 -5 42 -48q-5 -41 -42 -45z" />
    <glyph glyph-name="uni01D8" unicode="&#x1d8;" 
d="M716 -8v-19h-136v69q-53 -75 -155 -75q-133 0 -129 82v275h-57v23h23q56 0 110 6v-296q0 -68 71 -68q125 9 137 123v212h-69v23h27q81 0 118 10v-365h60zM459 532q-2 -2 -5 -4t-7 -4q-12 -15 -22 -15q-31 4 -35 31q0 26 49 51l118 64q23 14 30 10q10 -7 0 -22zM379 402
q-38 5 -41 45q3 39 41 44q42 -4 49 -44q-3 -41 -49 -45zM572 402q-41 4 -45 45q5 40 45 44q37 -4 42 -44q-5 -41 -42 -45z" />
    <glyph glyph-name="uni01DA" unicode="&#x1da;" 
d="M716 -8v-19h-136v65q-54 -71 -155 -71q-133 0 -129 82v275h-57v23h23q56 0 110 6v-296q0 -68 71 -68q125 9 137 123v212h-69v23h27q81 0 118 10v-365h60zM501 509h-54l-117 160h30l113 -100l114 100h31zM390 406q-46 4 -49 44q7 40 49 45q37 -5 42 -45q-4 -39 -42 -44z
M576 406q-42 0 -42 44q4 40 42 45q42 -5 46 -45q-4 -40 -46 -44z" />
    <glyph glyph-name="uni01DC" unicode="&#x1dc;" 
d="M716 -8v-19h-136v65q-54 -71 -155 -71q-133 0 -129 82v275h-57v23h23q56 0 110 6v-296q0 -68 71 -68q125 9 137 123v212h-69v23h27q81 0 118 10v-365h60zM561 509h-34l-129 78q-50 27 -50 49q0 33 35 33q10 0 30 -14q0 -4 4 -8zM379 402q-38 5 -41 45q3 43 41 48
q46 -4 49 -48q-7 -40 -49 -45zM572 402q-41 4 -45 45q4 43 45 48q37 -5 42 -48q-5 -41 -42 -45z" />
    <glyph glyph-name="uni01F9" unicode="&#x1f9;" 
d="M519 559l69 -136q5 -11 1.5 -15t-8.5 -3q-6 0 -13 7l-6 6l-156 141h113zM243 -27v22h64v329h-64v26h87q13 0 42 3q4 4 14 4v-107l4 4q54 108 156 103q132 0 132 -92v-270h61v-22h-201v22h64v255q5 83 -79 78q-118 -16 -137 -160v-173h65v-22h-208z" />
    <glyph glyph-name="uni0251" unicode="&#x251;" 
d="M705 45q-5 -69 -69 -72q-68 -3 -75 57q-42 -60 -129 -57q-159 11 -170 187q11 189 181 200q80 -4 118 -74v70h75v-308q0 -40 27 -44q28 0 34 41h8zM561 241q-27 97 -118 97q-96 5 -91 -163q-11 -206 95 -191q30 0 68 20q53 32 50 152q0 76 -4 85z" />
    <glyph glyph-name="uni0261" unicode="&#x261;" 
d="M568 30q-45 -60 -125 -57q-159 10 -174 183q0 101 65 163q50 41 109 41q87 -4 125 -78v78q19 -4 47.5 -6t70.5 -2h11v-21h-57v-485q-12 -122 -171 -137q-163 5 -173 90q5 51 45 55q45 -4 49 -53q0 -16 -7 -29q-12 -18 0 -26q15 -15 83 -15q102 0 102 119v180zM572 167
q4 99 -41 138q-32 33 -76 33q-100 0 -95 -189q-8 -165 95 -161q113 6 113 127q0 14 4 27v25z" />
    <glyph glyph-name="caron" unicode="&#x2c7;" horiz-adv-x="350" 
d="M192 455l-37 3l-154 172l56 49l119 -133l120 129l54 -51z" />
    <glyph glyph-name="uni02C9" unicode="&#x2c9;" horiz-adv-x="350" 
d="M30 679h289v-72h-289v72z" />
    <glyph glyph-name="uni02CA" unicode="&#x2ca;" horiz-adv-x="350" 
d="M222 686l51 -54l-166 -156l-51 53z" />
    <glyph glyph-name="uni02CB" unicode="&#x2cb;" horiz-adv-x="350" 
d="M117 687l166 -157l-51 -54l-166 157z" />
    <glyph glyph-name="dotaccent" unicode="&#x2d9;" horiz-adv-x="350" 
d="M115 693h109v-100h-109v100z" />
    <glyph glyph-name="Alpha" unicode="&#x391;" 
d="M273 -1h95v-26h-217v26h88l238 659h30l228 -659h80v-26h-269v26h76l-73 214h-197zM542 239l-87 260l-95 -260h182z" />
    <glyph glyph-name="Beta" unicode="&#x392;" 
d="M201 647h288q233 -7 250 -156q0 -133 -171 -163v-8q192 -33 197 -170q-5 -170 -254 -177h-310v26h87v622h-87v26zM394 306v-307h117q145 -10 133 158q5 149 -143 149h-107zM394 621v-289h95q146 -8 140 144q3 149 -136 145h-99z" />
    <glyph glyph-name="Gamma" unicode="&#x393;" 
d="M504 -27h-284v26h87v622h-87v26h527v-179h-23q-12 153 -186 153h-121v-622h87v-26z" />
    <glyph glyph-name="uni0394" unicode="&#x394;" 
d="M493 658l284 -685h-588l284 685h20zM443 517l-185 -460h374z" />
    <glyph glyph-name="Epsilon" unicode="&#x395;" 
d="M761 -27h-556v26h87v622h-87v26h526v-171h-23q-15 153 -197 145h-113v-293h30q120 -5 125 111h23v-256h-23q-5 122 -125 115h-30v-299h167q156 -5 174 169h22v-195z" />
    <glyph glyph-name="Zeta" unicode="&#x396;" 
d="M739 -27h-516v32l413 616h-189q-132 0 -163 -141h-26l7 167h478v-45l-405 -603h238q121 -5 144 165h27z" />
    <glyph glyph-name="Eta" unicode="&#x397;" 
d="M629 306h-295v-307h91v-26h-281v26h83v622h-83v26h281v-26h-91v-286h295v286h-87v26h281v-26h-84v-622h84v-26h-281v26h87v307z" />
    <glyph glyph-name="Theta" unicode="&#x398;" 
d="M481 -27q-292 22 -322 333q30 325 322 352q300 -23 326 -352q-25 -313 -326 -333zM481 -11q204 -7 197 317q8 333 -197 326q-201 7 -193 -326q-5 -322 193 -317zM398 201h-30v257h30v-86h174v86h30v-257h-30v86h-174v-86z" />
    <glyph glyph-name="Iota" unicode="&#x399;" 
d="M636 621h-98v-622h98v-26h-306v26h98v622h-98v26h306v-26z" />
    <glyph glyph-name="Kappa" unicode="&#x39a;" 
d="M352 320v-321h91v-26h-292v26h92v622h-92v26h292v-26h-91v-297l315 297h-110v26h242v-26h-87l-273 -252l326 -370h50v-26h-273v26h94z" />
    <glyph glyph-name="Lambda" unicode="&#x39b;" 
d="M265 -1h91v-26h-197v26h72l242 659h24l238 -659h72v-26h-273v26h88l-175 500z" />
    <glyph glyph-name="Mu" unicode="&#x39c;" 
d="M209 621h-4v-622h91v-26h-216v26h98v622h-91v26h220l182 -516l181 516h217v-26h-95v-622h95v-26h-292v26h91v611h-4l-223 -637h-23z" />
    <glyph glyph-name="Nu" unicode="&#x39d;" 
d="M262 595h-4v-596h98v-26h-215v26h86v622h-83v26h204l357 -512h3v486h-94v26h212v-26h-87v-654h-27z" />
    <glyph glyph-name="Xi" unicode="&#x39e;" 
d="M231 647h527l19 63h26l-49 -223h-30l15 67h-527l-19 -67h-26l49 223h27zM227 65h527l19 78h26l-49 -223h-26l11 53h-526l-16 -53h-26l49 223h30zM227 183l53 256h27l-11 -74h405l15 74h27l-53 -256h-27l15 86h-405l-19 -86h-27z" />
    <glyph glyph-name="Omicron" unicode="&#x39f;" 
d="M481 -27q-292 22 -322 333q30 325 322 352q300 -23 326 -352q-25 -313 -326 -333zM481 -11q204 -7 197 317q8 333 -197 326q-201 7 -193 -326q-5 -322 193 -317z" />
    <glyph glyph-name="Pi" unicode="&#x3a0;" 
d="M629 621h-295v-622h91v-26h-281v26h83v622h-83v26h679v-26h-84v-622h84v-26h-281v26h87v622z" />
    <glyph glyph-name="Rho" unicode="&#x3a1;" 
d="M497 -27h-300v26h91v622h-91v26h318q242 -8 254 -171q-12 -190 -268 -197h-103v-280h99v-26zM398 621v-312h95q159 -3 155 157q8 163 -147 155h-103z" />
    <glyph glyph-name="Sigma" unicode="&#x3a3;" 
d="M690 -27h-501v8l349 291l-349 356v19h440q15 0 15 11t-4 18q-4 9 -4 23h27l57 -175h-30q-32 108 -95 97h-257l294 -308l-298 -248h382l31 88h30l-76 -227h-31z" />
    <glyph glyph-name="Tau" unicode="&#x3a4;" 
d="M632 -27h-294v26h90v622h-64q-87 0 -141 -137q-3 -17 -7 -18h-31l24 181h549l27 -181h-31q-4 1 -7 18q-45 142 -141 137h-68v-622h94v-26z" />
    <glyph glyph-name="Upsilon" unicode="&#x3a5;" 
d="M622 -27h-284v26h87v270l-137 248l-8 11q-30 59 -57 56q-19 0 -38 -19q-11 -11 -18 -11q-8 0 -8 11q23 77 103 82q64 4 102 -74l151 -275l117 260q36 89 96 89q67 -7 83 -86q0 -21 -12 -21q-7 0 -14 18q-24 41 -61 41q-42 0 -68 -59l-122 -268v-273h88v-26z" />
    <glyph glyph-name="Phi" unicode="&#x3a6;" 
d="M344 647h278v-26h-84v-93q285 -18 285 -222q-7 -195 -285 -212v-95h84v-26h-278v26h84v95q-278 17 -284 212q0 204 284 222v93h-84v26zM538 120q186 5 190 186q0 190 -190 197v-383zM428 503q-183 -8 -189 -197q6 -176 189 -186v383z" />
    <glyph glyph-name="Chi" unicode="&#x3a7;" 
d="M276 -1h96v-26h-221v26h88l193 296l-209 326h-68v26h270v-26h-77l153 -237l155 237h-80v26h201v-26h-83l-179 -264l228 -358h76v-26h-277v26h80l-167 266z" />
    <glyph glyph-name="Psi" unicode="&#x3a8;" 
d="M428 621h-87v26h285v-26h-88v-434q72 11 98 59q22 36 42 185q12 138 95 127q86 -4 91 -123h-27q-8 68 -34 68q-25 3 -30 -56q-30 -271 -235 -286v-162h88v-26h-285v26h87v162q-206 18 -231 286q-8 59 -34 56q-25 -7 -30 -68h-27q5 119 91 123q83 11 91 -127
q23 -156 46 -185q21 -49 94 -59v434z" />
    <glyph glyph-name="uni03A9" unicode="&#x3a9;" 
d="M185 -27l-60 170h30l30 -86h163q-166 157 -163 312q19 271 296 289q281 -18 300 -289q4 -163 -163 -312h167l30 86h26l-56 -170h-236q118 205 114 403q-3 251 -182 256q-171 -5 -174 -256q0 -203 110 -403h-232z" />
    <glyph glyph-name="alpha" unicode="&#x3b1;" 
d="M678 369q12 0 12 -16q7 -102 -76 -222q2 -5 4 -12.5t4 -16.5q18 -90 64 -86q14 0 34 12q12 6 19 6q11 0 11 -10q-27 -43 -98 -51q-68 0 -95 80q-72 -80 -167 -80q-162 7 -170 191q15 200 189 220q144 5 193 -197q34 64 34 148q0 37 16 34h26zM425 357q-115 -7 -121 -207
q0 -140 98 -145q67 -4 140 81l-35 168q-25 108 -82 103z" />
    <glyph glyph-name="beta" unicode="&#x3b2;" 
d="M330 -212h-76v622q8 192 205 200q192 -7 197 -171q4 -96 -118 -141q174 -27 174 -167q-8 -161 -208 -168q-107 0 -174 61v-236zM330 135q12 -126 159 -134q125 5 129 142q-5 119 -121 126h-28q-7 -2 -15.5 -3t-17.5 -1q-38 0 -38 33q0 34 41 34h27q9 -2 17 -3t14 -1
q76 0 71 107q-3 137 -113 142q-120 -4 -125 -149v-293z" />
    <glyph glyph-name="gamma" unicode="&#x3b3;" 
d="M580 83q24 58 41 116t27 121q12 78 42 74q30 0 30 -44q0 -87 -110 -322q-8 -14 -12.5 -22.5t-6.5 -13.5q0 -46 -1.5 -80.5t-5.5 -56.5q0 -63 -50 -63q-37 0 -37 45q5 71 56 155l-22 65q-50 172 -114 230q-29 26 -65 26q-64 0 -76 -56q-3 -18 -14 -18q-16 0 -16 30
q7 115 110 121q149 8 224 -307z" />
    <glyph glyph-name="delta" unicode="&#x3b4;" 
d="M304 528q3 100 117 104q145 -8 215 -164q0 -6 -10 -6t-28 18q-11 11 -21.5 20t-19.5 17q-84 63 -159 63q-60 0 -60 -44q-24 -27 155 -119q193 -103 193 -256q-8 -180 -205 -188q-185 12 -201 199q8 164 193 185q-5 4 -14 10.5t-23 16.5q-137 69 -132 144zM489 332
q-110 0 -110 -171q4 -162 110 -166q109 0 109 166q-3 164 -109 171z" />
    <glyph glyph-name="epsilon" unicode="&#x3b5;" 
d="M421 190q-87 15 -87 86q9 100 170 108q177 -7 182 -93q0 -45 -46 -45q-27 0 -49 45q-35 66 -87 66q-76 -4 -83 -100q5 -48 45 -52q9 0 18.5 1t19.5 3q11 4 30 4q38 0 38 -33q0 -30 -38 -30q-23 0 -41 7q-14 2 -23.5 3t-14.5 1q-76 0 -76 -96q4 -70 94 -73q89 -3 133 87
q12 27 30 27q26 -4 31 -23q-15 -105 -201 -110q-178 0 -182 102q4 94 137 112v3z" />
    <glyph glyph-name="zeta" unicode="&#x3b6;" 
d="M447 -27q-134 -2 -129 117q0 118 155 378h-22q-79 4 -83 64q4 66 83 82q12 0 12 -8q0 -3 -16 -15l-11 -7q-32 -18 -27 -44q4 -40 50 -45q34 0 79 48q38 44 64 44q29 -3 34 -33q-4 -45 -68 -67l-15 -7q-56 -12 -68 -49q-2 -10 -7 -24.5t-12 -34.5q-30 -91 -45.5 -150
t-15.5 -87q-6 -110 122 -104q129 3 125 -94q-8 -123 -155 -131q-104 5 -111 56q0 34 35 34q20 0 48 -16q40 -22 77 -22q60 4 64 59q5 56 -117 56h-46z" />
    <glyph glyph-name="eta" unicode="&#x3b7;" 
d="M386 -27v232q0 120 -68 115q-56 0 -60 -66q0 -23 -12 -23q-15 0 -15 48q7 100 99 105q79 -5 95 -93h3q43 93 148 93q159 -4 163 -167v-374q5 -60 -45 -55q-51 -5 -46 41v395q5 120 -80 115q-95 0 -95 -141v-225h-87z" />
    <glyph glyph-name="theta" unicode="&#x3b8;" 
d="M481 -33q-170 14 -185 312q18 306 185 327q178 -18 193 -327q-15 -299 -193 -312zM576 279h-186v-59q5 -232 91 -239q95 5 95 239v59zM390 316h186v68q-4 193 -95 196q-87 -6 -91 -196v-68z" />
    <glyph glyph-name="iota" unicode="&#x3b9;" 
d="M455 372v-286q4 -55 52 -55q58 0 61 67q0 45 12 41q22 0 22 -56q0 -110 -113 -110q-125 0 -125 133v266h91z" />
    <glyph glyph-name="kappa" unicode="&#x3ba;" 
d="M352 -27h-87v399h87v-185q86 30 149 129q33 68 86 68q57 0 57 -52q0 -41 -57 -41h-34q-14 0 -64 -56l-16 -18l149 -193q25 -40 64 -35q15 0 15 -12q7 -4 -69 -4q-63 0 -94 28l-133 163q-22 -19 -53 -25v-166z" />
    <glyph glyph-name="lambda" unicode="&#x3bb;" 
d="M436 302l-88 -329h-98l163 384q-9 17 -19.5 39.5t-21.5 50.5q-35 83 -62 107q-6 7 -22 19q-19 18 -19 22q5 11 15 11q79 0 201 -216q4 -1 4 -6q27 -52 56.5 -117.5t60.5 -150.5q37 -117 64 -107q26 3 31 15l4 4q3 6 7 6q8 0 8 -18q0 -43 -76 -43q-72 0 -106 84l-99 245
h-3z" />
    <glyph glyph-name="uni03BC" unicode="&#x3bc;" 
d="M595 372v-270q0 -82 61 -82q63 0 68 78q5 26 15 26q15 6 11 -45q0 -106 -94 -106q-83 -2 -107 88q-26 -89 -124 -88q-83 -1 -121 80h-4q0 -14 1 -32.5t3 -43.5q3 -63 3 -107q3 -89 -45 -82q-50 -8 -46 82q0 11 1 32t3 53q4 26 5.5 44t1.5 32q0 11 1 28t3 43q4 54 6 95
t2 72v103h83v-252q7 -95 103 -100q87 -12 82 152v200h88z" />
    <glyph glyph-name="nu" unicode="&#x3bd;" 
d="M372 350h-103v30l190 4v-350q156 102 163 220q0 17 -12 55q-4 17 -6 26.5t-2 11.5q0 37 42 37q53 0 53 -86q-27 -203 -311 -325q-14 0 -14 4v373z" />
    <glyph glyph-name="xi" unicode="&#x3be;" 
d="M459 269q-125 14 -125 111q4 93 159 126v3q-99 12 -99 64q8 48 65 59q18 0 18 -11q0 -5 -11 -19q-15 -11 -15 -25q4 -40 56 -45q20 0 54 22q32 23 45 23q25 -5 30 -27q5 -44 -83 -47q-124 -16 -132 -119q4 -88 80 -93q22 0 43.5 3.5t42.5 11.5q13 7 31 7q34 0 34 -37
t-38 -37q-4 0 -7.5 0.5t-8.5 2.5q-23 4 -43 6t-40 2q-114 -12 -121 -115q0 -72 53 -101q12 -5 33 -8.5t51 -5.5q64 -5 87 -19q49 -27 49 -79q-4 -112 -152 -116q-99 12 -106 60q0 22 19 22q11 0 45 -14q45 -27 84 -27q72 4 75 60q7 67 -143 60q-189 7 -189 149
q4 111 159 153z" />
    <glyph glyph-name="omicron" unicode="&#x3bf;" 
d="M481 384q201 -12 213 -212q-7 -194 -213 -199q-202 7 -208 199q11 195 208 212zM481 361q-109 -4 -109 -189q3 -180 109 -183q114 3 117 183q-3 184 -117 189z" />
    <glyph glyph-name="pi" unicode="&#x3c0;" 
d="M773 384v-82h-144q0 -26 4.5 -63.5t14.5 -88.5q19 -82 19 -119q3 -60 -53 -58q-49 0 -49 61q0 11 2.5 32t8.5 50q22 107 22 186h-162q0 -57 2.5 -109t8.5 -103q2 -22 3 -37.5t1 -24.5q-4 -55 -57 -55q-50 0 -50 51q0 40 28 137q30 100 30 141h-76q-86 5 -106 -97h-27
q12 172 145 179h435z" />
    <glyph glyph-name="rho" unicode="&#x3c1;" 
d="M375 -190q8 -26 -41 -22q-47 -5 -42 22v388q5 182 185 186q193 -7 201 -223q-10 -183 -193 -188q-76 0 -110 22v-185zM477 -8q108 -6 103 176q5 197 -103 189q-107 7 -102 -189q-5 -182 102 -176z" />
    <glyph glyph-name="sigma" unicode="&#x3c3;" 
d="M754 384v-71h-167q45 -65 45 -141q-6 -192 -207 -199q-201 7 -209 199q11 200 209 212h329zM425 361q-115 0 -115 -189q0 -180 115 -183q108 3 113 183q-5 185 -113 189z" />
    <glyph glyph-name="tau" unicode="&#x3c4;" 
d="M678 384v-82h-163q0 -86 27 -216q5 -26 8 -40.5t3 -17.5q4 -55 -52 -55q-54 0 -54 55q0 5 2 19t6 39q13 69 19.5 121.5t6.5 94.5h-102q-61 0 -61 -89h-26v37q0 134 121 134h265z" />
    <glyph glyph-name="upsilon" unicode="&#x3c5;" 
d="M364 269q0 59 -46 59q-18 0 -34 -22l-11 -11q-8 -8 -11 -8q-8 0 -8 15q15 74 102 82q107 -8 107 -127l-4 -130q-12 -125 75 -118q102 6 114 155q0 69 -30 131q-16 28 -16 48q4 40 42 45q63 -4 68 -123q-7 -288 -205 -292q-143 0 -143 173v123z" />
    <glyph glyph-name="phi" unicode="&#x3c6;" 
d="M469 -208l-6 181q-244 19 -262 207q4 174 246 204q-2 48 -3 92t-1 89q-5 68 38 63q51 5 46 -63v-89q-2 -29 -3 -52t-1 -40q238 -30 246 -204q-18 -188 -265 -207l-7 -181h-28zM447 357q-143 -9 -151 -174q11 -174 167 -188zM507 -5q152 13 163 188q-3 165 -151 174z" />
    <glyph glyph-name="chi" unicode="&#x3c7;" 
d="M610 -80q37 -110 84 -99q37 0 34 -11q-4 -22 -76 -22q-84 -18 -141 142l-45 101q-71 -60 -152 -202q-14 -41 -30 -41q-19 0 -19 18q0 76 178 269l-53 130q-60 175 -128 148q-23 0 -23 12q5 24 79 25q92 8 137 -118l56 -133q42 46 80 103.5t76 129.5q10 18 23 18
q15 0 15 -25q-12 -79 -174 -271z" />
    <glyph glyph-name="psi" unicode="&#x3c8;" 
d="M501 -212h-35l-3 185q-214 12 -224 199q0 66 41 134v3q-7 -7 -30 -7q-34 0 -34 41q4 36 42 41q72 5 76 -115q4 -17 4 -71v-82q3 -116 125 -121q0 66 -12 300q-4 130 -6 196.5t-2 77.5q0 28 38 33q42 0 42 -33t-12 -423q-2 -58 -3 -95.5t-1 -55.5q119 5 125 121v153
q12 119 76 115q46 0 46 -41q-4 -36 -38 -41q-19 0 -26 7l-4 -3q42 -68 42 -134q-12 -187 -221 -199z" />
    <glyph glyph-name="omega" unicode="&#x3c9;" 
d="M773 153q-17 -168 -178 -180q-81 0 -114 73q-30 -73 -109 -73q-158 12 -175 180q7 193 167 231q11 0 11 -8q0 -4 -11 -15q-72 -68 -72 -193q4 -156 87 -159q72 3 76 70q0 22 -12 64q-15 48 -15 81q0 55 53 55q57 0 57 -55q0 -23 -11 -81q-12 -42 -12 -64q4 -67 72 -70
q86 3 91 159q0 125 -72 193q-11 11 -11 15q0 13 11 8q160 -42 167 -231z" />
    <glyph glyph-name="uni0401" unicode="&#x401;" 
d="M334 450q13 134 -88 115v22h424q2 -5 4 -29t4 -67q2 -14 3 -23.5t1 -17.5l-22 -3q-17 69 -38 89q-25 22 -107 22h-72q-35 4 -30 -30v-215h98q103 -15 95 75h26v-190h-26v11q-5 49 -19 56q-17 11 -76 11h-98v-170q0 -77 26 -94q17 -11 99 -11q87 0 122 30q24 28 45 93
l26 -4q-2 -4 -5.5 -22.5t-9.5 -51.5l-19 -73h-458v22q113 -18 95 114v341zM572 625q-45 0 -45 40q4 40 45 45q37 -5 42 -45q-4 -37 -42 -40zM390 625q-46 0 -46 40q4 40 46 45q37 -8 42 -45q-4 -37 -42 -40z" />
    <glyph glyph-name="uni0410" unicode="&#x410;" 
d="M561 -27v22l34 4q45 0 27 43l-24 67q-14 32 -23 55.5t-14 40.5h-197q-5 -20 -17.5 -54.5t-32.5 -85.5q-30 -70 34 -70h31v-22h-208v22q71 -14 102 95l200 505l24 7l71 -181q32 -94 63 -177t63 -161q25 -97 101 -88v-22h-234zM463 476l-88 -237h171z" />
    <glyph glyph-name="uni0411" unicode="&#x411;" 
d="M326 450q17 135 -87 115v22h428q0 -22 1.5 -55.5t5.5 -81.5l-22 -3q-17 72 -34 89q-25 22 -107 22h-68q-44 6 -38 -34v-192h106q216 -5 220 -168q0 -107 -83 -152q-38 -19 -85 -29t-104 -10h-224v22q54 -9 77.5 19.5t13.5 94.5v341zM405 302v-196q-11 -119 92 -105
q135 5 139 156q0 145 -170 145h-61z" />
    <glyph glyph-name="uni0412" unicode="&#x412;" 
d="M239 587h262q94 0 139 -33q50 -33 50 -104q-5 -96 -125 -134v-3q162 -33 166 -160q0 -96 -91 -144q-57 -36 -181 -36h-224v22q54 -9 77.5 19.5t13.5 94.5v341q17 135 -87 115v22zM405 291v-205q-11 -99 84 -85q142 4 147 138q-4 148 -173 152h-58zM405 320h61
q140 0 140 119q0 122 -140 122q-40 0 -53 -7q-8 5 -8 -22v-212z" />
    <glyph glyph-name="uni0413" unicode="&#x413;" 
d="M352 450q16 135 -83 115v22h425q2 -37 4.5 -71t6.5 -66l-27 -3q-11 66 -34 89q-22 22 -106 22h-65q-48 6 -41 -34v-415q-20 -132 102 -114v-22h-269v22q103 -18 87 114v341z" />
    <glyph glyph-name="uni0414" unicode="&#x414;" 
d="M334 -27q-90 20 -107 -96l-15 -59h-23v155q-5 28 27 26h23q24 -4 34 29q87 144 87 471q8 62 -53 62l-42 4v22h508v-22q-110 20 -91 -115v-367q-12 -102 53 -84h19q27 0 27 -26v-155h-27l-15 62q-23 105 -107 93h-298zM542 1q68 -9 60 74v412q8 86 -37 71h-106
q-65 4 -54 -30q0 -340 -67 -486q-17 -41 14 -41h190z" />
    <glyph glyph-name="uni0415" unicode="&#x415;" 
d="M334 450q13 134 -88 115v22h424q2 -5 4 -29t4 -67q2 -14 3 -23.5t1 -17.5l-22 -3q-17 69 -38 89q-25 22 -107 22h-72q-35 4 -30 -30v-215h98q103 -15 95 75h26v-190h-26v11q-5 49 -19 56q-17 11 -76 11h-98v-170q0 -77 26 -94q17 -11 99 -11q87 0 122 30q24 28 45 93
l26 -4q-2 -4 -5.5 -22.5t-9.5 -51.5l-19 -73h-458v22q113 -18 95 114v341z" />
    <glyph glyph-name="uni0416" unicode="&#x416;" 
d="M527 309q80 -3 117 34q21 19 61 104q7 19 13 34.5t13 27.5q43 97 110 93q49 0 49 -33t-33 -33h-31q-35 0 -87 -97q-8 -17 -14.5 -29.5t-12.5 -21.5q-25 -60 -90 -86v-4q72 -18 117 -89l30 -52l50 -89q37 -73 102 -73v-22h-84q-67 0 -109 84l-16 26q-17 37 -31 64t-25 47
q-47 96 -129 89v-174q-17 -132 83 -114v-22h-254v22q103 -18 87 114v174q-77 8 -133 -89l-71 -137q-35 -84 -110 -84h-83v22q68 0 105 73q27 55 46.5 89.5t33.5 51.5q38 71 117 89v4q-62 27 -94 86q-4 9 -9.5 20.5t-13.5 26.5q-52 115 -87 101h-31q-33 0 -37 33q0 33 53 33
q64 0 106 -93q7 -13 19 -41q44 -106 72 -125q33 -37 117 -34v141q16 134 -87 115v22h254v-22q-99 20 -83 -115v-141z" />
    <glyph glyph-name="uni0417" unicode="&#x417;" 
d="M402 279q-30 0 -34 27q5 29 34 29h11q7 0 34 -3q14 -2 23 -3t15 -1q94 7 99 111q-4 125 -111 130q-122 4 -147 -144h-26q2 13 5.5 40.5t8.5 70.5q2 14 3 21.5t1 11.5l68 18q21 8 45.5 11.5t53.5 3.5q179 -6 189 -148q0 -64 -48 -97q-19 -13 -42.5 -24t-52.5 -20
q170 -30 170 -170q-11 -167 -238 -176q-109 0 -159 32q-35 22 -39 69q5 41 39 44q26 -3 34 -26q30 -94 128 -97q135 12 140 146q-7 139 -121 156q-5 0 -14 -2t-24 -6q-14 -2 -22 -3t-12 -1h-11z" />
    <glyph glyph-name="uni0418" unicode="&#x418;" 
d="M239 450q15 134 -88 115v22h254v-22q-99 20 -83 -115v-330h4l306 364q16 16 16 33q7 48 -64 48v22h231v-22q-103 19 -87 -115v-341q-17 -132 87 -114v-22h-254v22q103 -18 87 114v334h-4l-310 -357q-12 -11 -12 -33v-11q-8 -47 61 -47v-22h-232v22q103 -18 88 114v341z
" />
    <glyph glyph-name="uni0419" unicode="&#x419;" 
d="M239 450q15 134 -88 115v22h254v-22q-99 20 -83 -115v-330h4l306 364q16 16 16 33q7 48 -64 48v22h231v-22q-103 19 -87 -115v-341q-17 -132 87 -114v-22h-254v22q103 -18 87 114v334h-4l-310 -357q-12 -11 -12 -33v-11q-8 -47 61 -47v-22h-232v22q103 -18 88 114v341z
M481 610q-118 5 -125 74q4 37 30 37q30 0 35 -41t60 -41q65 0 65 41q3 41 34 41q26 0 30 -37q-7 -69 -129 -74z" />
    <glyph glyph-name="uni041A" unicode="&#x41a;" 
d="M284 450q17 132 -91 115v22h258v-22q-103 19 -87 -115v-141q95 -3 129 34q27 24 64 111q8 17 14.5 30.5t12.5 24.5q37 93 106 93q48 0 53 -33q-4 -28 -35 -33h-30q-38 0 -98 -123q-5 -8 -9 -14t-6 -11q-22 -49 -84 -82q-4 -4 -8 -4v-4q76 -18 118 -89l76 -141
q21 -36 47 -54.5t59 -18.5v-22h-87q-65 0 -110 84q-10 23 -27 57t-42 80q-48 101 -143 89v-174q-17 -132 87 -114v-22h-258v22q108 -14 91 114v341z" />
    <glyph glyph-name="uni041B" unicode="&#x41b;" 
d="M300 587h473v-22q-104 17 -87 -115v-341q-17 -128 87 -114v-22h-258v22q110 -18 91 114v382q7 82 -38 67h-87q-64 4 -53 -26q0 -401 -106 -531q-41 -38 -72 -34q-14 0 -38 6h-19v16q62 12 107 86q78 138 86 428q17 67 -86 62v22z" />
    <glyph glyph-name="uni041C" unicode="&#x41c;" 
d="M95 587h159l235 -489l231 489h159v-22q-109 19 -87 -115l7 -341q-13 -132 91 -114v-22h-254v22q102 -18 84 114l-4 382h-4l-239 -506h-26l-224 491l-11 -263v-171q5 -47 92 -47v-22h-228v22q76 5 83 47q6 42 10 86.5t6 95.5l10 197q31 166 -90 144v22z" />
    <glyph glyph-name="uni041D" unicode="&#x41d;" 
d="M318 316h334v134q17 135 -84 115v22h255v-22q-103 19 -88 -115v-341q-15 -132 88 -114v-22h-262v22q109 -18 91 114v170h-334v-170q-15 -132 84 -114v-22h-255v22q103 -18 88 114v341q18 134 -91 115v22h254v-22q-95 20 -80 -115v-134z" />
    <glyph glyph-name="uni041E" unicode="&#x41e;" 
d="M497 602q288 -21 306 -315q-18 -302 -326 -320q-291 18 -314 305q30 312 334 330zM708 254q-8 300 -239 315q-204 -15 -211 -271q15 -294 239 -309q204 9 211 265z" />
    <glyph glyph-name="uni041F" unicode="&#x41f;" 
d="M379 558q-73 18 -61 -108v-341q-15 -132 87 -114v-22h-254v22q103 -18 88 114v341q15 134 -88 115v22h668v-22q-103 19 -88 -115v-341q-15 -132 88 -114v-22h-258v22q103 -18 87 114v341q12 130 -61 108h-208z" />
    <glyph glyph-name="uni0420" unicode="&#x420;" 
d="M413 242v-133q-18 -128 102 -114v-22h-265v22q102 -18 84 114v341q14 134 -80 115v22h243q107 0 159 -37q64 -43 64 -133q-8 -156 -189 -189q-12 -2 -22.5 -3t-19.5 -1zM413 272q30 -11 76 -11q137 5 140 156q3 148 -156 144q-9 0 -19.5 -0.5t-21.5 -2.5h-7
q-12 -8 -12 -26v-260z" />
    <glyph glyph-name="uni0421" unicode="&#x421;" 
d="M754 435l-26 -4q-32 142 -186 138q-238 -7 -250 -274q12 -297 250 -306q139 -7 208 150l23 -4q-15 -51 -27.5 -88t-21.5 -62q-45 -10 -89.5 -14t-92.5 -4q-325 7 -349 302q24 312 368 333q92 0 174 -25q2 -12 4 -28.5t4 -39.5z" />
    <glyph glyph-name="uni0422" unicode="&#x422;" 
d="M527 558v-449q-20 -132 102 -114v-22h-285v22q118 -18 99 114v449h-45q-102 0 -129 -30q-5 -9 -14 -30.5t-20 -54.5h-23q0 11 1 27.5t3 38.5q4 37 5.5 61.5t1.5 39.5h16q15 -26 49 -23h398q23 0 42 19l3 4h16q0 -26 1.5 -66t5.5 -97l-23 -4q-8 36 -16 58.5t-18 30.5
q-23 26 -106 26h-64z" />
    <glyph glyph-name="uni0423" unicode="&#x423;" 
d="M185 587h224v-22l-26 -4q-39 0 -11 -55l143 -301q45 91 74.5 161.5t46.5 124.5q24 70 -38 70l-30 4v22h213v-22q-74 12 -111 -99q-15 -32 -56 -122.5t-110 -249.5l-15 -33q-61 -109 -141 -106q-41 0 -72 18q-18 35 8 55q22 9 42 0q21 -22 53 -27q60 7 87 108q0 17 -7 34
q-4 4 -4 14q-23 42 -65 127.5t-106 218.5q-21 62 -99 62v22z" />
    <glyph glyph-name="uni0424" unicode="&#x424;" 
d="M356 587h254v-22q-88 5 -83 -59q265 -18 272 -219q-7 -201 -272 -226q-7 -72 83 -66v-22h-254v22q94 -6 87 66q-269 26 -276 226q7 201 272 219q5 64 -83 59v22zM523 109q0 -19 4 -19q182 20 189 197q-7 174 -189 197q-4 -7 -4 -34v-341zM443 484q-182 -23 -189 -197
q7 -177 189 -197v394z" />
    <glyph glyph-name="uni0425" unicode="&#x425;" 
d="M185 587h247v-22l-34 -4q-24 -3 -30 -11q-4 -4 7 -26q11 -19 31 -49t49 -73l34 -52l12 19l94 148q15 27 11 33q-5 8 -30 11l-34 4v22h216v-22q-75 7 -122 -70q-26 -28 -56.5 -71.5t-72.5 -103.5q45 -66 85 -127.5t78 -121.5q43 -82 129 -76v-22h-257v22l30 4q25 1 30 10
q8 8 -4 25q-6 12 -18.5 32.5t-30.5 49.5q-29 42 -50 75t-36 59q-30 -45 -62.5 -97t-66.5 -115q-16 -19 -8 -33q5 -5 30 -10h34v-22h-223v22q80 0 106 47q7 5 49.5 63.5t120.5 173.5q-11 20 -28 45.5t-40 59.5q-26 40 -43 64.5t-25 38.5q-44 86 -122 78v22z" />
    <glyph glyph-name="uni0426" unicode="&#x426;" 
d="M151 -27v22q103 -18 88 114v341q15 134 -88 115v22h258v-22q-103 19 -87 -115v-341q-20 -132 72 -108h182q72 -20 60 108v341q19 134 -87 115v22h258v-22q-102 19 -87 -115v-341q-8 -131 38 -110h31q26 0 26 -26v-140h-26l-16 63q-20 89 -106 77h-516z" />
    <glyph glyph-name="uni0427" unicode="&#x427;" 
d="M697 109q-15 -132 88 -114v-22h-262v22q111 -18 91 114v163l-95 -33q-20 -4 -36 -6t-28 -2q-118 0 -163 60q-27 30 -27 107v52q15 135 -80 115v22h247v-22q-101 19 -88 -115v-44q-3 -134 157 -134q49 0 113 26v152q15 134 -87 115v22h258v-22q-103 19 -88 -115v-341z" />
    <glyph glyph-name="uni0428" unicode="&#x428;" 
d="M137 450q13 134 -88 115v22h247v-22q-95 20 -80 -115v-341q-10 -127 64 -108h103q72 -20 60 108v341q16 135 -79 115v22h242v-22q-95 20 -79 -115v-341q-12 -128 57 -108h106q72 -20 60 108v341q15 135 -80 115v22h251v-22q-101 19 -88 -115v-341q-13 -132 88 -114v-22
h-872v22q101 -18 88 114v341z" />
    <glyph glyph-name="uni0429" unicode="&#x429;" 
d="M133 450q15 135 -87 115v22h246v-22q-95 20 -80 -115v-341q-10 -127 61 -108h106q72 -20 60 108v341q16 135 -79 115v22h242v-22q-95 20 -79 -115v-341q-12 -128 57 -108h106q72 -20 61 108v341q15 135 -80 115v22h250v-22q-106 16 -91 -115v-341q-6 -130 42 -110h30
q26 0 26 -26v-140h-26l-19 63q-20 93 -102 77h-731v22q102 -18 87 114v341z" />
    <glyph glyph-name="uni042A" unicode="&#x42a;" 
d="M409 521q12 47 -37 37h-58q-81 0 -109 -22q-21 -32 -34 -89l-24 3q0 8 1 17.5t3 23.5q5 90 8 96h428v-22q-113 19 -94 -115v-118h105q217 -5 221 -168q0 -107 -84 -152q-38 -19 -85 -29t-104 -10h-224v22q103 -18 87 114v412zM493 302v-196q-12 -120 91 -105
q144 4 144 156q0 145 -171 145h-64z" />
    <glyph glyph-name="uni042B" unicode="&#x42b;" 
d="M197 450q17 135 -87 115v22h262v-22q-110 20 -92 -115v-118h103q219 -5 223 -168q0 -103 -87 -152q-38 -19 -85 -29t-104 -10h-220v22q103 -18 87 114v341zM773 109q-17 -132 87 -114v-22h-254v22q99 -18 84 114v341q15 134 -84 115v22h254v-22q-104 20 -87 -115v-341z
M280 302v-196q-10 -120 88 -105q139 5 143 156q0 145 -173 145h-58z" />
    <glyph glyph-name="uni042C" unicode="&#x42c;" 
d="M326 450q19 135 -91 115v22h266v-22q-114 19 -96 -115v-118h106q216 -5 220 -168q0 -107 -83 -152q-38 -19 -85 -29t-104 -10h-224v22q54 -9 77.5 19.5t13.5 94.5v341zM405 302v-196q-11 -119 92 -105q135 5 139 156q0 145 -170 145h-61z" />
    <glyph glyph-name="uni042D" unicode="&#x42d;" 
d="M235 425q4 40 7.5 74t7.5 66l68 15q78 22 125 22q300 -6 318 -300q-6 -322 -325 -335q-122 4 -186 45q-45 37 -45 74q5 41 38 41q27 0 37 -25q39 -110 175 -113q201 12 212 287l-315 -11v55l315 -11q-15 248 -224 260q-139 0 -181 -130q-4 -8 -4 -18z" />
    <glyph glyph-name="uni042E" unicode="&#x42e;" 
d="M30 587h258v-22q-103 19 -87 -115v-137h125q42 274 314 289q276 -30 300 -315q-20 -302 -311 -320q-287 13 -307 305v7h-121v-170q-17 -132 87 -114v-22h-258v22q103 -18 87 114v341q16 134 -87 115v22zM618 569q-198 -15 -205 -271q15 -294 231 -309q197 6 201 265
q-7 300 -227 315z" />
    <glyph glyph-name="uni042F" unicode="&#x42f;" 
d="M598 242h-41q-61 4 -98 -62l-10 -19q-5 -11 -13 -26l-46 -82q-38 -86 -121 -80h-68v19q52 7 72 36q6 5 17.5 21.5t27.5 44.5q16 26 27 44.5t19 29.5q37 69 91 86q-148 40 -151 163q9 167 211 170h250v-22q-102 19 -87 -115v-341q-15 -132 87 -114v-22h-258v22
q110 -18 91 114v133zM598 269v267q7 29 -52 25q-152 -6 -156 -148q7 -144 167 -144h41z" />
    <glyph glyph-name="uni0430" unicode="&#x430;" 
d="M674 5l-98 -34q-38 2 -53 49q-85 -49 -114 -49q-105 1 -117 97q0 66 76 96q5 2 14 6t20 10q97 35 121 51v34q0 88 -80 88q-58 0 -79 -81q0 -15 -23 -15q-36 4 -41 30q0 16 34 41q67 52 147 66q49 0 80 -22q37 -31 37 -93v-214q0 -45 24 -49q18 0 45 12zM523 201
q-30 -15 -54 -25.5t-44 -18.5q-54 -25 -50 -71q5 -69 64 -74q36 4 84 37v152z" />
    <glyph glyph-name="uni0431" unicode="&#x431;" 
d="M364 324q57 70 140 70q178 -18 190 -207q-17 -203 -213 -216q-197 6 -208 234q6 155 83 253q17 21 39.5 42t51.5 43l12 11q24 14 49.5 24.5t52.5 20.5q28 8 49 17t34 20q19 10 19 0q-3 -66 -53 -93q-38 -22 -121 -34q-65 -9 -95 -59q-22 -35 -34 -122zM477 361
q-49 -4 -79 -37q-38 -35 -34 -115q4 -205 133 -220q102 6 109 172q-8 188 -129 200z" />
    <glyph glyph-name="uni0432" unicode="&#x432;" 
d="M352 283q12 90 -68 78v23h235q144 0 144 -93q-3 -66 -95 -93q114 -20 118 -108q0 -117 -209 -117h-197v22q88 -9 72 76v212zM425 180v-112q-5 -74 68 -69q105 1 109 91q-5 86 -121 90h-56zM425 205h64q86 4 91 78q-4 69 -99 74q-68 5 -56 -25v-127z" />
    <glyph glyph-name="uni0433" unicode="&#x433;" 
d="M318 384h322q0 -19 12 -119l-23 -4q-10 29 -18 47.5t-13 26.5q-17 18 -64 18h-45q-33 8 -26 -29v-267q-17 -68 71 -62v-22h-212v22q76 -6 64 62v241q12 63 -68 63v23z" />
    <glyph glyph-name="uni0434" unicode="&#x434;" 
d="M364 -27q-53 12 -64 -62l-8 -45h-27v111q0 22 23 22h19q11 -5 19 13q10 14 18 37t16 57q11 51 17.5 102t8.5 105q5 44 -48 44l-31 4v23h387v-23q-75 4 -65 -63v-237q-3 -73 38 -62h15q23 2 19 -22v-111h-23l-11 45q-6 74 -61 62h-242zM504 -1q61 -10 49 58v256
q7 52 -46 40h-34q-55 7 -48 -44q-12 -197 -50 -285q-10 -25 11 -25h118z" />
    <glyph glyph-name="uni0435" unicode="&#x435;" 
d="M652 53q-58 -81 -145 -82q-185 6 -197 190q20 212 205 233q125 -9 141 -133q4 -33 -20 -33q-58 -7 -253 -15q0 -181 159 -193q47 0 98 45zM557 250q24 -5 19 29q-12 74 -83 82q-91 -12 -103 -115z" />
    <glyph glyph-name="uni0436" unicode="&#x436;" 
d="M375 384h209v-23q-73 4 -61 -63v-100q42 3 75 30q27 28 72 96q37 66 91 66q42 0 42 -25q-5 -30 -34 -33h-22q-41 6 -87 -75q-30 -39 -58 -52v-4q43 -11 68 -48q10 -13 25 -35t36 -53q43 -76 88 -70v-22h-54q-67 0 -98 51q-17 26 -32.5 51.5t-28.5 51.5q-26 56 -83 53
v-123q-17 -68 68 -62v-22h-216v22q89 -6 72 62v123q-61 3 -87 -53l-56 -103q-38 -51 -103 -51h-54v22q41 -6 92 70q21 31 36 53t25 35q25 42 64 48v4q-27 13 -57 52q-44 78 -84 75h-22q-34 0 -38 33q0 23 42 25q54 0 95 -66q13 -24 31 -48.5t41 -47.5q33 -27 75 -30v100
q16 70 -72 63v23z" />
    <glyph glyph-name="uni0437" unicode="&#x437;" 
d="M334 257l14 96q77 41 133 41q145 -4 151 -107q0 -26 -26 -52q-11 -14 -72 -34v-3q114 -20 118 -108q-8 -118 -183 -119q-86 0 -135 34q-20 26 -20 44q4 34 38 37q24 0 31 -25q31 -72 98 -72q81 6 87 94q-6 92 -75 97q-15 0 -24 -4q-17 -4 -33 -4h-11q-27 0 -27 22
q0 20 27 26h11q8 0 15 -0.5t15 -2.5q9 -2 16 -3t11 -1q56 5 56 70q-3 77 -80 82q-84 0 -109 -111z" />
    <glyph glyph-name="uni0438" unicode="&#x438;" 
d="M656 57q-17 -68 75 -62v-22h-208v22q68 -6 57 62v208l-178 -204q-11 -7 -16 -27v-22q0 -13 19 -13l23 -4v-22h-193v22q92 -6 75 62v241q16 70 -75 63v23h212v-23q-72 5 -61 -63v-208h4l182 208q8 11 8 26v15q5 14 -19 18l-19 4v23h189v-23q-87 4 -75 -63v-241z" />
    <glyph glyph-name="uni0439" unicode="&#x439;" 
d="M656 57q-17 -68 75 -62v-22h-208v22q68 -6 57 62v208l-178 -204q-11 -7 -16 -27v-22q0 -13 19 -13l23 -4v-22h-193v22q92 -6 75 62v241q16 70 -75 63v23h212v-23q-72 5 -61 -63v-208h4l182 208q8 11 8 26v15q5 14 -19 18l-19 4v23h189v-23q-87 4 -75 -63v-241zM481 458
q53 5 53 26q-3 3 -3 7q-4 7 -4 12q-5 33 30 33q30 -4 34 -37q-7 -64 -110 -68q-99 5 -106 68q4 32 38 37q30 -5 26 -33q0 -5 -3 -12q0 -4 -4 -7q0 -22 49 -26z" />
    <glyph glyph-name="uni043A" unicode="&#x43a;" 
d="M262 384h211v-23q-78 4 -68 -63v-100q46 3 76 30q23 21 41.5 44.5t34.5 51.5q37 66 91 66q42 0 42 -25q-5 -33 -38 -33h-20q-34 0 -79 -63l-7 -8q-20 -37 -57 -56v-4q46 -14 68 -48l61 -88q42 -76 90 -70v-22h-56q-67 0 -103 51q-23 42 -36.5 67.5t-19.5 39.5
q-28 52 -88 49v-123q-11 -68 72 -62v-22h-215v22q81 -6 72 62v241q9 67 -72 63v23z" />
    <glyph glyph-name="uni043B" unicode="&#x43b;" 
d="M341 384h367v-23q-83 5 -68 -63v-241q-15 -68 68 -62v-22h-215v22q87 -6 72 62v256q3 45 -38 40h-46q-45 8 -38 -40q-10 -234 -91 -324q-23 -18 -45 -18q-2 0 -7.5 0.5t-15.5 1.5h-26v16q61 28 106 105q0 5 4 12q37 99 37 200q12 55 -64 55v23z" />
    <glyph glyph-name="uni043C" unicode="&#x43c;" 
d="M640 384h137v-23q-84 8 -69 -70v-226q-10 -79 69 -70v-22h-201v22q76 -9 60 70l4 251h-4l-167 -335h-14l-148 325h-3l-8 -153q-4 -103 0 -122q0 -39 68 -36v-22h-175v22q56 0 61 36q7 15 12 78v34l11 133q18 100 -61 85v23h129l140 -305z" />
    <glyph glyph-name="uni043D" unicode="&#x43d;" 
d="M386 205h198v93q10 67 -69 63v23h209v-23q-76 4 -64 -63v-241q-12 -68 64 -62v-22h-205v22q76 -6 65 62v115h-198v-115q-11 -68 65 -62v-22h-205v22q81 -6 64 62v241q12 70 -67 63v23h204v-23q-72 5 -61 -63v-93z" />
    <glyph glyph-name="uni043E" unicode="&#x43e;" 
d="M497 -11q109 3 109 172q-8 192 -133 204q-105 -12 -113 -164q8 -203 137 -212zM485 -29q-198 6 -216 193q11 205 216 230q197 -14 212 -211q-11 -198 -212 -212z" />
    <glyph glyph-name="uni043F" unicode="&#x43f;" 
d="M239 384h489v-23q-84 4 -72 -63v-241q-12 -68 72 -62v-22h-213v22q80 -6 65 62v249q8 55 -42 47h-106q-53 8 -46 -47v-249q-11 -68 61 -62v-22h-204v22q79 -6 67 62v241q12 68 -71 63v23z" />
    <glyph glyph-name="uni0440" unicode="&#x440;" 
d="M402 335q28 15 55.5 28t53.5 25q16 6 35 6q151 -9 166 -174q-11 -212 -249 -249q-20 1 -35 3.5t-26 6.5v-126q-20 -72 87 -67v-23h-231v23q85 -5 68 67v428q20 71 -68 60v18q38 9 73.5 19.5t70.5 21.5v-67zM402 42q41 -41 99 -41q125 18 131 167q-3 171 -139 175
q-42 0 -91 -37v-264z" />
    <glyph glyph-name="uni0441" unicode="&#x441;" 
d="M663 61q-69 -89 -156 -90q-190 6 -203 190q3 105 90 174q69 54 155 59q59 0 87 -25q12 -8 12 -19q-4 -37 -34 -44q-5 0 -12 7q-43 40 -101 40q-115 -13 -118 -152q3 -160 151 -181q47 -4 114 55z" />
    <glyph glyph-name="uni0442" unicode="&#x442;" 
d="M523 353v-296q-17 -68 68 -62v-22h-216v22q84 -6 72 62v296h-38q-49 0 -68 -21q-15 -20 -27 -71h-26l8 123h374l8 -119l-22 -4q-12 51 -30 71q-20 21 -65 21h-38z" />
    <glyph glyph-name="uni0443" unicode="&#x443;" 
d="M455 380v-23h-30q-27 -4 -8 -44l94 -227q5 13 18.5 47.5t35.5 94.5q14 37 22 58.5t11 29.5q17 42 -18 37l-34 4v23h170v-23q-56 5 -80 -62q-11 -20 -31 -65.5t-52 -120.5q-10 -26 -17 -45t-13 -33q-35 -71 -62.5 -121t-47.5 -81q-30 -48 -65 -48q-38 6 -44 44q3 21 26 26
q64 15 109 90q2 7 6.5 14t9.5 16q11 17 11 18q0 11 -3 23l-119 283q-13 69 -86 62v23h197z" />
    <glyph glyph-name="uni0444" unicode="&#x444;" 
d="M523 643v-274q37 25 83 25q171 -14 186 -207q-10 -198 -190 -214q-57 0 -79 12v-119q-16 -70 72 -64v-21h-223v21q91 -6 75 64v123q-31 -16 -83 -16q-183 20 -193 199q10 213 201 222q50 0 75 -25v163q16 69 -75 63v15q14 2 31.5 6t43.5 12zM447 328q-25 37 -75 37
q-103 -4 -110 -164q0 -202 124 -206q23 0 61 29v304zM523 24q32 -29 72 -29q110 5 110 169q0 201 -121 201q-39 0 -61 -37v-304z" />
    <glyph glyph-name="uni0445" unicode="&#x445;" 
d="M265 384h198v-23l-24 -4q-25 -4 -11 -33l65 -93l22 34q10 17 17.5 29.5t13.5 21.5q16 25 11 34q0 7 -19 7l-19 4v23h178v-23q-84 5 -117 -59l-8 -7l-65 -90l99 -148q27 -65 106 -62v-22h-211v22l22 4q18 1 23 10q3 5 -8 22l-72 112q-8 -10 -19 -26.5t-26 -41.5l-23 -33
q-34 -43 4 -43l30 -4v-22h-178v22q75 -3 114 66q21 22 40 48.5t39 58.5l-83 130q-32 67 -99 63v23z" />
    <glyph glyph-name="uni0446" unicode="&#x446;" 
d="M576 298q10 67 -65 63v23h205v-23q-76 4 -64 -63v-241q-5 -68 34 -62h22q20 5 20 -18v-119h-27l-4 38q-15 85 -87 77h-371v22q83 -6 68 62v241q10 70 -68 63v23h200v-23q-64 5 -53 -63v-252q-8 -55 42 -47h106q50 -8 42 47v252z" />
    <glyph glyph-name="uni0447" unicode="&#x447;" 
d="M640 57q-14 -68 72 -62v-22h-219v22q87 -6 72 62v100q-16 0 -27 -4q-23 -4 -40.5 -5.5t-31.5 -1.5q-82 0 -114 26q-30 33 -30 85v41q12 67 -64 63v23h201v-23q-73 4 -61 -63v-48q0 -78 83 -78q40 0 84 11v115q10 67 -58 63v23h205v-23q-87 7 -72 -63v-241z" />
    <glyph glyph-name="uni0448" unicode="&#x448;" 
d="M178 298q15 71 -68 63v23h208v-23q-76 7 -64 -63v-252q-7 -54 46 -45h98q61 -9 49 45v252q12 71 -68 63v23h208v-23q-76 7 -64 -63v-252q-8 -54 45 -45h99q52 -9 45 45v252q17 71 -64 63v23h209v-23q-85 8 -68 -63v-241q-17 -68 71 -62v-22h-750v22q82 -6 68 62v241z" />
    <glyph glyph-name="uni0449" unicode="&#x449;" 
d="M178 298q10 70 -72 63v23h212v-23q-76 7 -64 -63v-252q-7 -54 46 -45h98q52 -9 45 45v252q16 70 -64 63v23h205v-23q-77 8 -65 -63v-252q-12 -54 49 -45h99q52 -9 45 45v252q17 71 -64 63v23h205v-23q-76 7 -64 -63v-241q-5 -71 30 -62h22q24 5 19 -18v-119h-23l-11 38
q-6 89 -79 77h-641v22q83 -6 72 62v241z" />
    <glyph glyph-name="uni044A" unicode="&#x44a;" 
d="M485 217h80q174 0 174 -115q-5 -129 -201 -129h-197v22q84 -6 72 62v256q12 52 -38 40h-34q-42 0 -57 -18q-20 -24 -30 -93l-27 4q4 33 7 67t5 71h314v-23q-80 5 -68 -63v-81zM485 190v-156q-5 -40 53 -35q114 0 114 99q0 92 -125 92h-42z" />
    <glyph glyph-name="uni044B" unicode="&#x44b;" 
d="M318 217h76q174 0 174 -115q-3 -129 -200 -129h-197v22q87 -6 72 62v241q10 70 -68 63v23h211v-23q-80 8 -68 -63v-81zM652 298q12 63 -72 63v23h215v-23q-83 0 -71 -63v-241q-12 -68 71 -62v-22h-215v22q84 -6 72 62v241zM318 190v-156q-5 -40 50 -35q113 0 113 99
q0 92 -125 92h-38z" />
    <glyph glyph-name="uni044C" unicode="&#x44c;" 
d="M428 217h79q175 0 175 -115q-5 -129 -201 -129h-197v22q89 -6 72 62v241q12 71 -68 63v23h209v-23q-80 4 -69 -63v-81zM428 190v-156q-3 -40 53 -35q117 0 117 99q0 92 -129 92h-41z" />
    <glyph glyph-name="uni044D" unicode="&#x44d;" 
d="M307 257l19 104q60 33 140 33q196 -6 204 -207q-14 -207 -219 -216q-97 0 -137 34q-18 21 -18 44q4 34 38 37q23 0 30 -25q31 -72 99 -72q117 3 121 187l-182 -12l3 49l179 -12q-12 159 -129 164q-88 0 -125 -111z" />
    <glyph glyph-name="uni044E" unicode="&#x44e;" 
d="M155 384h213v-23q-80 8 -68 -63v-104h90q27 179 212 200q196 -13 213 -211q-12 -199 -213 -212q-197 6 -216 193h-86v-107q-17 -68 68 -62v-22h-209v22q85 -6 68 62v241q16 70 -72 63v23zM614 -11q110 3 110 172q-7 192 -133 204q-110 -12 -118 -164q8 -200 141 -212z
" />
    <glyph glyph-name="uni044F" unicode="&#x44f;" 
d="M561 153h-34q-50 0 -64 -26q-19 -22 -38 -74q-4 -8 -7 -13t-5 -9q-18 -58 -75 -58h-73v22q33 0 53 17q20 20 42 71q26 71 68 81q-94 25 -94 105q5 111 147 115h216v-23q-70 7 -61 -63v-241q-9 -68 65 -62v-22h-204v22q75 -6 64 62v96zM561 180v148q8 36 -46 29
q-98 -5 -102 -88q0 -44 42 -71q19 -18 72 -18h34z" />
    <glyph glyph-name="uni0451" unicode="&#x451;" 
d="M652 56q-57 -80 -145 -83q-185 8 -197 190q19 213 205 234q125 -11 141 -133q4 -33 -20 -33q-29 -4 -92.5 -8t-160.5 -7q0 -183 159 -193q45 0 98 44zM557 253q24 -5 19 29q-12 74 -83 82q-91 -12 -103 -115zM413 453q-41 4 -45 45q5 37 45 41q38 -5 42 -41
q-5 -41 -42 -45zM580 453q-38 4 -42 45q4 36 42 41q38 -5 42 -41q0 -45 -42 -45z" />
    <glyph glyph-name="uni1E3F" unicode="&#x1e3f;" 
d="M258 466v-88q12 14 28.5 32.5t53.5 35.5q40 16 74 15q38 0 67 -20q29 -18 36 -31l21 -35l27 35q15 17 47.5 34t73.5 18q43 0 81 -23t48.5 -53t11.5 -71l1 -265q0 -16 4 -25.5t11 -15t17.5 -8t23.5 -3.5h15q7 0 11 -4t4 -8.5t-4 -8.5t-11 -4h-188q-6 0 -10 4t-4.5 8.5
t2.5 8.5t11 4h16q26 0 34.5 11.5t8.5 37.5v271q0 15 -4.5 35t-15.5 38t-29 30.5t-45 12.5q-26 1 -49.5 -10t-41.5 -28t-29 -37t-11 -36v-268q0 -32 14 -44.5t38 -12.5h15q6 0 9.5 -4t3.5 -8.5t-3.5 -8.5t-9.5 -4h-187q-6 0 -9.5 4t-3.5 8.5t3.5 8.5t9.5 4h13q15 0 27 6
t16.5 14.5t4.5 36.5v269q0 22 -6 42t-18.5 35t-31.5 23.5t-45 7.5q-34 -3 -59 -21q-24 -16 -47 -46q-20 -29 -20 -45v-257q0 -35 10 -50t37 -15h23q7 0 10.5 -4t3.5 -8.5t-3.5 -8.5t-10.5 -4h-187q-7 0 -10.5 4t-3.5 8.5t3.5 8.5t10.5 4h15q12 2 20.5 4t14.5 8t8.5 18
t1.5 33v280q0 38 -13 50t-39 12h-11q-17 0 -15 12q2 14 16 14l16 1q10 0 22 2.5t24 6t21.5 7t14.5 6.5zM534 529h-107l150 140l7 7q8 8 17 5.5t1 -17.5z" />
    <glyph glyph-name="uni2010" unicode="&#x2010;" 
d="M352 319q-21 0 -21 30t21 30h296q21 0 21 -30t-21 -30h-296z" />
    <glyph glyph-name="endash" unicode="&#x2013;" horiz-adv-x="500" 
d="M79 432h339v-74h-339v74z" />
    <glyph glyph-name="emdash" unicode="&#x2014;" 
d="M179 432h642v-74h-642v74z" />
    <glyph glyph-name="uni2015" unicode="&#x2015;" 
d="M48 319q-21 0 -21 30t21 30h904q21 0 21 -30t-21 -30h-904z" />
    <glyph glyph-name="uni2016" unicode="&#x2016;" 
d="M376 727h70v-735h-70v735zM546 727h70v-735h-70v735z" />
    <glyph glyph-name="quoteleft" unicode="&#x2018;" 
d="M785 536q-20 0 -36.5 10t-24.5 28q-8 15 -8 34t9 40t27.5 42.5t48.5 41.5l27 -40q-26 -17 -40 -33.5t-19 -30.5q5 3 10 5.5t11 3.5q18 3 32 -9q17 -13 19 -35q2 -17 -6.5 -31t-23.5 -21v-1h-3l-4 -2q-1 -1 -4 -1h-4q-3 0 -5.5 -0.5t-5.5 -0.5z" />
    <glyph glyph-name="quoteright" unicode="&#x2019;" 
d="M300 681q7 -15 7 -34t-9 -40t-27.5 -42.5t-48.5 -41.5l-26 40q26 17 39.5 34t19.5 31q-10 -9 -22 -10h-6q-16 0 -26 9q-17 13 -19 36q-2 17 6.5 30.5t23.5 20.5v1h4q2 2 4 2l-1 1h4q3 0 4 1v-1q24 3 43.5 -7t29.5 -30z" />
    <glyph glyph-name="quotedblleft" unicode="&#x201c;" 
d="M785 536q-20 0 -36.5 10t-24.5 28q-8 15 -8 34t9 40t27.5 42.5t48.5 41.5l27 -40q-26 -17 -40 -33.5t-19 -30.5q5 3 10 5.5t11 3.5q18 3 32 -9q17 -13 19 -35q2 -17 -6.5 -31t-23.5 -21v-1h-3l-4 -2q-1 -1 -4 -1h-4q-3 0 -5.5 -0.5t-5.5 -0.5zM606 536q-20 0 -36.5 10
t-24.5 28q-8 15 -8 34t9 40t27.5 42.5t48.5 41.5l27 -40q-26 -17 -40 -33.5t-19 -30.5q5 3 10 5.5t11 3.5q18 3 32 -9q17 -13 19 -35q2 -17 -6.5 -31t-23.5 -21v-1h-3l-4 -2q-1 -1 -4 -1h-4q-3 0 -5.5 -0.5t-5.5 -0.5z" />
    <glyph glyph-name="quotedblright" unicode="&#x201d;" 
d="M146 563q26 17 39.5 34t19.5 31q-10 -9 -22 -10h-6q-14 0 -26 9q-17 13 -19 36q-2 17 6.5 30.5t23.5 20.5v1h3q4 2 5 2h-1q2 1 4 1q3 0 4 1v-1q24 3 43.5 -7t29.5 -30q7 -15 7 -34t-9 -40t-27.5 -42.5t-48.5 -41.5zM325 563q26 17 39.5 34t19.5 31q-12 -9 -22 -10h-6
q-16 0 -26 9q-17 13 -19 35q-2 17 6.5 31t23.5 21v1h3q4 2 5 2l-1 1h4q3 0 4 1v-1q24 3 43.5 -7t29.5 -30q7 -15 7 -34t-9 -40t-27.5 -42.5t-48.5 -41.5z" />
    <glyph glyph-name="twodotenleader" unicode="&#x2025;" 
d="M316 452h101v-95h-101v95zM558 452h102v-95h-102v95z" />
    <glyph glyph-name="ellipsis" unicode="&#x2026;" 
d="M225 472h98v-95h-98v95zM451 472h99v-95h-99v95zM686 472h99v-95h-99v95z" />
    <glyph glyph-name="perthousand" unicode="&#x2030;" 
d="M113 75l390 629l57 -36l-389 -629zM180 367q-26 0 -49.5 11.5t-40.5 31.5t-27 46.5t-10 56.5q0 29 10 55t27.5 46t40.5 32t49 13q2 1 5 0q25 -1 47.5 -13t39.5 -31.5t26.5 -45.5t9.5 -56t-10 -56.5t-27.5 -46.5t-40.5 -31.5t-50 -11.5zM183 592q-26 -1 -44.5 -24
t-18.5 -55t17.5 -55.5t42.5 -23.5q26 0 43.5 23.5t17.5 55.5t-17 55t-41 24zM495 339q25 -1 47.5 -13t39.5 -31.5t26.5 -45.5t9.5 -56t-10 -56.5t-27.5 -46.5t-40.5 -31.5t-50 -11.5q-26 0 -49.5 11.5t-41 31.5t-27.5 46.5t-10 56.5q0 29 10.5 55t28 46t40.5 32t49 13h5z
M551 193q0 32 -17 55t-41 24q-26 -1 -45 -24t-19 -55t18 -55.5t43 -23.5q26 0 43.5 23.5t17.5 55.5zM805 339q25 -1 47.5 -13t39.5 -31.5t26.5 -45.5t9.5 -56t-10 -56.5t-27.5 -46.5t-40.5 -31.5t-50 -11.5q-26 0 -49.5 11.5t-40.5 31.5t-27 46.5t-10 56.5q0 29 10 55
t27.5 46t40.5 32t49 13h5zM861 193q0 32 -17 55t-41 24q-26 -1 -44.5 -24t-18.5 -55t17.5 -55.5t42.5 -23.5q26 0 43.5 23.5t17.5 55.5z" />
    <glyph glyph-name="minute" unicode="&#x2032;" horiz-adv-x="350" 
d="M161 688l71 -20l-60 -208l-72 20z" />
    <glyph glyph-name="second" unicode="&#x2033;" horiz-adv-x="450" 
d="M134 688l69 -20l-61 -209l-69 21zM233 479l61 208l69 -20l-61 -208z" />
    <glyph glyph-name="uni2035" unicode="&#x2035;" horiz-adv-x="350" 
d="M161 459l-60 209l71 20l60 -208z" />
    <glyph glyph-name="uni203B" unicode="&#x203b;" 
d="M457 677h101v-100h-101v100zM733 415h102v-100h-102v100zM458 169h101v-100h-101v100zM180 415h101v-100h-101v100zM802 118l-49 -52l-248 237l-236 -237l-51 50l235 236l-231 221l50 52l232 -222l220 221l51 -51l-219 -219z" />
    <glyph glyph-name="Euro" unicode="&#x20ac;" horiz-adv-x="650" 
d="M361 65q-78 11 -130.5 61.5t-73.5 133.5h-85v72h73q-1 9 -1.5 18.5t-0.5 18.5q0 11 0.5 21.5t1.5 21.5h-73v72h86q12 43 33 78t49 60t63 39.5t74 15.5h2h1h1q60 0 106.5 -31.5t71.5 -88.5l-67 -29q-11 25 -26 40t-30.5 23t-30 10.5t-24.5 2.5q-50 0 -88 -32.5t-58 -87.5
h197v-72h-214q-1 -11 -1.5 -21t-0.5 -21q0 -9 0.5 -18.5t1.5 -19.5h214v-72h-200q14 -44 46.5 -79t92.5 -44q17 -2 37.5 3t39.5 18.5t34.5 35t22.5 51.5l71 -15q-9 -40 -29 -71t-46.5 -52t-57.5 -32t-61 -11h-10.5t-10.5 1z" />
    <glyph glyph-name="uni2103" unicode="&#x2103;" 
d="M368 570q0 -26 -10 -49t-27.5 -40t-41 -27t-50.5 -10t-50.5 10t-41.5 27t-28 40t-10 49q0 25 10 48t28 40t41.5 27t50.5 10h1q27 0 50 -10t40.5 -27t27.5 -40t10 -48zM174 570q0 -26 19 -43.5t46 -17.5q26 0 45 17.5t19 43.5q0 25 -18.5 42.5t-44.5 17.5q-27 0 -46.5 -18
t-19.5 -42zM685 137q63 -3 107 25.5t73 90.5l66 -31q-76 -159 -236 -159q-3 0 -6 0.5t-7 0.5q-56 2 -103 25.5t-80.5 64t-53 95.5t-19.5 120q0 64 20 119t56 96.5t84.5 65.5t104.5 26h3h1q50 0 88 -14t65.5 -36.5t45.5 -50t30 -54.5l-67 -30q-25 58 -64.5 85t-97.5 27
q-42 0 -78 -18.5t-62 -50t-41 -74t-15 -90.5q0 -50 14 -92t39 -73t58.5 -49t74.5 -19z" />
    <glyph glyph-name="uni2105" unicode="&#x2105;" 
d="M309 40l-59 42l440 623l60 -43zM738 376q28 -1 53 -13.5t43.5 -34t29 -49.5t10.5 -60t-11 -60.5t-30 -49.5t-44.5 -33.5t-54.5 -12.5t-54.5 12.5t-44.5 33.5t-30 49.5t-11 60.5q0 31 11 59.5t30.5 50t44.5 34t54 13.5h4zM734 131q29 0 50 26t21 62t-20 61.5t-49 26.5
q-15 0 -28.5 -7.5t-23 -19.5t-15.5 -27.5t-6 -33.5q0 -36 21 -62t50 -26zM280 386q-33 0 -61.5 13t-49.5 34.5t-33.5 51t-12.5 62.5q0 34 11.5 63t32 51t47.5 34.5t59 12.5h1h2q16 0 33.5 -5t35 -14.5t33.5 -25t28 -37.5l-60 -32q-14 25 -34 35t-37 11q-36 -1 -60 -27
t-24 -66q0 -19 7 -36t19 -29.5t28.5 -20t34.5 -7.5q17 0 38 12.5t32 35.5l61 -29q-18 -38 -54.5 -62.5t-76.5 -24.5z" />
    <glyph glyph-name="uni2109" unicode="&#x2109;" 
d="M239 444q-27 0 -50.5 10t-41.5 27t-28 40t-10 49q0 25 10 48t28 40t41.5 27t50.5 10v1h1v-1q27 0 50 -10t40.5 -27t27.5 -40t10 -48q0 -26 -10 -49t-27.5 -40t-41 -27t-50.5 -10zM240 631q-27 -1 -46.5 -19t-19.5 -42q0 -26 19 -43.5t46 -17.5q26 0 45 17.5t19 43.5
q0 25 -18.5 42.5t-44.5 18.5zM513 601v-188h315v-70h-315v-297h-70v555v70h411v-70h-341z" />
    <glyph glyph-name="uni2116" unicode="&#x2116;" 
d="M918 182v-74h-336v74h336zM744 612q37 -1 69.5 -16t56.5 -40.5t38 -60t14 -73.5t-14 -73.5t-38.5 -60.5t-57.5 -41t-70 -15q-38 0 -70.5 15t-57 41t-38.5 60.5t-14 73.5t14 73.5t38.5 60t57 40.5t70.5 16h2zM742 306q22 0 41 9t33.5 25t23 37t8.5 45t-8.5 45t-22.5 36.5
t-33 25t-41 9.5t-41.5 -9.5t-34 -25t-23 -36.5t-8.5 -45t8.5 -45t22.5 -37t33.5 -25t41.5 -9zM176 60h-74v614h58l13 -18l254 -430v453h74v-623h-58l-12 19l-255 429v-444z" />
    <glyph glyph-name="uni2121" unicode="&#x2121;" 
d="M660 478q-5 -21 37 -17h38q15 -4 50 43h9l-21 -58h-179v11q33 0 32 21v143q1 16 -32 13v16h96v-16q-34 3 -30 -13v-143zM447 634v-74h67q13 -4 17 29h11v-74h-11q-5 29 -17 30h-67v-67q-6 -21 22 -17h53q25 -4 42 41l12 -4l-16 -52h-175v11q31 -4 28 21v145q3 14 -28 11
v16h167l4 -49h-8q-14 34 -30 33h-71zM275 475q0 -18 34 -18v-11h-97v11q32 3 31 18v146q1 7 -13 9h-25q-24 0 -30 -24h-8l4 44h184l4 -44h-12q-7 27 -17 28h-34q-25 0 -21 -13v-146z" />
    <glyph glyph-name="uni2160" unicode="&#x2160;" 
d="M454 687h74v-635h-74v635z" />
    <glyph glyph-name="uni2161" unicode="&#x2161;" 
d="M347 687h74v-635h-74v635zM542 687h74v-635h-74v635z" />
    <glyph glyph-name="uni2162" unicode="&#x2162;" 
d="M273 687h74v-635h-74v635zM456 687h74v-635h-74v635zM641 687h74v-635h-74v635z" />
    <glyph glyph-name="uni2163" unicode="&#x2163;" 
d="M223 687h74v-635h-74v635zM640 193l182 489l68 -25l-224 -600h-52l-226 600l67 25z" />
    <glyph glyph-name="uni2164" unicode="&#x2164;" 
d="M536 57h-52l-226 600l67 25l185 -489l182 489l68 -25z" />
    <glyph glyph-name="uni2165" unicode="&#x2165;" 
d="M749 687h74v-635h-74v635zM380 57l-223 600l67 25l183 -489l184 489l67 -25l-226 -600h-52z" />
    <glyph glyph-name="uni2166" unicode="&#x2166;" 
d="M605 687h74v-635h-74v635zM767 687h74v-635h-74v635zM316 211l148 470l69 -22l-189 -602h-55l-187 602l69 21z" />
    <glyph glyph-name="uni2167" unicode="&#x2167;" 
d="M518 687h74v-635h-74v635zM670 687h74v-635h-74v635zM820 687h74v-635h-74v635zM294 57h-55l-9 27l-156 576l70 19l122 -451l123 451l69 -19z" />
    <glyph glyph-name="uni2168" unicode="&#x2168;" 
d="M209 687h74v-635h-74v635zM878 640l-203 -275l203 -275l-60 -43l-189 256l-188 -256l-60 43l203 275l-203 275l60 44l188 -256l189 256z" />
    <glyph glyph-name="uni2169" unicode="&#x2169;" 
d="M726 686l58 -47l-218 -274l218 -273l-58 -47l-208 261l-208 -261l-58 47l219 273l-219 274l58 47l208 -261z" />
    <glyph glyph-name="uni216A" unicode="&#x216a;" 
d="M721 687h74v-635h-74v635zM186 684l188 -256l189 256l59 -44l-202 -275l202 -275l-59 -43l-189 256l-188 -256l-60 43l202 275l-202 275z" />
    <glyph glyph-name="uni216B" unicode="&#x216b;" 
d="M581 687h74v-635h-74v635zM751 687h74v-635h-74v635zM468 681l64 -38l-167 -278l167 -277l-64 -39l-146 245l-147 -245l-64 39l167 277l-167 278l64 38l147 -244z" />
    <glyph glyph-name="uni2170" unicode="&#x2170;" 
d="M439 487h74v-431h-74v431zM439 677h74v-91h-74v91z" />
    <glyph glyph-name="uni2171" unicode="&#x2171;" 
d="M379 487h74v-431h-74v431zM379 677h74v-91h-74v91zM539 487h74v-431h-74v431zM539 677h74v-91h-74v91z" />
    <glyph glyph-name="uni2172" unicode="&#x2172;" 
d="M275 487h74v-431h-74v431zM275 677h74v-91h-74v91zM451 487h74v-431h-74v431zM451 677h74v-91h-74v91zM638 487h74v-431h-74v431zM638 677h74v-91h-74v91z" />
    <glyph glyph-name="uni2173" unicode="&#x2173;" 
d="M269 487h74v-431h-74v431zM269 677h74v-91h-74v91zM634 179l138 298l67 -31l-180 -390h-47l-12 22l-172 368l67 31z" />
    <glyph glyph-name="uni2174" unicode="&#x2174;" 
d="M484 179l138 298l67 -31l-180 -390h-47l-12 22l-172 368l67 31z" />
    <glyph glyph-name="uni2175" unicode="&#x2175;" 
d="M699 487h74v-431h-74v431zM699 677h74v-91h-74v91zM408 179l139 298l67 -31l-182 -390h-47l-12 22l-170 368l67 31z" />
    <glyph glyph-name="uni2176" unicode="&#x2176;" 
d="M559 487h74v-431h-74v431zM559 677h74v-91h-74v91zM729 487h74v-431h-74v431zM729 677h74v-91h-74v91zM299 183l130 293l68 -30l-173 -390h-48l-12 22l-162 369l68 29z" />
    <glyph glyph-name="uni2177" unicode="&#x2177;" 
d="M479 487h74v-431h-74v431zM479 677h74v-91h-74v91zM629 487h74v-431h-74v431zM629 677h74v-91h-74v91zM780 487h74v-431h-74v431zM780 677h74v-91h-74v91zM239 188l120 288l68 -29l-163 -391h-49l-11 23l-152 368l68 29z" />
    <glyph glyph-name="uni2178" unicode="&#x2178;" 
d="M249 487h74v-431h-74v431zM249 677h74v-91h-74v91zM760 493l56 -48l-148 -176l148 -177l-56 -47l-141 166l-140 -166l-56 47l148 177l-148 176l56 48l140 -167z" />
    <glyph glyph-name="uni2179" unicode="&#x2179;" 
d="M629 523l58 -48l-149 -176l149 -176l-58 -49l-140 166l-139 -166l-58 49l148 176l-148 176l58 48l139 -166z" />
    <glyph glyph-name="arrowleft" unicode="&#x2190;" 
d="M966 366v-30h-791q75 -89 71 -171q-102 133 -246 186q154 58 246 186q4 -100 -71 -171h791z" />
    <glyph glyph-name="arrowup" unicode="&#x2191;" 
d="M501 -112h-32v764q-92 -75 -173 -71q132 96 185 242q62 -146 189 -242q-102 4 -169 71v-764z" />
    <glyph glyph-name="arrowright" unicode="&#x2192;" 
d="M0 366h792q-68 67 -72 171q94 -128 246 -186q-143 -56 -246 -186q-8 70 72 171h-792v30z" />
    <glyph glyph-name="arrowdown" unicode="&#x2193;" 
d="M501 823v-780q71 74 169 74q-132 -96 -189 -229q-50 134 -185 229q78 7 173 -74v780h32z" />
    <glyph glyph-name="uni2196" unicode="&#x2196;" 
d="M212 546l-62 -278l-150 505l514 -149l-271 -70l714 -692l-17 -19z" />
    <glyph glyph-name="uni2197" unicode="&#x2197;" 
d="M806 278l-67 258l-720 -693l-19 19l715 692l-273 70l515 149z" />
    <glyph glyph-name="uni2198" unicode="&#x2198;" 
d="M747 61l59 278l151 -496l-515 140l273 66l-715 704l19 20z" />
    <glyph glyph-name="uni2199" unicode="&#x2199;" 
d="M150 328l72 -257l718 702l17 -20l-714 -704l271 -66l-514 -140z" />
    <glyph glyph-name="element" unicode="&#x2208;" 
d="M781 26v-52h-349q-243 8 -247 290q4 282 247 286h349v-52h-353q-178 -12 -178 -205h515v-55h-515q-5 -212 175 -212h356z" />
    <glyph glyph-name="product" unicode="&#x220f;" 
d="M769 17q-4 -66 91 -62v-23h-295v23q95 -4 91 62v660h-346v-660q-3 -67 95 -62v-23h-299v23q99 -4 95 62v594q0 93 -91 97v18h747v-18q-88 -4 -88 -97v-594z" />
    <glyph glyph-name="summation" unicode="&#x2211;" 
d="M739 722l4 -152h-19q0 4 -4 11q-12 103 -144 96h-254l262 -337l-284 -323h363q91 -7 129 107h23q-35 -107 -42 -199q-11 0 -26 4q-32 7 -50 7h-485q-5 0 -14 -1t-20 -3h-27l342 367l-338 427h54q17 -2 29 -3t20 -1h481z" />
    <glyph glyph-name="uni2215" unicode="&#x2215;" 
d="M268 -143h-40l473 700h40z" />
    <glyph glyph-name="radical" unicode="&#x221a;" 
d="M0 472l178 92l291 -538l482 806h15v-37l-511 -864h-23l-311 567l-109 -59z" />
    <glyph glyph-name="proportional" unicode="&#x221d;" 
d="M178 292q8 172 156 179q102 -4 159 -134q60 128 185 123q107 0 107 -26q0 -11 -16 -15h-22q-15 4 -31 4q-110 0 -185 -141q-4 -11 -8 -15q64 -97 185 -97q35 0 61 8q20 0 20 -11q-20 -41 -107 -48q-125 -5 -171 126q-65 -137 -173 -130q-153 5 -160 177zM209 286
q3 -111 113 -116q79 0 144 126l11 19q-50 96 -139 96q-121 -6 -129 -125z" />
    <glyph glyph-name="infinity" unicode="&#x221e;" 
d="M483 311q13 19 23.5 33t20.5 25.5t20.5 21t22.5 18.5q67 54 140 54q40 0 73 -14t57 -38.5t37 -59t13 -75.5t-13 -75t-37 -58.5t-57 -38.5t-73 -14q-73 0 -140 52q-12 10 -22.5 19.5t-20.5 21t-20.5 25t-23.5 32.5q-14 -18 -25 -32t-21 -25.5t-20.5 -21t-22.5 -19.5
q-64 -52 -139 -52q-36 0 -69.5 13.5t-57.5 36.5q-52 52 -52 136q0 85 52 136q24 24 57.5 37.5t69.5 13.5q70 0 138 -53q23 -17 42.5 -39t47.5 -60zM453 276q-27 39 -45.5 60.5t-42.5 40.5q-58 43 -109 43q-28 0 -52.5 -11.5t-43 -31t-29 -45.5t-10.5 -56q0 -29 10.5 -55
t29 -45.5t43 -31t52.5 -11.5q53 0 109 44q16 13 30.5 27t27.5 31q14 19 22.5 29.5t7.5 11.5zM513 276q25 -39 44.5 -60t43.5 -39q59 -44 109 -44q28 0 53 11.5t43 31t28.5 45.5t10.5 55q0 30 -10.5 56t-28.5 45.5t-43 31t-53 11.5q-54 0 -109 -43q-16 -13 -30.5 -28
t-27.5 -31q-13 -19 -22 -30t-8 -12z" />
    <glyph glyph-name="orthogonal" unicode="&#x221f;" 
d="M165 -68v588h29v-560h610v-28h-639z" />
    <glyph glyph-name="angle" unicode="&#x2220;" 
d="M151 -68l463 597l30 -26l-409 -531h580v-40h-664z" />
    <glyph glyph-name="uni2223" unicode="&#x2223;" 
d="M469 738h32v-940h-32v940z" />
    <glyph glyph-name="uni2225" unicode="&#x2225;" 
d="M262 11l180 735l68 -17l-180 -735zM549 -6l-68 16l180 735l68 -17z" />
    <glyph glyph-name="logicaland" unicode="&#x2227;" 
d="M758 -32h-50l-211 681l-235 -675h-50l254 735h61z" />
    <glyph glyph-name="logicalor" unicode="&#x2228;" 
d="M262 701l219 -694l231 694h46l-243 -744h-60l-243 744h50z" />
    <glyph glyph-name="intersection" unicode="&#x2229;" 
d="M724 -11v341q-5 214 -243 219q-235 -7 -238 -219v-341h-58v341q12 263 296 274q292 -7 300 -274v-341h-57z" />
    <glyph glyph-name="union" unicode="&#x222a;" 
d="M724 539h57v-338q-5 -265 -300 -269q-292 8 -296 269v338h58v-344q3 -212 238 -216q238 4 243 216v344z" />
    <glyph glyph-name="integral" unicode="&#x222b;" 
d="M473 430q12 208 99 215q25 -3 30 -26q0 -18 -22 -18q-8 0 -19 11q-7 7 -12 7q-37 0 -42 -185l-10 -319q-8 -311 -103 -297q-26 4 -30 27q0 18 22 18q9 0 19 -10q8 -8 12 -8q38 -20 46 270z" />
    <glyph glyph-name="uni222E" unicode="&#x222e;" 
d="M497 140q75 12 79 90q-4 70 -72 85zM469 315q-71 -11 -75 -85q4 -71 69 -90zM507 341q88 -18 95 -111q-8 -101 -105 -111v-4q-2 -63 -7 -112t-13 -84q-22 -97 -83 -101q-26 4 -30 27q0 18 22 18q9 0 19 -10q8 -8 12 -8q42 4 42 203l4 71q-91 21 -95 111q4 93 101 111
l4 89q17 215 99 215q25 -3 30 -26q0 -18 -22 -18q-8 0 -19 11q-7 7 -12 7q-38 8 -42 -185v-93z" />
    <glyph glyph-name="therefore" unicode="&#x2234;" 
d="M444 339q0 23 17 40t40 17t40 -17t17 -40t-17 -40t-40 -17t-40 17t-17 40zM228 -15q0 23 17 40t40 17t40 -17t17 -40t-17 -40t-40 -17t-40 17t-17 40zM658 -15q0 23 17 40t40 17t40 -17t17 -40t-17 -40t-40 -17t-40 17t-17 40z" />
    <glyph glyph-name="uni2235" unicode="&#x2235;" 
d="M444 -15q0 23 17 40t40 17t40 -17t17 -40t-17 -40t-40 -17t-40 17t-17 40zM228 339q0 23 17 40t40 17t40 -17t17 -40t-17 -40t-40 -17t-40 17t-17 40zM658 339q0 23 17 40t40 17t40 -17t17 -40t-17 -40t-40 -17t-40 17t-17 40z" />
    <glyph glyph-name="uni2236" unicode="&#x2236;" 
d="M442 340q0 23 17 40t40 17t40 -17t17 -40t-17 -40t-40 -17t-40 17t-17 40zM443 -15q0 23 17 40t40 17t40 -17t17 -40t-17 -40t-40 -17t-40 17t-17 40z" />
    <glyph glyph-name="uni2237" unicode="&#x2237;" 
d="M263 340q0 23 17 40t40 17t40 -17t17 -40t-17 -40t-40 -17t-40 17t-17 40zM264 -15q0 23 17 40t40 17t40 -17t17 -40t-17 -40t-40 -17t-40 17t-17 40zM622 340q0 23 17 40t40 17t40 -17t17 -40t-17 -40t-40 -17t-40 17t-17 40zM623 -15q0 23 17 40t40 17t40 -17t17 -40
t-17 -40t-40 -17t-40 17t-17 40z" />
    <glyph glyph-name="uni223D" unicode="&#x223d;" 
d="M815 116q-8 197 -152 204q-68 0 -162 -96q-111 -108 -194 -108q-187 0 -194 241h38q8 -197 153 -200q75 0 169 97q103 103 190 103q178 -4 194 -241h-42z" />
    <glyph glyph-name="approxequal" unicode="&#x2248;" 
d="M803 320q-83 -66 -163 -63q-59 0 -163 37q-95 37 -147 37q-73 4 -167 -70v51q92 73 163 68q57 0 171 -41q92 -37 139 -37q73 -4 167 70v-52zM803 179q-87 -70 -163 -66q-59 0 -163 40q-100 38 -147 38q-75 3 -167 -71v48q79 67 163 64q57 0 171 -41q92 -34 139 -34
q75 -4 167 71v-49z" />
    <glyph glyph-name="uni224C" unicode="&#x224c;" 
d="M864 -21h-777v41h777v-41zM864 113h-777v40h777v-40zM815 257q-8 197 -152 201q-68 0 -162 -97q-113 -107 -194 -107q-186 0 -194 245h38q5 -201 153 -205q75 0 169 100q103 105 190 105q178 -4 194 -242h-42z" />
    <glyph glyph-name="uni2252" unicode="&#x2252;" 
d="M762 108h-555v56h555v-56zM762 302h-555v56h555v-56zM312 430q-51 3 -54 55q4 46 54 52q54 -7 60 -52q-4 -50 -60 -55zM661 -78q-53 4 -57 54q4 46 57 51q52 -4 58 -51q-5 -50 -58 -54z" />
    <glyph glyph-name="notequal" unicode="&#x2260;" 
d="M383 146h-224v45h262l76 100h-338v40h372l170 223h49l-174 -223h231v-40h-261l-80 -100h341v-45h-375l-167 -214h-49z" />
    <glyph glyph-name="equivalence" unicode="&#x2261;" 
d="M163 390h640v-43h-640v43zM163 127h640v-41h-640v41zM163 261h640v-45h-640v45z" />
    <glyph glyph-name="lessequal" unicode="&#x2264;" 
d="M815 150v-56l-660 178v56l660 181v-55l-580 -152v-4zM815 -21v-47l-660 170v58z" />
    <glyph glyph-name="greaterequal" unicode="&#x2265;" 
d="M815 160v-58l-660 -170v47zM815 328v-56l-660 -178v56l576 148v4l-576 152v55z" />
    <glyph glyph-name="uni2266" unicode="&#x2266;" 
d="M163 292v47l643 160v-43l-561 -140v-2l561 -137v-44zM806 -82v-37h-643v37h643zM163 19v43h643v-43h-643z" />
    <glyph glyph-name="uni2267" unicode="&#x2267;" 
d="M163 133v44l561 137v2l-561 140v43l643 -160v-47zM806 -82v-37h-643v37h643zM163 19v43h643v-43h-643z" />
    <glyph glyph-name="uni226E" unicode="&#x226e;" 
d="M511 353l-291 -111l208 -85zM807 12v-48l-356 145l-79 -177h-46l87 188l-250 100v41l375 145l60 148h46l-53 -126l216 85v-44l-239 -97l-102 -230z" />
    <glyph glyph-name="uni226F" unicode="&#x226f;" 
d="M368 -68h-42l57 121l-220 -85v44l242 97l99 226l-341 134v44l360 -141l75 182h46l-83 -197l246 -96v-41l-371 -145zM542 320l-83 -193l288 115z" />
    <glyph glyph-name="circleplus" unicode="&#x2295;" 
d="M471 -5v257h-262v47h262v260h47v-260h262v-47h-262v-257h-47zM72 275q0 88 33.5 166t91.5 136.5t135.5 92t166.5 33.5q88 0 166 -33.5t136.5 -92t92 -136.5t33.5 -166q0 -89 -33.5 -166.5t-92 -135.5t-136.5 -91.5t-166 -33.5q-89 0 -166.5 33.5t-135.5 91.5t-91.5 135.5
t-33.5 166.5zM114 275q0 -80 30.5 -150t82.5 -122t122 -82.5t150 -30.5q79 0 149.5 30.5t123 82.5t83 122t30.5 150q0 79 -30.5 149.5t-83 123t-123 83t-149.5 30.5q-80 0 -150 -30.5t-122 -83t-82.5 -123t-30.5 -149.5z" />
    <glyph glyph-name="uni2299" unicode="&#x2299;" 
d="M496 226q-49 7 -53 55q4 48 53 56q57 -4 61 -56q-4 -52 -61 -55zM72 275q0 88 33.5 166t91.5 136.5t135.5 92t166.5 33.5q88 0 166 -33.5t136.5 -92t92 -136.5t33.5 -166q0 -89 -33.5 -166.5t-92 -135.5t-136.5 -91.5t-166 -33.5q-89 0 -166.5 33.5t-135.5 91.5
t-91.5 135.5t-33.5 166.5zM114 275q0 -80 30.5 -150t82.5 -122t122 -82.5t150 -30.5q79 0 149.5 30.5t123 82.5t83 122t30.5 150q0 79 -30.5 149.5t-83 123t-123 83t-149.5 30.5q-80 0 -150 -30.5t-122 -83t-82.5 -123t-30.5 -149.5z" />
    <glyph glyph-name="perpendicular" unicode="&#x22a5;" 
d="M833 -68h-700v40h330v557h41v-557h329v-40z" />
    <glyph glyph-name="uni22BF" unicode="&#x22bf;" 
d="M881 -69h-689l689 703v-703zM842 -29q0 84 0.5 151.5t1 132t1 132t0.5 151.5q-80 -82 -146.5 -150t-130 -133.5t-130.5 -133.5t-147 -150h551z" />
    <glyph glyph-name="uni2312" unicode="&#x2312;" 
d="M883 197q-15 0 -54 40q-152 156 -336 168h-24q-189 -12 -332 -168q-37 -40 -54 -40l-3 7q139 267 401 267q273 4 406 -267z" />
    <glyph glyph-name="uni2460" unicode="&#x2460;" 
d="M499 -18q-79 0 -149 30t-122 82t-82 122t-30 149t30 149t82 122t122 82t149 30t148.5 -30t121.5 -82t82 -122t30 -149t-30 -149t-82 -122t-121.5 -82t-148.5 -30zM499 680q-65 0 -122.5 -25t-100.5 -67.5t-67.5 -100t-24.5 -122.5t24.5 -122t67.5 -100t100.5 -67.5
t122.5 -24.5t122 24.5t100 67.5t67.5 100t24.5 122t-24.5 122.5t-67.5 100t-100 67.5t-122 25zM659 156h-315v70h128v304l-93 -14l-10 70l173 25v-385h117v-70z" />
    <glyph glyph-name="uni2461" unicode="&#x2461;" 
d="M499 -17q-79 0 -149 30t-122 82t-82 121.5t-30 148.5t30 149t82 122t122 82t149 30t149 -30t122 -82t82 -122t30 -149t-30 -148.5t-82 -121.5t-122 -82t-149 -30zM499 680q-65 0 -122.5 -25t-100.5 -67.5t-67.5 -100t-24.5 -122.5t24.5 -122t67.5 -100t100.5 -67.5
t122.5 -24.5t122 24.5t100 67.5t67.5 100t24.5 122t-24.5 122.5t-67.5 100t-100 67.5t-122 25zM498 532q-33 0 -52 -12.5t-28.5 -28.5t-12.5 -30t-3 -18l-70 5q1 20 10 46.5t28.5 50.5t50.5 40.5t77 16.5q37 0 68 -15t51 -42t25 -60.5t-6 -66.5q-4 -11 -12.5 -26.5
t-27.5 -38t-50.5 -53t-80.5 -71.5h197v-70h-205h-86l-35 1v56l14 11q68 52 110 89.5t65.5 62.5t32.5 39.5t11 20.5q11 37 -9 65t-62 28z" />
    <glyph glyph-name="uni2462" unicode="&#x2462;" 
d="M499 -18q-79 0 -149 30t-122 82t-82 122t-30 149t30 149t82 122t122 82t149 30t148.5 -30t121.5 -82t82 -122t30 -149t-30 -149t-82 -122t-121.5 -82t-148.5 -30zM499 680q-65 0 -122.5 -25t-100.5 -67.5t-67.5 -100t-24.5 -122.5t24.5 -122t67.5 -100t100.5 -67.5
t122.5 -24.5t122 24.5t100 67.5t67.5 100t24.5 122t-24.5 122.5t-67.5 100t-100 67.5t-122 25zM494 205q12 0 25.5 4t25.5 13t19.5 24t7.5 36q0 32 -20 52q-11 10 -25.5 16.5t-29.5 10.5t-28 5t-20 1l-73 -1l126 155h-136v68h278l-131 -162q22 -5 44.5 -15.5t41.5 -28.5
q41 -41 41 -101q0 -36 -13 -63t-33.5 -45t-46.5 -27.5t-53 -9.5q-120 0 -158 118l65 21q12 -38 34 -54.5t59 -16.5z" />
    <glyph glyph-name="uni2463" unicode="&#x2463;" 
d="M499 -18q-79 0 -149 30t-122 82t-82 122t-30 149t30 149t82 122t122 82t149 30t148.5 -30t121.5 -82t82 -122t30 -149t-30 -149t-82 -122t-121.5 -82t-148.5 -30zM499 680q-65 0 -122.5 -25t-100.5 -67.5t-67.5 -100t-24.5 -122.5t24.5 -122t67.5 -100t100.5 -67.5
t122.5 -24.5t122 24.5t100 67.5t67.5 100t24.5 122t-24.5 122.5t-67.5 100t-100 67.5t-122 25zM504 254h-225l226 366l2 -1h65v-297h84v-68h-84v-114h-68v114zM504 322v167l-103 -167h103z" />
    <glyph glyph-name="uni2464" unicode="&#x2464;" 
d="M499 -18q-79 0 -149 30t-122 82t-82 122t-30 149t30 148.5t82 121.5t122 82.5t149 30.5h1q79 0 148 -30.5t121 -82.5t82 -121.5t30 -148.5t-30 -149t-82 -122t-121.5 -82t-148.5 -30zM499 680q-65 0 -122.5 -25t-100.5 -67.5t-67.5 -100t-24.5 -122.5t24.5 -122
t67.5 -100t100.5 -67.5t122.5 -24.5t122.5 24.5t100 67.5t67.5 100t25 122t-25 122.5t-67.5 100t-100 67.5t-122.5 25zM496 186q3 0 17 2t29.5 10.5t27.5 26.5t12 51q0 45 -24 66q-15 13 -36.5 17.5t-44 5t-42.5 -2t-30 -4.5l-44 -6l28 245h216v-68h-155l-11 -98
q21 1 42.5 1t43 -4t41 -12.5t36.5 -22.5q48 -41 48 -117q0 -41 -13.5 -70.5t-35.5 -49t-49.5 -29t-55.5 -9.5q-125 0 -165 121l64 22q25 -75 101 -75z" />
    <glyph glyph-name="uni2465" unicode="&#x2465;" 
d="M499 -18q-79 0 -149 30t-122 82t-82 122t-30 149t30 149t82 122t122 82t149 30t148.5 -30t121.5 -82t82 -122t30 -149t-30 -149t-82 -122t-121.5 -82t-148.5 -30zM499 680q-65 0 -122.5 -25t-100.5 -67.5t-67.5 -100t-24.5 -122.5t24.5 -122t67.5 -100t100.5 -67.5
t122.5 -24.5t122 24.5t100 67.5t67.5 100t24.5 122t-24.5 122.5t-67.5 100t-100 67.5t-122 25zM487 125q-34 0 -64 13.5t-52.5 36.5t-35.5 53.5t-13 65.5q0 13 2 25t5 24h-1l5 10q2 7 5 13l6 12l121 260l61 -29l-69 -149q8 1 15 2t15 1q34 0 64 -13.5t52.5 -36.5t35.5 -53.5
t13 -65.5t-13 -65.5t-35.5 -53.5t-52.5 -36.5t-64 -13.5zM487 398q-23 0 -42 -9.5t-33 -26.5l-22 -47h-1q-1 -5 -1.5 -10.5t-0.5 -10.5q0 -21 8 -40t21.5 -33.5t31.5 -22.5t39 -8t39 8t31.5 22.5t21.5 33.5t8 40t-8 40t-21.5 33.5t-31.5 22.5t-39 8z" />
    <glyph glyph-name="uni2466" unicode="&#x2466;" 
d="M499 -18q-79 0 -149 30t-122 82t-82 122t-30 149t30 149t82 122t122 82t149 30t148.5 -30t121.5 -82t82 -122t30 -149t-30 -149t-82 -122t-121.5 -82t-148.5 -30zM499 680q-65 0 -122.5 -25t-100.5 -67.5t-67.5 -100t-24.5 -122.5t24.5 -122t67.5 -100t100.5 -67.5
t122.5 -24.5t122 24.5t100 67.5t67.5 100t24.5 122t-24.5 122.5t-67.5 100t-100 67.5t-122 25zM564 496h-219v68h315l-156 -443l-64 23z" />
    <glyph glyph-name="uni2467" unicode="&#x2467;" 
d="M499 -18q-79 0 -149 30t-122 82t-82 122t-30 149t30 149t82 122t122 82t149 30t148.5 -30t121.5 -82t82 -122t30 -149t-30 -149t-82 -122t-121.5 -82t-148.5 -30zM499 680q-65 0 -122.5 -25t-100.5 -67.5t-67.5 -100t-24.5 -122.5t24.5 -122t67.5 -100t100.5 -67.5
t122.5 -24.5t122 24.5t100 67.5t67.5 100t24.5 122t-24.5 122.5t-67.5 100t-100 67.5t-122 25zM327 266q0 38 19 70t51 52q-22 18 -35 43t-13 54q0 27 11 50.5t30 41t44 27.5t54 10q28 0 53.5 -10t44 -27.5t29.5 -41t11 -50.5q0 -29 -12 -53.5t-34 -42.5q32 -20 51.5 -52.5
t19.5 -70.5q0 -31 -12.5 -58.5t-34.5 -47.5t-51.5 -32t-63.5 -12q-33 0 -62.5 12t-51.5 32t-35 47.5t-13 58.5zM488 549q-31 0 -52.5 -19t-21.5 -45t21.5 -45t52.5 -19q30 0 51.5 19t21.5 45t-21.5 45t-51.5 19zM489 350q-40 0 -68.5 -24.5t-28.5 -59.5q0 -18 7.5 -33.5
t21 -27t31 -18t37.5 -6.5t38 6.5t31 18t20.5 27t7.5 33.5q0 35 -28 59.5t-69 24.5z" />
    <glyph glyph-name="uni2468" unicode="&#x2468;" 
d="M499 -18q-79 0 -149 30t-122 82t-82 122t-30 149t30 149t82 122t122 82t149 30t148.5 -30t121.5 -82t82 -122t30 -149t-30 -149t-82 -122t-121.5 -82t-148.5 -30zM499 680q-65 0 -122.5 -25t-100.5 -67.5t-67.5 -100t-24.5 -122.5t24.5 -122t67.5 -100t100.5 -67.5
t122.5 -24.5t122 24.5t100 67.5t67.5 100t24.5 122t-24.5 122.5t-67.5 100t-100 67.5t-122 25zM478 288q-33 0 -62.5 12t-52 33t-36 49.5t-14.5 61.5q-2 34 10 64.5t33.5 53.5t51 37.5t64.5 16.5t66.5 -9.5t55 -32.5t37.5 -50.5t16 -63.5q1 -22 -5 -46h1l-105 -303l-64 22
l56 163q-21 -7 -43 -8h-9zM476 551q-21 -1 -39.5 -10t-32 -23t-20.5 -32.5t-6 -39.5q2 -39 30.5 -66t69.5 -27h6q27 2 48.5 15t34.5 34l12 34h1q2 5 2 10.5v11.5q-2 39 -30.5 66t-70.5 27h-5z" />
    <glyph glyph-name="uni2469" unicode="&#x2469;" 
d="M499 -17q-79 0 -149 30t-122 82t-82 121.5t-30 148.5t30 149t82 122t122 82t149 30t149 -30t122 -82t82 -122t30 -149t-30 -148.5t-82 -121.5t-122 -82t-149 -30zM499 680q-65 0 -122.5 -25t-100.5 -67.5t-67.5 -100t-24.5 -122.5t24.5 -122t67.5 -100t100.5 -67.5
t122.5 -24.5t122 24.5t100 67.5t67.5 100t24.5 122t-24.5 122.5t-67.5 100t-100 67.5t-122 25zM595 156q-29 0 -54.5 17t-44.5 47t-30 70t-11 86t11 85.5t30 69t44.5 47t54.5 17.5h2q29 0 54.5 -17.5t44 -47t29 -69t10.5 -85.5t-11 -86t-29.5 -70t-44 -47t-55.5 -17z
M596 527q-13 0 -26 -11.5t-23.5 -32t-17 -48t-6.5 -59.5q0 -33 6.5 -60.5t17 -48t23 -32t25.5 -11.5t25.5 11.5t23 32t17 48t6.5 60.5q0 32 -6.5 59.5t-16.5 48t-22.5 32t-25.5 11.5zM475 157h-202v68h76v284l-57 -11l-13 66l138 28v-367h58v-68z" />
    <glyph glyph-name="uni2474" unicode="&#x2474;" 
d="M242 22q-24 10 -57.5 37.5t-64 70.5t-51.5 101.5t-19 131.5q1 54 14.5 98t33.5 79.5t43.5 61.5t43.5 44t34 27t16 10l35 -63q-2 -1 -25 -17t-50 -48t-49.5 -80.5t-23.5 -113.5q-1 -59 16.5 -107t41.5 -82.5t50 -56t41 -27.5zM767 683q2 -1 16 -10t34 -27t43.5 -44
t43.5 -61.5t33.5 -79.5t14.5 -98q1 -73 -20 -131.5t-51 -101.5t-64 -70.5t-58 -37.5l-28 66q15 6 41 27.5t50 56t41.5 82.5t16.5 107q-2 66 -25 114.5t-50.5 80.5t-50 48t-23.5 16zM472 152v419l-92 -16l-12 68l174 32v-503h107v-70h-305v70h128z" />
    <glyph glyph-name="uni2475" unicode="&#x2475;" 
d="M242 22q-24 10 -57.5 37.5t-64 70.5t-51.5 101.5t-19 131.5q1 54 14.5 98t33.5 79.5t43.5 61.5t43.5 44t34 27t16 10l35 -63q-2 -1 -25 -17t-50 -48t-49.5 -80.5t-23.5 -113.5q-1 -59 16.5 -107t41.5 -82.5t50 -56t41 -27.5zM767 683q2 -1 16 -10t34 -27t43.5 -44
t43.5 -61.5t33.5 -79.5t14.5 -98q1 -73 -20 -131.5t-51 -101.5t-64 -70.5t-58 -37.5l-28 66q15 6 41 27.5t50 56t41.5 82.5t16.5 107q-2 66 -25 114.5t-50.5 80.5t-50 48t-23.5 16zM418 255q34 34 64.5 66t55.5 60t42 52t23 42q15 44 -8 78q-12 18 -34 28.5t-50 12.5
q-54 3 -84 -25q-12 -11 -19 -25t-10 -26t-4 -20.5l-1 -8.5l-72 1q0 1 1 14.5t6.5 33t17 42t31.5 42.5q53 48 138 44q45 -2 81 -21t59 -51q20 -31 24.5 -67.5t-8.5 -74.5q-17 -49 -71.5 -110t-130.5 -138q-11 -11 -22.5 -23t-23.5 -24h267v-72h-244h-103l-35 1v55l10 10
q26 28 51 53.5t49 50.5z" />
    <glyph glyph-name="uni2476" unicode="&#x2476;" 
d="M242 22q-24 10 -57.5 37.5t-64 70.5t-51.5 101.5t-19 131.5q1 54 14.5 98t33.5 79.5t43.5 61.5t43.5 44t34 27t16 10l35 -63q-2 -1 -25 -17t-50 -48t-49.5 -80.5t-23.5 -113.5q-1 -59 16.5 -107t41.5 -82.5t50 -56t41 -27.5zM952 363q1 -73 -20 -131.5t-51 -101.5
t-64 -70.5t-58 -37.5l-28 66q15 6 41 27.5t50 56t41.5 82.5t16.5 107q-2 66 -25 114.5t-50.5 80.5t-50 48t-23.5 16l36 63q2 -1 16 -10t34 -27t43.5 -44t43.5 -61.5t33.5 -79.5t14.5 -98zM694 244q0 -46 -17 -81t-44.5 -59t-62.5 -36t-70 -12q-80 0 -133.5 39t-78.5 116
l67 21q17 -54 52.5 -80t92.5 -26q23 0 45 7.5t39.5 22.5t28.5 37t11 51q0 48 -31 78q-20 19 -47 29.5t-51.5 15.5t-42 5.5l-17.5 0.5l-77 -2l179 214h-191v70h340l-182 -219q32 -5 70 -20t68 -44q52 -50 52 -128z" />
    <glyph glyph-name="uni2477" unicode="&#x2477;" 
d="M242 22q-24 10 -57.5 37.5t-64 70.5t-51.5 101.5t-19 131.5q1 54 14.5 98t33.5 79.5t43.5 61.5t43.5 44t34 27t16 10l36 -63q-2 -1 -25.5 -17t-50.5 -48t-49.5 -80.5t-23.5 -113.5q-1 -59 16.5 -107t41.5 -82.5t50 -56t41 -27.5zM767 683q2 -1 16 -10t34 -27t43.5 -44
t43.5 -61.5t33.5 -79.5t14.5 -98q1 -73 -20 -131.5t-51 -101.5t-64 -70.5t-58 -37.5l-28 66q15 6 41 27.5t50 56t41.5 82.5t16.5 107q-2 66 -25 114.5t-50.5 80.5t-50 48t-23.5 16zM542 66v150h-297l297 437v2h70v-369h109v-70h-109v-150h-70zM542 286v243l-165 -243h165z
" />
    <glyph glyph-name="uni2478" unicode="&#x2478;" 
d="M242 22q-24 10 -57.5 37.5t-64 70.5t-51.5 101.5t-19 131.5q1 54 14.5 98t33.5 79.5t43.5 61.5t43.5 44t34 27t16 10l36 -63q-2 -1 -25.5 -17t-50.5 -48t-49.5 -80.5t-23.5 -113.5q-1 -59 16.5 -107t41.5 -82.5t50 -56t41 -27.5zM767 683q2 -1 16 -10t34 -27t43.5 -44
t43.5 -61.5t33.5 -79.5t14.5 -98q1 -73 -20 -131.5t-51 -101.5t-64 -70.5t-58 -37.5l-28 66q15 6 41 27.5t50 56t41.5 82.5t16.5 107q-2 66 -25 114.5t-50.5 80.5t-50 48t-23.5 16zM499 130q4 0 23.5 2.5t41 14.5t38.5 36.5t17 68.5q0 60 -32 88q-20 17 -49.5 23.5t-60 7.5
t-57 -2t-40.5 -5l-45 -7l34 292h272v-70h-210l-16 -140q27 3 56.5 3t58 -4.5t55 -15t47.5 -29.5q57 -50 57 -141q0 -50 -17 -86t-44 -59.5t-61 -35t-68 -11.5q-77 0 -129 37.5t-76 110.5l66 22q17 -51 51 -75.5t88 -24.5z" />
    <glyph glyph-name="uni2479" unicode="&#x2479;" 
d="M242 22q-24 10 -57.5 37.5t-64 70.5t-51.5 101.5t-19 131.5q1 54 14.5 98t33.5 79.5t43.5 61.5t43.5 44t34 27t16 10l35 -63q-2 -1 -25 -17t-50 -48t-49.5 -80.5t-23.5 -113.5q-1 -59 16.5 -107t41.5 -82.5t50 -56t41 -27.5zM767 683q2 -1 16 -10t34 -27t43.5 -44
t43.5 -61.5t33.5 -79.5t14.5 -98q1 -73 -20 -131.5t-51 -101.5t-64 -70.5t-58 -37.5l-28 66q15 6 41 27.5t50 56t41.5 82.5t16.5 107q-2 66 -25 114.5t-50.5 80.5t-50 48t-23.5 16zM479 50q-41 0 -77.5 16t-63.5 43.5t-42.5 64.5t-15.5 79q0 31 9 58l-1 1l2 3q8 26 23 49
l152 325l65 -31l-97 -208q21 6 46 6q41 0 77 -16t63 -43.5t42.5 -64.5t15.5 -79t-15.5 -79t-42.5 -64.5t-63 -43.5t-77 -16zM479 386q-30 0 -55.5 -13t-43.5 -35l-26 -57h-1q-1 -7 -2 -13.5t-1 -14.5q0 -27 10 -51.5t27.5 -42.5t41 -28.5t50.5 -10.5t50 10.5t40.5 28.5
t27.5 42.5t10 51.5t-10 51.5t-27.5 42.5t-40.5 28.5t-50 10.5z" />
    <glyph glyph-name="uni247A" unicode="&#x247a;" 
d="M242 22q-24 10 -57.5 37.5t-64 70.5t-51.5 101.5t-19 131.5q1 54 14.5 98t33.5 79.5t43.5 61.5t43.5 44t34 27t16 10l35 -63q-2 -1 -25 -17t-50 -48t-49.5 -80.5t-23.5 -113.5q-1 -59 16.5 -107t41.5 -82.5t50 -56t41 -27.5zM767 683q2 -1 16 -10t34 -27t43.5 -44
t43.5 -61.5t33.5 -79.5t14.5 -98q1 -73 -20 -131.5t-51 -101.5t-64 -70.5t-58 -37.5l-28 66q15 6 41 27.5t50 56t41.5 82.5t16.5 107q-2 66 -25 114.5t-50.5 80.5t-50 48t-23.5 16zM411 78l174 483h-264v72h367l-209 -579z" />
    <glyph glyph-name="uni247B" unicode="&#x247b;" 
d="M242 22q-24 10 -57.5 37.5t-64 70.5t-51.5 101.5t-19 131.5q1 54 14.5 98t33.5 79.5t43.5 61.5t43.5 44t34 27t16 10l35 -63q-2 -1 -25 -17t-50 -48t-49.5 -80.5t-23.5 -113.5q-1 -59 16.5 -107t41.5 -82.5t50 -56t41 -27.5zM767 683q2 -1 16 -10t34 -27t43.5 -44
t43.5 -61.5t33.5 -79.5t14.5 -98q1 -73 -20 -131.5t-51 -101.5t-64 -70.5t-58 -37.5l-28 66q15 6 41 27.5t50 56t41.5 82.5t16.5 107q-2 66 -25 114.5t-50.5 80.5t-50 48t-23.5 16zM292 240q0 52 27 94.5t72 68.5q-32 22 -51 55.5t-19 73.5q0 34 13.5 63.5t37 51.5t55 35
t67.5 13t67 -13t54.5 -35t37 -51.5t13.5 -63.5q0 -39 -18 -72.5t-49 -55.5q45 -25 72.5 -68t27.5 -96q0 -39 -16 -74t-43.5 -61t-64.5 -41t-79 -15t-79 15t-65 41t-44 61t-16 74zM494 627q-22 0 -41 -7.5t-33.5 -20t-22.5 -30t-8 -37.5t8 -37t22.5 -29.5t33.5 -20t41 -7.5
q21 0 40 7.5t33.5 20t22.5 29.5t8 37t-8 37.5t-22.5 30t-33.5 20t-40 7.5zM496 362q-28 0 -53 -9.5t-43.5 -26t-29 -39t-10.5 -47.5q0 -26 10.5 -48t29 -39t43.5 -26.5t53 -9.5t52.5 9.5t43 26.5t29 39t10.5 48q0 25 -10.5 47.5t-29 39t-43 26t-52.5 9.5z" />
    <glyph glyph-name="uni247C" unicode="&#x247c;" 
d="M242 22q-24 10 -57.5 37.5t-64 70.5t-51.5 101.5t-19 131.5q1 54 14.5 98t33.5 79.5t43.5 61.5t43.5 44t34 27t16 10l35 -63q-2 -1 -25 -17t-50 -48t-49.5 -80.5t-23.5 -113.5q-1 -59 16.5 -107t41.5 -82.5t50 -56t41 -27.5zM767 683q2 -1 16 -10t34 -27t43.5 -44
t43.5 -61.5t33.5 -79.5t14.5 -98q1 -73 -20 -131.5t-51 -101.5t-64 -70.5t-58 -37.5l-28 66q15 6 41 27.5t50 56t41.5 82.5t16.5 107q-2 66 -25 114.5t-50.5 80.5t-50 48t-23.5 16zM492 687q42 0 79 -15.5t65 -42t44 -63t16 -78.5q0 -28 -8 -57l2 -1l-7 -15q-5 -12 -11 -25
l-153 -339l-64 28l95 212q-25 -8 -57 -10h-5q-42 0 -79 15.5t-64.5 42t-43.5 63t-17 78.5q0 42 15.5 79t43 65t65 45t79.5 18h5zM491 351q38 1 69.5 20t48.5 50l10 22q7 20 7 44q0 27 -11 51t-29 41.5t-42 27.5t-52 10h-3q-28 -1 -53 -12t-43 -29.5t-28.5 -43t-10.5 -51.5
t11 -51t29 -41.5t42 -27.5t52 -10h3z" />
    <glyph glyph-name="uni247D" unicode="&#x247d;" 
d="M244 623q-2 -1 -19 -17.5t-37.5 -48.5t-37.5 -81t-18 -115q-1 -59 9 -106t26 -81.5t34 -56t33 -28.5v63h90v388l-70 -15l-14 68l154 33v-474h73v-70h-233l-26 -60q-28 12 -55 41.5t-48 73.5t-33.5 101.5t-11.5 124.5q1 53 11.5 97t25.5 78.5t32.5 61t33 44t26 26.5
t12.5 10l22 -28zM622 79q-34 0 -63 21t-50.5 58.5t-33.5 88.5t-12 111q0 58 12.5 108.5t34 88t50.5 59t62 22.5h3q33 -1 61.5 -22.5t49.5 -58.5t33 -87.5t12 -109.5q0 -60 -12 -111t-33.5 -88.5t-50.5 -58.5t-63 -21zM623 568q-16 0 -32.5 -16.5t-29.5 -44.5t-21.5 -66
t-8.5 -83t8 -84t21 -67t29.5 -44t32.5 -16t32.5 16t29.5 44t21 67t8 84t-8 83t-21 66t-29 44.5t-32 16.5zM798 680q1 -1 12 -10t26 -26.5t33 -44t33 -61t25.5 -78.5t11.5 -97q1 -67 -11.5 -124.5t-33.5 -101.5t-48.5 -73.5t-55.5 -41.5l-28 66q14 6 32.5 27t35 55.5
t27.5 82.5t10 108q-2 66 -19 115t-37 81t-37.5 48.5t-19.5 17.5z" />
    <glyph glyph-name="uni247E" unicode="&#x247e;" 
d="M244 623q-2 -1 -19 -17.5t-37.5 -48.5t-37.5 -81t-18 -115q-1 -60 10 -108t27.5 -82.5t35 -55.5t32.5 -27l-29 -66q-28 12 -55 41.5t-48 73.5t-33.5 101.5t-11.5 124.5q1 53 11.5 97t25.5 78.5t32.5 61t33 44t26 26.5t12.5 10l22 -28zM798 680q1 -1 12 -10t26 -26.5
t33 -44t33 -61t25.5 -78.5t11.5 -97q1 -67 -11.5 -124.5t-33.5 -101.5t-48.5 -73.5t-55.5 -41.5l-28 66q14 6 32.5 27t35 55.5t27.5 82.5t10 108q-2 66 -19 115t-37 81t-37.5 48.5t-19.5 17.5zM343 152v389l-89 -16l-12 68l171 32v-473h74v-70h-233v70h89zM604 152v389
l-89 -16l-12 68l171 32v-473h73v-70h-233v70h90z" />
    <glyph glyph-name="uni247F" unicode="&#x247f;" 
d="M132 361q-1 -60 10 -108t27.5 -82.5t35 -55.5t32.5 -27l-29 -67q-28 12 -55 41.5t-48 74t-33.5 101.5t-11.5 124q1 53 11.5 97t25.5 79t32.5 61.5t33 44t26 26.5t12.5 10l22 -28l21 -29q-2 -1 -19 -17.5t-37.5 -48.5t-37.5 -81t-18 -115zM798 680q1 -1 12 -10t26 -26.5
t33 -44t33 -61t25.5 -78.5t11.5 -97q1 -67 -11.5 -124.5t-33.5 -101.5t-48.5 -73.5t-55.5 -41.5l-28 66q14 6 32.5 27t35 55.5t27.5 82.5t10 108q-2 66 -19 115t-37 81t-37.5 48.5t-19.5 17.5zM749 427q-11 -42 -46 -91t-84 -110q-13 -17 -27 -34.5t-28 -36.5h186v-72h-179
h-77l-34 2v51l7 9q24 35 48.5 66t46.5 59q43 54 76 99.5t41 74.5q6 24 2.5 46.5t-15.5 38.5q-18 24 -51 24q-38 0 -59 -21q-10 -10 -15 -22t-7 -23q-3 -13 -3 -26l-72 -3q0 3 0.5 16t4.5 31t13.5 38.5t26.5 38.5q40 43 111 43q32 0 60 -13t48 -39q23 -29 29.5 -67t-3.5 -79z
M387 152h56v-70h-193v70h69v389l-71 -15l-14 66l153 33v-473z" />
    <glyph glyph-name="uni2480" unicode="&#x2480;" 
d="M132 361q-1 -60 10 -108t27.5 -82.5t35 -55.5t32.5 -27l-29 -67q-28 12 -55 41.5t-48 74t-33.5 101.5t-11.5 124q1 53 11.5 97t25.5 79t32.5 61.5t33 44t26 26.5t12.5 10l22 -28l21 -29q-2 -1 -19 -17.5t-37.5 -48.5t-37.5 -81t-18 -115zM798 680q1 -1 12 -10t26 -26.5
t33 -44t33 -61t25.5 -78.5t11.5 -97q1 -67 -11.5 -124.5t-33.5 -101.5t-48.5 -73.5t-55.5 -41.5l-28 66q14 6 32.5 27t35 55.5t27.5 82.5t10 108q-2 66 -19 115t-37 81t-37.5 48.5t-19.5 17.5zM627 414q26 -6 52.5 -18.5t47.5 -33t34.5 -50.5t13.5 -70q0 -43 -13.5 -75.5
t-35.5 -54t-50.5 -32.5t-57.5 -11q-133 0 -170 139l67 18q15 -54 41 -70.5t62 -16.5q16 0 31.5 6t28 19t20 32t7.5 46q0 40 -20.5 62.5t-46 32.5t-47 12t-23.5 2h-64l126 198h-140v70h267zM392 152h73v-70h-223v70h80v388l-70 -15l-14 68l154 33v-474z" />
    <glyph glyph-name="uni2481" unicode="&#x2481;" 
d="M132 361q-1 -60 10 -108t27.5 -82.5t35 -55.5t32.5 -27l-29 -67q-28 12 -55 41.5t-48 74t-33.5 101.5t-11.5 124q1 53 11.5 97t25.5 79t32.5 61.5t33 44t26 26.5t12.5 10l22 -28l21 -29q-2 -1 -19 -17.5t-37.5 -48.5t-37.5 -81t-18 -115zM798 680q1 -1 12 -10t26 -26.5
t33 -44t33 -61t25.5 -78.5t11.5 -97q1 -67 -11.5 -124.5t-33.5 -101.5t-48.5 -73.5t-55.5 -41.5l-28 66q14 6 32.5 27t35 55.5t27.5 82.5t10 108q-2 66 -19 115t-37 81t-37.5 48.5t-19.5 17.5zM694 217v-135h-70v135h-208l208 403v3h70v-336h77v-70h-77zM624 287v181
l-94 -181h94zM392 152h73v-70h-223v70h80v388l-70 -15l-14 68l154 33v-474z" />
    <glyph glyph-name="uni2482" unicode="&#x2482;" 
d="M132 361q-1 -60 10 -108t27.5 -82.5t35 -55.5t32.5 -27l-29 -67q-28 12 -55 41.5t-48 74t-33.5 101.5t-11.5 124q1 53 11.5 97t25.5 79t32.5 61.5t33 44t26 26.5t12.5 10l22 -28l21 -29q-2 -1 -19 -17.5t-37.5 -48.5t-37.5 -81t-18 -115zM798 680q1 -1 12 -10t26 -26.5
t33 -44t33 -61t25.5 -78.5t11.5 -97q1 -67 -11.5 -124.5t-33.5 -101.5t-48.5 -73.5t-55.5 -41.5l-28 66q14 6 32.5 27t35 55.5t27.5 82.5t10 108q-2 66 -19 115t-37 81t-37.5 48.5t-19.5 17.5zM724 381q55 -46 55 -137q0 -45 -13.5 -79.5t-35.5 -58t-50.5 -35t-57.5 -11.5
q-22 0 -46.5 5.5t-47.5 21.5t-43 43.5t-32 71.5l67 19q9 -30 21 -48t26 -27.5t28.5 -12.5t26.5 -3t27.5 5t28.5 18t22 35t9 56q0 57 -30 83q-21 18 -59 22.5t-89 -4.5l-46 -7l28 279h221v-70h-158l-12 -127q104 8 160 -39zM392 152h73v-70h-223v70h80v388l-70 -15l-14 68
l154 33v-474z" />
    <glyph glyph-name="uni2483" unicode="&#x2483;" 
d="M132 361q-1 -60 10 -108t27.5 -82.5t35 -55.5t32.5 -27l-29 -66q-28 12 -55 41.5t-48 73.5t-33.5 101.5t-11.5 124.5q1 53 11.5 97t25.5 78.5t32.5 61t33 44t26 26.5t12.5 10l22 -28l21 -29q-2 -1 -19 -17.5t-37.5 -48.5t-37.5 -81t-18 -115zM798 680q1 -1 12 -10
t26 -26.5t33 -44t33 -61t25.5 -78.5t11.5 -97q1 -67 -11.5 -124.5t-33.5 -101.5t-48.5 -73.5t-55.5 -41.5l-28 66q14 6 32.5 27t35 55.5t27.5 82.5t10 108q-2 66 -19 115t-37 81t-37.5 48.5t-19.5 17.5zM620 445q35 0 65.5 -14.5t53.5 -39t36.5 -58t13.5 -71.5t-13.5 -71.5
t-36.5 -58.5t-53.5 -39.5t-65.5 -14.5t-66 14.5t-54 39.5t-36.5 58.5t-13.5 71.5q0 25 8 52h-1l2 5q6 19 17 39l126 289l66 -28l-77 -177q15 3 29 3zM620 148q21 0 39 9t31.5 24.5t21 36t7.5 44.5q0 23 -7.5 43.5t-21 36t-31.5 24.5t-39 9q-23 0 -42 -10.5t-33 -28.5
l-22 -50q-3 -12 -3 -24q0 -24 8 -44.5t21.5 -36t31.5 -24.5t39 -9zM392 152h73v-70h-223v70h80v388l-70 -15l-14 68l154 33v-474z" />
    <glyph glyph-name="uni2484" unicode="&#x2484;" 
d="M132 361q-1 -60 10 -108t27.5 -82.5t35 -55.5t32.5 -27l-29 -66q-28 12 -55 41.5t-48 73.5t-33.5 101.5t-11.5 124.5q1 53 11.5 97t25.5 78.5t32.5 61t33 44t26 26.5t12.5 10l22 -28l21 -29q-2 -1 -19 -17.5t-37.5 -48.5t-37.5 -81t-18 -115zM798 680q1 -1 12 -10
t26 -26.5t33 -44t33 -61t25.5 -78.5t11.5 -97q1 -67 -11.5 -124.5t-33.5 -101.5t-48.5 -73.5t-55.5 -41.5l-28 66q14 6 32.5 27t35 55.5t27.5 82.5t10 108q-2 66 -19 115t-37 81t-37.5 48.5t-19.5 17.5zM401 152h84v-70h-243v70h89v388l-70 -15l-14 68l154 33v-474zM443 623
h291l-125 -549l-71 16l106 461h-201v72z" />
    <glyph glyph-name="uni2485" unicode="&#x2485;" 
d="M132 361q-1 -60 10 -108t27.5 -82.5t35 -55.5t32.5 -27l-29 -66q-28 12 -55 41.5t-48 73.5t-33.5 101.5t-11.5 124.5q1 53 11.5 97t25.5 78.5t32.5 61t33 44t26 26.5t12.5 10l22 -28l21 -29q-2 -1 -19 -17.5t-37.5 -48.5t-37.5 -81t-18 -115zM798 680q1 -1 12 -10
t26 -26.5t33 -44t33 -61t25.5 -78.5t11.5 -97q1 -67 -11.5 -124.5t-33.5 -101.5t-48.5 -73.5t-55.5 -41.5l-28 66q14 6 32.5 27t35 55.5t27.5 82.5t10 108q-2 66 -19 115t-37 81t-37.5 48.5t-19.5 17.5zM715 383q35 -23 56 -61t21 -84q0 -36 -13 -67.5t-36 -55t-53.5 -37
t-64.5 -13.5q-35 0 -65 13.5t-53 37t-36 55t-13 67.5q0 45 21 83t55 61q-24 20 -38.5 49.5t-14.5 64.5q0 30 11 57t30.5 47.5t45.5 32t56 11.5t56 -11.5t45.5 -32t30.5 -47.5t11 -57q0 -34 -14 -63.5t-38 -49.5zM624 576q-31 0 -53 -23.5t-22 -56.5t22 -56t53 -23t53 23
t22 56t-22 56.5t-53 23.5zM625 133q21 0 39 8t31.5 22.5t21 33.5t7.5 41q0 21 -7.5 40t-21 33.5t-31.5 22.5t-39 8q-20 0 -38 -8t-31.5 -22.5t-21.5 -33.5t-8 -40q0 -22 8 -41t21.5 -33.5t31.5 -22.5t38 -8zM392 152h73v-70h-223v70h80v388l-70 -15l-14 68l154 33v-474z" />
    <glyph glyph-name="uni2486" unicode="&#x2486;" 
d="M132 361q-1 -60 10 -108t27.5 -82.5t35 -55.5t32.5 -27l-29 -66q-28 12 -55 41.5t-48 73.5t-33.5 101.5t-11.5 124.5q1 53 11.5 97t25.5 78.5t32.5 61t33 44t26 26.5t12.5 10l22 -28l21 -29q-2 -1 -19 -17.5t-37.5 -48.5t-37.5 -81t-18 -115zM798 680q1 -1 12 -10
t26 -26.5t33 -44t33 -61t25.5 -78.5t11.5 -97q1 -67 -11.5 -124.5t-33.5 -101.5t-48.5 -73.5t-55.5 -41.5l-28 66q14 6 32.5 27t35 55.5t27.5 82.5t10 108q-2 66 -19 115t-37 81t-37.5 48.5t-19.5 17.5zM789 464q0 -56 -26 -100l-121 -294l-63 26l76 185q-18 -6 -38 -6h-4
q-36 0 -67.5 14t-55 38.5t-37.5 57.5t-14 71t13 72t36.5 60t55 41t67.5 16h4q36 0 68 -14t55 -38.5t37 -57.5t14 -71zM615 343q27 1 49.5 14.5t37.5 36.5l16 40q3 13 3 29q0 24 -8.5 45t-23 36t-33.5 24t-41 9h-2q-22 -1 -41.5 -10.5t-34 -26t-22.5 -38t-8 -45.5t8.5 -45
t22.5 -36t33.5 -24t41.5 -9h2zM392 152h73v-70h-223v70h80v388l-70 -15l-14 68l154 33v-474z" />
    <glyph glyph-name="uni2487" unicode="&#x2487;" 
d="M208 22q-28 12 -55 41.5t-48 73.5t-33.5 101.5t-11.5 124.5q1 79 23 138t47.5 98.5t47 59t23.5 21.5l22 -28l21 -29q-2 -1 -19 -17.5t-37.5 -48.5t-37.5 -81t-18 -115q-1 -60 10 -108t27.5 -82.5t35 -55.5t32.5 -27zM798 680q1 -1 12 -10t26 -26.5t33 -44t33 -61
t25.5 -78.5t11.5 -97q1 -67 -11.5 -124.5t-33.5 -101.5t-48.5 -73.5t-55.5 -41.5l-28 66q14 6 32.5 27t35 55.5t27.5 82.5t10 108q-2 66 -19 115t-37 81t-37.5 48.5t-19.5 17.5zM239 460q0 21 6.5 49.5t22.5 54t42.5 43.5t67.5 18q61 0 100 -48q23 -29 30 -68.5t-3 -81.5
q-11 -45 -46.5 -100t-84.5 -125q-8 -11 -16.5 -23t-16.5 -24h173v-72h-168h-71l-35 1v51l6 9q36 52 69 99q45 63 78.5 114.5t41.5 86.5q6 26 2.5 49t-16.5 39q-17 21 -43 21q-24 0 -37.5 -13.5t-20 -30t-8 -31.5t-1.5 -19zM661 79q-32 0 -58.5 21t-46 58t-30.5 88t-11 110
q0 58 11 108.5t30.5 87.5t46 58t58.5 22h2q31 -1 57 -22t45.5 -58t30.5 -87.5t11 -108.5q0 -59 -11 -110t-30.5 -88t-46.5 -58t-58 -21zM662 564q-12 0 -26 -15.5t-26 -42.5t-19.5 -65.5t-7.5 -84.5q0 -48 7.5 -86.5t19.5 -65.5t25.5 -42t25.5 -15t25.5 15t25.5 42
t19.5 65.5t7.5 86.5q0 47 -7.5 85.5t-19 65.5t-25 42t-25.5 15z" />
    <glyph glyph-name="uni2488" unicode="&#x2488;" 
d="M673 179h90v-91h-90v91zM559 152v-70h-305v70h127v419l-111 -18l-11 72l194 30v-503h106z" />
    <glyph glyph-name="uni2489" unicode="&#x2489;" 
d="M775 179v-91h-90v91h90zM366 201q-11 -11 -21.5 -22t-21.5 -22h267v-72h-244h-103l-35 1v55l10 10q25 27 49.5 52t47.5 49q34 35 65 67t56 60.5t42.5 52.5t23.5 43q15 45 -8 79q-12 17 -33.5 27.5t-49.5 12.5q-54 3 -84 -25q-12 -11 -19 -25t-10 -26t-4 -20.5l-1 -8.5
l-72 1q0 1 1 14.5t6.5 33t17 42t31.5 42.5q53 48 138 44q45 -2 81 -21t58 -51q20 -30 24.5 -67t-8.5 -75q-17 -49 -70.5 -109.5t-133.5 -141.5z" />
    <glyph glyph-name="uni248A" unicode="&#x248a;" 
d="M775 179v-91h-90v91h90zM410 126q23 0 45 7.5t39.5 22.5t28.5 37t11 51q0 47 -31 78q-17 16 -39.5 26.5t-45.5 16t-42.5 7t-30.5 1.5l-77 -2l179 214h-191v70h340l-182 -219q32 -5 70 -20t68 -44q52 -50 52 -128q0 -46 -17 -81t-44.5 -59t-62.5 -36t-70 -12
q-80 0 -133.5 39t-78.5 115l67 22q17 -54 52.5 -80t92.5 -26z" />
    <glyph glyph-name="uni248B" unicode="&#x248b;" 
d="M715 179h90v-91h-90v91zM461 218v0h-297l297 443v2h72v-373h108v-72h-108v-152h-72v152zM461 532l-163 -242h163v242z" />
    <glyph glyph-name="uni248C" unicode="&#x248c;" 
d="M805 179v-91h-90v91h90zM429 131q4 0 23.5 2.5t40.5 14t38 36t17 68.5q0 59 -32 87q-20 17 -49.5 23.5t-59.5 7.5t-56.5 -2t-40.5 -5l-46 -7l34 294h273v-72h-209l-16 -138q27 3 56.5 3t58 -5t55 -15.5t47.5 -28.5q57 -50 57 -142q0 -50 -17 -86t-44 -60t-61.5 -35.5
t-68.5 -11.5q-77 0 -129.5 38t-76.5 111l68 23q34 -100 138 -100z" />
    <glyph glyph-name="uni248D" unicode="&#x248d;" 
d="M777 179v-91h-90v91h90zM399 50q-41 0 -77.5 16t-63.5 43.5t-42.5 64.5t-15.5 79q0 31 9 58l-1 1l2 3q8 27 23 48l152 326l65 -31l-97 -208q21 6 46 6q41 0 77 -16t63 -43.5t42.5 -64.5t15.5 -79t-15.5 -79t-42.5 -64.5t-63 -43.5t-77 -16zM399 386q-30 0 -55.5 -13
t-43.5 -35l-26 -57h-1q-1 -7 -2 -13.5t-1 -14.5q0 -27 10 -51.5t27.5 -42.5t41 -28.5t50.5 -10.5t50 10.5t40.5 28.5t27.5 42.5t10 51.5t-10 51.5t-27.5 42.5t-40.5 28.5t-50 10.5z" />
    <glyph glyph-name="uni248E" unicode="&#x248e;" 
d="M647 179h90v-91h-90v91zM544 561h-281v72h386l-221 -580l-67 26z" />
    <glyph glyph-name="uni248F" unicode="&#x248f;" 
d="M817 179v-91h-90v91h90zM231 240q0 52 27 95t72 68q-32 23 -50.5 56.5t-18.5 72.5q0 34 13.5 63.5t37 51.5t55 35t67.5 13t67 -13t54.5 -35t37 -51.5t13.5 -63.5q0 -39 -18 -72t-48 -56q45 -25 72.5 -68t27.5 -96q0 -40 -16 -75t-44 -61t-65 -41t-79 -15t-79.5 15
t-65.5 41t-44 61t-16 75zM434 627q-22 0 -41 -7.5t-33.5 -20.5t-22.5 -30.5t-8 -36.5q0 -20 8 -37t22.5 -29.5t33.5 -20t41 -7.5q21 0 40 7.5t33.5 20t22.5 29.5t8 37q0 19 -8 36.5t-22.5 30.5t-33.5 20.5t-40 7.5zM436 361q-28 0 -52.5 -9.5t-43 -26t-29 -38.5t-10.5 -47
t10.5 -47.5t29 -39t43 -26t52.5 -9.5t52.5 9.5t42.5 26t28.5 39t10.5 47.5t-10.5 47t-28.5 38.5t-42.5 26t-52.5 9.5z" />
    <glyph glyph-name="uni2490" unicode="&#x2490;" 
d="M787 179v-91h-90v91h90zM492 687q42 0 79 -15.5t65 -42t44 -63t16 -78.5q0 -28 -8 -57l2 -1l-7 -14q-4 -12 -11 -26l-153 -339l-64 28l95 212q-25 -8 -57 -10h-5q-42 0 -79 15.5t-64.5 42t-43.5 63t-17 78.5q0 42 15.5 79t43 65t65 45t79.5 18h5zM626 487q0 27 -11 51
t-29 41.5t-42 27.5t-52 10h-3q-28 -1 -53 -12t-43 -29.5t-28.5 -43t-10.5 -51.5t11 -51t29 -41.5t42 -27.5t52 -10h3q38 1 69.5 20t48.5 50l10 22q7 20 7 44z" />
    <glyph glyph-name="uni2491" unicode="&#x2491;" 
d="M877 179v-91h-90v91h90zM574 78q-39 0 -72 23t-58 62.5t-39 93.5t-14 116q0 61 14 114.5t39 93t58 62.5t72 24h3q38 -1 71 -24t57 -62.5t38 -93t14 -114.5q0 -62 -14 -116t-39 -93.5t-58 -62.5t-72 -23zM576 597q-21 0 -41.5 -17t-37 -46.5t-26.5 -70.5t-10 -90
q0 -50 10 -91t26.5 -71t36.5 -46.5t40 -16.5t40.5 16.5t36.5 46.5t26 71t10 91q0 49 -10 90t-25.5 70.5t-35.5 46.5t-40 17zM300 152h90v-70h-276v70h114v417l-99 -18l-13 71l184 33v-503z" />
    <glyph glyph-name="uni2492" unicode="&#x2492;" 
d="M797 179h90v-91h-90v91zM390 152v-70h-276v70h114v417l-99 -18l-13 71l184 33v-503h90zM620 655v-503h90v-70h-276v70h114v417l-99 -18l-13 71z" />
    <glyph glyph-name="uni2493" unicode="&#x2493;" 
d="M917 179v-91h-90v91h90zM555 281q23 30 44 57t38 51.5t28.5 45t15.5 36.5q7 27 3.5 52t-17.5 43q-21 27 -58 27q-44 0 -66 -24q-11 -11 -17 -24.5t-8 -25.5q-3 -14 -3 -29l-72 -3q0 1 0.5 14.5t5 33t14 42t28.5 42.5q43 46 118 46q35 0 64.5 -14t50.5 -41
q24 -31 31 -71.5t-4 -84.5q-11 -45 -49 -98t-91 -119q-15 -20 -31 -40t-33 -42h219v-72h-202h-85l-35 1v52l7 10q26 37 53 71t51 64zM390 82h-276v70h114v417l-99 -18l-13 71l184 33v-503h90v-70z" />
    <glyph glyph-name="uni2494" unicode="&#x2494;" 
d="M897 179v-91h-90v91h90zM598 433q29 -6 58.5 -19t53.5 -34.5t39 -53.5t15 -75q0 -45 -15 -79t-39 -57t-54.5 -34.5t-61.5 -11.5q-146 0 -186 147l67 18q8 -30 20 -48.5t27 -29t33 -14t39 -3.5q18 0 36 6.5t32 20.5t23 35t9 50t-11 49.5t-28 34t-37 20.5t-37 10.5t-29.5 4
t-13.5 0.5h-66l140 211h-161v70h292zM290 152h90v-70h-276v70h114v417l-99 -18l-13 71l184 33v-503z" />
    <glyph glyph-name="uni2495" unicode="&#x2495;" 
d="M807 179h90v-91h-90v91zM676 651v-359h93v-70h-93v-146h-70v146h-238l237 426h1v3h70zM487 292h119v213zM300 655v-503h90v-70h-276v70h114v417l-99 -18l-13 71z" />
    <glyph glyph-name="uni2496" unicode="&#x2496;" 
d="M897 179v-91h-90v91h90zM686 396q58 -48 58 -143q0 -47 -14.5 -83t-38.5 -60.5t-54.5 -37t-61.5 -12.5q-24 0 -50 6t-51 22.5t-46.5 45.5t-34.5 75l67 20q10 -33 24 -52.5t29.5 -30t31.5 -13.5t30 -3t31 5.5t32 19.5t25.5 38t10.5 60q0 61 -33 90q-24 20 -67 25.5
t-100 -4.5l-45 -8l29 293h240v-70h-176l-14 -140q45 4 93.5 -4t84.5 -39zM300 152h90v-70h-276v70h114v417l-99 -18l-13 71l184 33v-503z" />
    <glyph glyph-name="uni2497" unicode="&#x2497;" 
d="M927 179v-91h-90v91h90zM592 444q38 0 72 -15t59 -41.5t39.5 -61.5t14.5 -75t-14.5 -75t-39.5 -61.5t-59 -41.5t-72 -15t-72 15t-59 41.5t-39.5 61.5t-14.5 75q0 15 2 28.5t6 27.5l2 4q3 12 8 22.5t12 21.5l139 307l66 -30l-88 -192q17 4 38 4zM592 128q24 0 44.5 10
t36.5 26.5t25 39t9 47.5t-9 47.5t-25 39.5t-36.5 26.5t-44.5 9.5q-26 0 -48.5 -11.5t-38.5 -31.5l-25 -54q-3 -12 -3 -26q0 -25 9 -47.5t25 -39t36.5 -26.5t44.5 -10zM300 152h90v-70h-276v70h114v417l-99 -18l-13 71l184 33v-503z" />
    <glyph glyph-name="uni2498" unicode="&#x2498;" 
d="M787 179h90v-91h-90v91zM330 655v-503h90v-70h-276v70h114v417l-99 -18l-13 71zM433 579v72h318l-149 -578l-70 18l126 488h-225z" />
    <glyph glyph-name="uni2499" unicode="&#x2499;" 
d="M917 179v-91h-90v91h90zM704 399q42 -23 67 -63.5t25 -89.5q0 -38 -15.5 -70.5t-41.5 -57.5t-61.5 -39t-75.5 -14t-75.5 14t-61.5 39t-41.5 57.5t-15.5 70.5q0 48 25 88t66 64q-29 22 -46 53t-17 69q0 32 13 60t35.5 49t52.5 33t64 12t64 -12t52.5 -33t35.5 -49t13 -60
q0 -37 -17 -68t-45 -53zM601 606q-20 0 -38 -7t-31 -18.5t-20.5 -27t-7.5 -33.5t7.5 -34t20.5 -27.5t31 -18.5t38 -7t37.5 7t31 18.5t21 27.5t7.5 34t-7.5 33.5t-21 27t-31 18.5t-37.5 7zM602 133q26 0 49 9t40 24.5t27 36t10 43.5t-10 43.5t-27 35.5t-40 24t-49 9t-49 -9
t-40 -24t-27 -35.5t-10 -43.5t10 -43.5t27 -36t40 -24.5t49 -9zM300 152h90v-70h-276v70h114v417l-99 -18l-13 71l184 33v-503z" />
    <glyph glyph-name="uni249A" unicode="&#x249a;" 
d="M887 179v-91h-90v91h90zM588 679q38 0 71.5 -15t58 -41t39 -61.5t15.5 -75.5q0 -14 -2 -28t-5 -28l-2 -6q-6 -20 -15 -36l-132 -326l-65 26l83 204q-11 -3 -22 -5t-22 -2h-5q-38 0 -71 15t-58 41t-39.5 61t-14.5 76q0 40 14 76.5t38.5 63.5t58 43.5t71.5 17.5h4zM588 353
q28 1 51.5 15t40.5 37l20 52l1 -1q3 15 3 29q0 27 -9.5 50t-25 40t-36.5 26.5t-45 9.5h-2q-24 -1 -45.5 -11.5t-37.5 -28.5t-24.5 -41.5t-8.5 -50.5t9.5 -50t25 -40t36 -26.5t44.5 -9.5h3zM310 152h90v-70h-276v70h114v417l-99 -18l-13 71l184 33v-503z" />
    <glyph glyph-name="uni249B" unicode="&#x249b;" 
d="M927 179v-91h-90v91h90zM281 237q-15 -20 -31 -40t-33 -42h219v-72h-201h-86l-35 1v52l7 10q26 37 53 71t51 64q23 30 44 57t38 51.5t28.5 45t15.5 36.5q7 27 3.5 52t-17.5 43q-21 27 -58 27q-43 0 -67 -24q-11 -11 -16.5 -24.5t-7.5 -25.5t-2.5 -20.5l-0.5 -8.5l-72 -3
q0 1 0.5 14.5t5 33t14 42t28.5 42.5q43 46 118 46q35 0 64.5 -14t49.5 -41q25 -31 32 -71.5t-4 -84.5q-11 -45 -49 -98t-91 -119zM633 667q37 -1 69 -24t56 -62.5t37.5 -93t13.5 -114.5q0 -62 -14 -116t-38 -93.5t-56.5 -62.5t-70.5 -23t-70.5 23t-56.5 62.5t-38 93.5
t-14 116q0 61 14 114.5t38 93t56.5 62.5t70.5 24h3zM630 148q19 0 38.5 16.5t35.5 46.5t25.5 71t9.5 91q0 49 -9.5 90t-25 70.5t-35 46.5t-38.5 17q-20 0 -39.5 -17t-35 -46.5t-25.5 -70.5t-10 -90q0 -50 9.5 -91t25.5 -71t35 -46.5t39 -16.5z" />
    <glyph glyph-name="SF100000" unicode="&#x2500;" 
d="M1000 319h-1000v51h1000v-51z" />
    <glyph glyph-name="uni2501" unicode="&#x2501;" 
d="M1000 288h-1000v113h1000v-113z" />
    <glyph glyph-name="SF110000" unicode="&#x2502;" 
d="M473 -146v993h50v-993h-50z" />
    <glyph glyph-name="uni2503" unicode="&#x2503;" 
d="M437 -146v993h114v-993h-114z" />
    <glyph glyph-name="uni2504" unicode="&#x2504;" 
d="M273 319h-218v51h218v-51zM945 319h-218v51h218v-51zM609 319h-218v51h218v-51z" />
    <glyph glyph-name="uni2505" unicode="&#x2505;" 
d="M273 288h-218v113h218v-113zM945 288h-218v113h218v-113zM609 288h-218v113h218v-113z" />
    <glyph glyph-name="uni2506" unicode="&#x2506;" 
d="M520 569h-51v223h51v-223zM469 233v223h51v-223h-51zM469 -95v215h51v-215h-51z" />
    <glyph glyph-name="uni2507" unicode="&#x2507;" 
d="M437 569v223h114v-223h-114zM437 233v223h114v-223h-114zM437 -95v215h114v-215h-114z" />
    <glyph glyph-name="uni2508" unicode="&#x2508;" 
d="M203 319h-156v51h156v-51zM953 319h-156v51h156v-51zM703 319h-156v51h156v-51zM453 319h-156v51h156v-51z" />
    <glyph glyph-name="uni2509" unicode="&#x2509;" 
d="M203 288h-156v113h156v-113zM953 288h-156v113h156v-113zM703 288h-156v113h156v-113zM453 288h-156v113h156v-113z" />
    <glyph glyph-name="uni250A" unicode="&#x250a;" 
d="M469 643v157h51v-157h-51zM469 393v157h51v-157h-51zM469 143v157h51v-157h-51zM469 -99v149h51v-149h-51z" />
    <glyph glyph-name="uni250B" unicode="&#x250b;" 
d="M437 643v157h114v-157h-114zM437 393v157h114v-157h-114zM437 143v157h114v-157h-114zM437 -99v149h114v-149h-114z" />
    <glyph glyph-name="SF010000" unicode="&#x250c;" 
d="M473 -146v516h527v-51h-477v-465h-50z" />
    <glyph glyph-name="uni250D" unicode="&#x250d;" 
d="M473 -146v547h527v-113h-477v-434h-50z" />
    <glyph glyph-name="uni250E" unicode="&#x250e;" 
d="M441 -146v516h559v-51h-445v-465h-114z" />
    <glyph glyph-name="uni250F" unicode="&#x250f;" 
d="M441 -146v547h559v-113h-445v-434h-114z" />
    <glyph glyph-name="SF030000" unicode="&#x2510;" 
d="M473 -146v465h-473v51h523v-516h-50z" />
    <glyph glyph-name="uni2511" unicode="&#x2511;" 
d="M473 288h-473v113h523v-547h-50v434z" />
    <glyph glyph-name="uni2512" unicode="&#x2512;" 
d="M441 319h-441v51h555v-516h-114v465z" />
    <glyph glyph-name="uni2513" unicode="&#x2513;" 
d="M441 288h-441v113h555v-547h-114v434z" />
    <glyph glyph-name="SF020000" unicode="&#x2514;" 
d="M473 319v528h50v-477h477v-51h-527z" />
    <glyph glyph-name="uni2515" unicode="&#x2515;" 
d="M473 288v559h50v-446h477v-113h-527z" />
    <glyph glyph-name="uni2516" unicode="&#x2516;" 
d="M441 319v528h114v-477h445v-51h-559z" />
    <glyph glyph-name="uni2517" unicode="&#x2517;" 
d="M441 288v559h114v-446h445v-113h-559z" />
    <glyph glyph-name="SF040000" unicode="&#x2518;" 
d="M523 319h-523v51h473v477h50v-528z" />
    <glyph glyph-name="uni2519" unicode="&#x2519;" 
d="M523 288h-523v113h473v446h50v-559z" />
    <glyph glyph-name="uni251A" unicode="&#x251a;" 
d="M555 319h-555v51h441v477h114v-528z" />
    <glyph glyph-name="uni251B" unicode="&#x251b;" 
d="M555 288h-555v113h441v446h114v-559z" />
    <glyph glyph-name="SF080000" unicode="&#x251c;" 
d="M473 -146v993h50v-477h477v-51h-477v-465h-50z" />
    <glyph glyph-name="uni251D" unicode="&#x251d;" 
d="M473 -146v993h50v-446h477v-113h-477v-434h-50z" />
    <glyph glyph-name="uni251E" unicode="&#x251e;" 
d="M441 350v497h114v-477h445v-51h-477v-465h-50v496h-32z" />
    <glyph glyph-name="uni251F" unicode="&#x251f;" 
d="M473 339v508h50v-477h477v-51h-445v-465h-114v485h32z" />
    <glyph glyph-name="uni2520" unicode="&#x2520;" 
d="M441 -146v993h114v-477h445v-51h-445v-465h-114z" />
    <glyph glyph-name="uni2521" unicode="&#x2521;" 
d="M441 288v559h114v-446h445v-113h-477v-434h-50v434h-32z" />
    <glyph glyph-name="uni2522" unicode="&#x2522;" 
d="M473 401v446h50v-446h477v-113h-445v-434h-114v547h32z" />
    <glyph glyph-name="uni2523" unicode="&#x2523;" 
d="M441 -146v993h114v-446h445v-113h-445v-434h-114z" />
    <glyph glyph-name="SF090000" unicode="&#x2524;" 
d="M473 370v477h50v-993h-50v465h-473v51h473z" />
    <glyph glyph-name="uni2525" unicode="&#x2525;" 
d="M473 401v446h50v-993h-50v434h-473v113h473z" />
    <glyph glyph-name="uni2526" unicode="&#x2526;" 
d="M441 370v477h114v-497h-32v-496h-50v465h-473v51h441z" />
    <glyph glyph-name="uni2527" unicode="&#x2527;" 
d="M473 370v477h50v-508h32v-485h-114v465h-441v51h473z" />
    <glyph glyph-name="uni2528" unicode="&#x2528;" 
d="M441 370v477h114v-993h-114v465h-441v51h441z" />
    <glyph glyph-name="uni2529" unicode="&#x2529;" 
d="M441 401v446h114v-559h-32v-434h-50v434h-473v113h441z" />
    <glyph glyph-name="uni252A" unicode="&#x252a;" 
d="M473 401v446h50v-446h32v-547h-114v434h-441v113h473z" />
    <glyph glyph-name="uni252B" unicode="&#x252b;" 
d="M441 401v446h114v-993h-114v434h-441v113h441z" />
    <glyph glyph-name="SF060000" unicode="&#x252c;" 
d="M473 319h-473v51h1000v-51h-477v-465h-50v465z" />
    <glyph glyph-name="uni252D" unicode="&#x252d;" 
d="M473 288h-473v113h523v-31h477v-51h-477v-469h-50v438z" />
    <glyph glyph-name="uni252E" unicode="&#x252e;" 
d="M473 319h-473v51h473v31h527v-113h-477v-434h-50v465z" />
    <glyph glyph-name="uni252F" unicode="&#x252f;" 
d="M473 288h-473v113h1000v-113h-477v-434h-50v434z" />
    <glyph glyph-name="uni2530" unicode="&#x2530;" 
d="M441 319h-441v51h1000v-51h-445v-465h-114v465z" />
    <glyph glyph-name="uni2531" unicode="&#x2531;" 
d="M441 288h-441v113h555v-31h445v-51h-445v-465h-114v434z" />
    <glyph glyph-name="uni2532" unicode="&#x2532;" 
d="M441 319h-441v51h441v31h559v-113h-445v-434h-114v465z" />
    <glyph glyph-name="uni2533" unicode="&#x2533;" 
d="M441 288h-441v113h1000v-113h-445v-434h-114v434z" />
    <glyph glyph-name="SF070000" unicode="&#x2534;" 
d="M1000 319h-1000v51h473v477h50v-477h477v-51z" />
    <glyph glyph-name="uni2535" unicode="&#x2535;" 
d="M473 401v446h50v-477h477v-51h-477v-31h-523v113h473z" />
    <glyph glyph-name="uni2536" unicode="&#x2536;" 
d="M473 370v477h50v-446h477v-113h-527v31h-473v51h473z" />
    <glyph glyph-name="uni2537" unicode="&#x2537;" 
d="M473 401v446h50v-446h477v-113h-1000v113h473z" />
    <glyph glyph-name="uni2538" unicode="&#x2538;" 
d="M441 370v477h114v-477h445v-51h-1000v51h441z" />
    <glyph glyph-name="uni2539" unicode="&#x2539;" 
d="M441 401v446h114v-477h445v-51h-445v-31h-555v113h441z" />
    <glyph glyph-name="uni253A" unicode="&#x253a;" 
d="M441 370v477h114v-446h445v-113h-559v31h-441v51h441z" />
    <glyph glyph-name="uni253B" unicode="&#x253b;" 
d="M441 401v446h114v-446h445v-113h-1000v113h441z" />
    <glyph glyph-name="SF050000" unicode="&#x253c;" 
d="M473 370v477h50v-477h477v-51h-477v-465h-50v465h-473v51h473z" />
    <glyph glyph-name="uni253D" unicode="&#x253d;" 
d="M473 401v446h50v-477h477v-51h-477v-465h-50v434h-473v113h473z" />
    <glyph glyph-name="uni253E" unicode="&#x253e;" 
d="M473 370v477h50v-446h477v-113h-477v-434h-50v465h-473v51h473z" />
    <glyph glyph-name="uni253F" unicode="&#x253f;" 
d="M473 401v446h50v-446h477v-113h-477v-434h-50v434h-473v113h473z" />
    <glyph glyph-name="uni2540" unicode="&#x2540;" 
d="M441 370v477h114v-477h445v-51h-477v-465h-50v465h-473v51h441z" />
    <glyph glyph-name="uni2541" unicode="&#x2541;" 
d="M473 370v477h50v-477h477v-51h-445v-465h-114v465h-441v51h473z" />
    <glyph glyph-name="uni2542" unicode="&#x2542;" 
d="M441 370v477h114v-477h445v-51h-445v-465h-114v465h-441v51h441z" />
    <glyph glyph-name="uni2543" unicode="&#x2543;" 
d="M441 401v446h114v-477h445v-51h-477v-465h-50v434h-473v113h441z" />
    <glyph glyph-name="uni2544" unicode="&#x2544;" 
d="M441 370v477h114v-446h445v-113h-477v-434h-50v465h-473v51h441z" />
    <glyph glyph-name="uni2545" unicode="&#x2545;" 
d="M473 401v446h50v-477h477v-51h-445v-465h-114v434h-441v113h473z" />
    <glyph glyph-name="uni2546" unicode="&#x2546;" 
d="M473 370v477h50v-446h477v-113h-445v-434h-114v465h-441v51h473z" />
    <glyph glyph-name="uni2547" unicode="&#x2547;" 
d="M441 401v446h114v-446h445v-113h-477v-434h-50v434h-473v113h441z" />
    <glyph glyph-name="uni2548" unicode="&#x2548;" 
d="M473 401v446h50v-446h477v-113h-445v-434h-114v434h-441v113h473z" />
    <glyph glyph-name="uni2549" unicode="&#x2549;" 
d="M441 401v446h114v-477h445v-51h-445v-465h-114v434h-441v113h441z" />
    <glyph glyph-name="uni254A" unicode="&#x254a;" 
d="M441 370v477h114v-446h445v-113h-445v-434h-114v465h-441v51h441z" />
    <glyph glyph-name="uni254B" unicode="&#x254b;" 
d="M441 401v446h114v-446h445v-113h-445v-434h-114v434h-441v113h441z" />
    <glyph glyph-name="SF430000" unicode="&#x2550;" 
d="M0 304v51h1000v-51h-1000zM0 197v51h1000v-51h-1000z" />
    <glyph glyph-name="SF240000" unicode="&#x2551;" 
d="M421 -214v990h51v-990h-51zM526 -214v990h51v-990h-51z" />
    <glyph glyph-name="SF510000" unicode="&#x2552;" 
d="M474 355h526v-51h-476v-56h476v-51h-476v-411h-50v569z" />
    <glyph glyph-name="SF520000" unicode="&#x2553;" 
d="M421 301h579v-52h-423v-463h-51v463h-54v-463h-51v515z" />
    <glyph glyph-name="SF390000" unicode="&#x2554;" 
d="M421 355h579v-51h-528v-518h-51v569zM526 248h474v-51h-423v-411h-51v462z" />
    <glyph glyph-name="SF220000" unicode="&#x2555;" 
d="M0 304v51h524v-569h-50v411h-474v51h474v56h-474z" />
    <glyph glyph-name="SF210000" unicode="&#x2556;" 
d="M0 249v52h577v-515h-51v463h-54v-463h-51v463h-421z" />
    <glyph glyph-name="SF250000" unicode="&#x2557;" 
d="M0 304v51h577v-569h-51v518h-526zM0 197v51h472v-462h-51v411h-421z" />
    <glyph glyph-name="SF500000" unicode="&#x2558;" 
d="M474 776h50v-421h476v-51h-476v-56h476v-51h-526v579z" />
    <glyph glyph-name="SF490000" unicode="&#x2559;" 
d="M526 776h51v-475h423v-52h-579v527h51v-475h54v475z" />
    <glyph glyph-name="SF380000" unicode="&#x255a;" 
d="M421 197v579h51v-528h528v-51h-579zM526 776h51v-421h423v-51h-474v472z" />
    <glyph glyph-name="SF280000" unicode="&#x255b;" 
d="M0 355h474v421h50v-579h-524v51h474v56h-474v51z" />
    <glyph glyph-name="SF270000" unicode="&#x255c;" 
d="M421 301v475h51v-475h54v475h51v-527h-577v52h421z" />
    <glyph glyph-name="SF260000" unicode="&#x255d;" 
d="M526 248v528h51v-579h-577v51h526zM421 355v421h51v-472h-472v51h421z" />
    <glyph glyph-name="SF360000" unicode="&#x255e;" 
d="M474 776h50v-421h476v-51h-476v-56h476v-51h-476v-411h-50v990z" />
    <glyph glyph-name="SF370000" unicode="&#x255f;" 
d="M526 -214v990h51v-475h423v-52h-423v-463h-51zM421 -214v990h51v-990h-51z" />
    <glyph glyph-name="SF420000" unicode="&#x2560;" 
d="M421 -214v990h51v-990h-51zM526 776h51v-421h423v-51h-474v472zM526 248h474v-51h-423v-411h-51v462z" />
    <glyph glyph-name="SF190000" unicode="&#x2561;" 
d="M474 776h50v-990h-50v411h-474v51h474v56h-474v51h474v421z" />
    <glyph glyph-name="SF200000" unicode="&#x2562;" 
d="M421 301v475h51v-990h-51v463h-421v52h421zM526 -214v990h51v-990h-51z" />
    <glyph glyph-name="SF230000" unicode="&#x2563;" 
d="M526 -214v990h51v-990h-51zM421 355v421h51v-472h-472v51h421zM0 197v51h472v-462h-51v411h-421z" />
    <glyph glyph-name="SF470000" unicode="&#x2564;" 
d="M0 197v51h1000v-51h-476v-411h-50v411h-474zM0 304v51h1000v-51h-1000z" />
    <glyph glyph-name="SF480000" unicode="&#x2565;" 
d="M0 249v52h1000v-52h-423v-463h-51v463h-54v-463h-51v463h-421z" />
    <glyph glyph-name="SF410000" unicode="&#x2566;" 
d="M0 304v51h1000v-51h-1000zM526 248h474v-51h-423v-411h-51v462zM0 197v51h472v-462h-51v411h-421z" />
    <glyph glyph-name="SF450000" unicode="&#x2567;" 
d="M1000 304h-1000v51h474v421h50v-421h476v-51zM0 197v51h1000v-51h-1000z" />
    <glyph glyph-name="SF460000" unicode="&#x2568;" 
d="M0 249v52h421v475h51v-475h54v475h51v-475h423v-52h-1000z" />
    <glyph glyph-name="SF400000" unicode="&#x2569;" 
d="M0 197v51h1000v-51h-1000zM526 776h51v-421h423v-51h-474v472zM421 355v421h51v-472h-472v51h421z" />
    <glyph glyph-name="SF540000" unicode="&#x256a;" 
d="M0 197v51h474v56h-474v51h474v421h50v-421h476v-51h-476v-56h476v-51h-476v-411h-50v411h-474z" />
    <glyph glyph-name="SF530000" unicode="&#x256b;" 
d="M421 301v475h51v-475h54v475h51v-475h423v-52h-423v-463h-51v463h-54v-463h-51v463h-421v52h421z" />
    <glyph glyph-name="SF440000" unicode="&#x256c;" 
d="M526 776h51v-421h423v-51h-474v472zM421 355v421h51v-472h-472v51h421zM526 248h474v-51h-423v-411h-51v462zM0 197v51h472v-462h-51v411h-421z" />
    <glyph glyph-name="uni256D" unicode="&#x256d;" 
d="M1000 312q-438 -41 -478 -466h-33q44 456 511 499v-33z" />
    <glyph glyph-name="uni256E" unicode="&#x256e;" 
d="M0 345q466 -43 510 -499h-33q-41 426 -477 466v33z" />
    <glyph glyph-name="uni256F" unicode="&#x256f;" 
d="M510 836q-44 -467 -510 -510v32q437 41 477 478h33z" />
    <glyph glyph-name="uni2570" unicode="&#x2570;" 
d="M1000 326q-467 43 -511 510h33q40 -437 478 -478v-32z" />
    <glyph glyph-name="uni2571" unicode="&#x2571;" 
d="M54 -81l861 855l31 -21l-861 -857z" />
    <glyph glyph-name="uni2572" unicode="&#x2572;" 
d="M4 807l26 29l961 -951l-26 -29z" />
    <glyph glyph-name="uni2573" unicode="&#x2573;" 
d="M4 807l26 29l470 -469l465 469l26 -29l-465 -468l465 -454l-26 -29l-465 451l-470 -451l-26 29l469 451z" />
    <glyph glyph-name="uni2581" unicode="&#x2581;" 
d="M1000 -147h-1000v116h1000v-116z" />
    <glyph glyph-name="uni2582" unicode="&#x2582;" 
d="M1000 -149h-1000v231h1000v-231z" />
    <glyph glyph-name="uni2583" unicode="&#x2583;" 
d="M995 -148h-995v356h995v-356z" />
    <glyph glyph-name="dnblock" unicode="&#x2584;" 
d="M995 -150h-995v481h995v-481z" />
    <glyph glyph-name="uni2585" unicode="&#x2585;" 
d="M995 -149h-995v606h995v-606z" />
    <glyph glyph-name="uni2586" unicode="&#x2586;" 
d="M1000 -147h-1000v730h1000v-730z" />
    <glyph glyph-name="uni2587" unicode="&#x2587;" 
d="M1000 -150h-1000v857h1000v-857z" />
    <glyph glyph-name="block" unicode="&#x2588;" 
d="M1000 -148h-1000v990h1000v-990z" />
    <glyph glyph-name="uni2589" unicode="&#x2589;" 
d="M0 828h866v-990h-866v990z" />
    <glyph glyph-name="uni258A" unicode="&#x258a;" 
d="M0 828h745v-990h-745v990z" />
    <glyph glyph-name="uni258B" unicode="&#x258b;" 
d="M0 828h625v-990h-625v990z" />
    <glyph glyph-name="lfblock" unicode="&#x258c;" 
d="M0 828h500v-990h-500v990z" />
    <glyph glyph-name="uni258D" unicode="&#x258d;" 
d="M0 828h375v-990h-375v990z" />
    <glyph glyph-name="uni258E" unicode="&#x258e;" 
d="M0 828h250v-990h-250v990z" />
    <glyph glyph-name="uni258F" unicode="&#x258f;" 
d="M0 828h125v-990h-125v990z" />
    <glyph glyph-name="dkshade" unicode="&#x2593;" 
d="M1000 828v-990h-1000v990h1000zM292 429h99v67h-99v-67zM292 164h99v67h-99v-67zM504 429h98v67h-98v-67zM608 296h98v67h-98v-67zM504 164h98v67h-98v-67zM397 296h98v67h-98v-67zM815 296h98v67h-98v-67zM292 -95h99v65h-99v-65zM188 296h96v67h-96v-67zM84 429h96v67
h-96v-67zM84 164h96v67h-96v-67zM719 429h96v67h-96v-67zM719 164h96v67h-96v-67zM397 32h98v65h-98v-65zM397 563h98v65h-98v-65zM608 563h98v65h-98v-65zM815 32h98v65h-98v-65zM504 -95h98v65h-98v-65zM608 32h98v65h-98v-65zM815 563h98v65h-98v-65zM292 695h99v64h-99
v-64zM84 -95h96v66h-96v-66zM504 695h98v64h-98v-64zM188 563h96v65h-96v-65zM187 32h96v65h-96v-65zM719 -95h96v65h-96v-65zM719 695h96v64h-96v-64zM84 695h96v64h-96v-64z" />
    <glyph glyph-name="uni2594" unicode="&#x2594;" 
d="M0 707v121h1000v-121h-1000z" />
    <glyph glyph-name="uni2595" unicode="&#x2595;" 
d="M879 828h121v-990h-121v990z" />
    <glyph glyph-name="filledbox" unicode="&#x25a0;" 
d="M102 789h796v-789h-796v789z" />
    <glyph glyph-name="H22073" unicode="&#x25a1;" 
d="M102 789h796v-789h-796v789zM855 43v703h-710v-703h710z" />
    <glyph glyph-name="triagup" unicode="&#x25b2;" 
d="M863 55h-726l363 734z" />
    <glyph glyph-name="uni25B3" unicode="&#x25b3;" 
d="M863 55h-726l363 734zM500 696l-297 -598h594z" />
    <glyph glyph-name="triagdn" unicode="&#x25bc;" 
d="M863 789l-363 -734l-363 734h726z" />
    <glyph glyph-name="uni25BD" unicode="&#x25bd;" 
d="M863 789l-363 -734l-363 734h726zM797 746h-594l297 -598z" />
    <glyph glyph-name="uni25C6" unicode="&#x25c6;" 
d="M500 797l375 -375l-375 -367l-375 367z" />
    <glyph glyph-name="uni25C7" unicode="&#x25c7;" 
d="M500 797l375 -375l-375 -367l-375 367zM500 739l-316 -317l316 -316l316 316z" />
    <glyph glyph-name="circle" unicode="&#x25cb;" 
d="M140 413q0 75 28.5 141t77.5 115.5t115 78t141 28.5t141 -28.5t115.5 -78t78 -115.5t28.5 -141t-28.5 -141t-78 -115t-115.5 -77.5t-141 -28.5t-141 28.5t-115 77.5t-77.5 115t-28.5 141zM179 414q0 -67 25.5 -125.5t69 -102t102 -69t125.5 -25.5t125.5 25.5t102 69
t69 102t25.5 125.5t-25.5 125.5t-69 102t-102 69t-125.5 25.5t-125.5 -25.5t-102 -69t-69 -102t-25.5 -125.5z" />
    <glyph glyph-name="uni25CE" unicode="&#x25ce;" 
d="M135 411q0 75 28.5 141.5t78 116t116 78.5t141.5 29t142 -29t116.5 -78.5t78.5 -116t29 -141.5t-29 -141.5t-78.5 -116t-116.5 -78t-142 -28.5t-141.5 28.5t-116 78t-78 116t-28.5 141.5zM164 412q0 -70 26.5 -131.5t72.5 -107.5t107.5 -72.5t131.5 -26.5t131.5 26.5
t107.5 72.5t72.5 107.5t26.5 131.5t-26.5 131.5t-72.5 107.5t-107.5 72.5t-131.5 26.5t-131.5 -26.5t-107.5 -72.5t-72.5 -107.5t-26.5 -131.5zM245 412q0 53 20 99.5t55 81.5t81 55t99 20t99.5 -20t81.5 -55t55 -81.5t20 -99.5t-20 -99t-55 -81t-81.5 -55t-99.5 -20t-99 20
t-81 55t-55 81t-20 99zM276 411q0 -47 17.5 -88t48.5 -72t72 -48.5t88 -17.5t88.5 17.5t72 48.5t48.5 72t18 88t-18 88.5t-48.5 72t-72 48.5t-88.5 18t-88 -18t-72 -48.5t-48.5 -72t-17.5 -88.5z" />
    <glyph glyph-name="H18533" unicode="&#x25cf;" 
d="M140 415q0 75 28.5 141t77.5 115t115 77.5t141 28.5t141 -28.5t115 -77.5t77.5 -115t28.5 -141t-28.5 -141t-77.5 -115t-115 -77.5t-141 -28.5t-141 28.5t-115 77.5t-77.5 115t-28.5 141z" />
    <glyph glyph-name="uni25E2" unicode="&#x25e2;" 
d="M898 789v-789h-796z" />
    <glyph glyph-name="uni25E3" unicode="&#x25e3;" 
d="M102 789l796 -789h-796v789z" />
    <glyph glyph-name="uni25E4" unicode="&#x25e4;" 
d="M102 0v789h796z" />
    <glyph glyph-name="uni25E5" unicode="&#x25e5;" 
d="M898 0l-796 789h796v-789z" />
    <glyph glyph-name="uni2605" unicode="&#x2605;" 
d="M406 481l94 273l94 -273h277l-226 -172l82 -262l-227 153l-227 -153l82 262l-226 172h277z" />
    <glyph glyph-name="uni2606" unicode="&#x2606;" 
d="M406 481l94 273l94 -273h277l-226 -172l82 -262l-227 156l-227 -156l79 262l-223 172h277zM320 106l4 -4l176 133l176 -129l4 4l-71 211l180 132h-223l-66 215h-4l-66 -215h-219l176 -132z" />
    <glyph glyph-name="uni2609" unicode="&#x2609;" 
d="M500 352q-51 8 -59 58q7 54 59 59q55 -4 59 -59q-5 -51 -59 -58zM500 90q293 27 320 320q-27 296 -320 325q-293 -29 -320 -325q27 -293 320 -320zM500 774q331 -31 363 -364q-31 -328 -363 -355q-332 27 -363 355q32 333 363 364z" />
    <glyph glyph-name="female" unicode="&#x2640;" 
d="M328 129v47h149v164q-183 34 -200 219q20 203 223 223q203 -20 223 -223q-17 -185 -200 -219v-164h149v-47h-149v-113h-46v113h-149zM324 559q12 -164 176 -176q164 12 176 176q-12 164 -176 176q-164 -12 -176 -176z" />
    <glyph glyph-name="male" unicode="&#x2642;" 
d="M316 610q130 91 176 168h20q35 -63 152 -149q12 -12 20 -15l-8 -24q-86 34 -153 102v-239q183 -34 200 -218q-16 -196 -223 -215q-207 19 -223 215q17 184 200 218v235q-34 -29 -70.5 -53.5t-78.5 -44.5zM324 235q17 -164 176 -180q159 16 176 180q-16 160 -176 175
q-160 -15 -176 -175z" />
    <glyph glyph-name="uni2FF0" unicode="&#x2ff0;" 
d="M836 -48v31h35v35h33v-66h-68zM904 695h-33v34h-35v31h68v-65zM95 18h30v-35h36v-31h-66v66zM161 760v-31h-36v-34h-30v65h66zM871 550h33v-68h-33v68zM871 55v68h33v-68h-33zM871 656h33v-68h-33v68zM483 323v67h33v-67h-33zM871 162v67h33v-67h-33zM483 220v66h33v-66
h-33zM483 428v66h33v-66h-33zM871 270v65h33v-65h-33zM483 10v65h33v-65h-33zM483 116v64h33v-64h-33zM871 441h33v-64h-33v64zM483 639v64h33v-64h-33zM305 760h68v-31h-68v31zM199 760h68v-31h-68v31zM305 -48v31h68v-31h-68zM800 -48h-68v31h68v-31zM800 760v-31h-68v31
h68zM199 -48v31h68v-31h-68zM483 534v63h33v-63h-33zM693 760v-31h-67v31h67zM693 -48h-67v31h67v-31zM413 760h66v-31h-66v31zM413 -48v31h66v-31h-66zM125 550v-68h-30v68h30zM125 656v-68h-30v68h30zM125 55h-30v68h30v-68zM585 -48h-65v31h65v-31zM585 760v-31h-65v31
h65zM125 162h-30v67h30v-67zM125 270h-30v65h30v-65zM125 441v-64h-30v64h30z" />
    <glyph glyph-name="uni2FF1" unicode="&#x2ff1;" 
d="M904 691h-31v36h-36v32h67v-68zM837 -49v31h36v36h31v-67h-67zM157 759v-32h-30v-36h-32v68h62zM95 18h32v-36h30v-31h-62v67zM693 727h-70v32h70v-32zM781 371h67v-33h-67v33zM95 162v69h32v-69h-32zM693 -18v-31h-70v31h70zM154 371h65v-33h-65v33zM677 371h65v-33h-65
v33zM904 162h-31v69h31v-69zM468 371h64v-33h-64v33zM95 56v65h32v-65h-32zM95 547h32v-65h-32v65zM798 727h-65v32h65v-32zM95 654h32v-65h-32v65zM414 727v32h65v-32h-65zM200 727v32h65v-32h-65zM260 371h63v-33h-63v33zM95 269v64h32v-64h-32zM95 440h32v-64h-32v64z
M308 727v32h64v-32h-64zM364 371h62v-33h-62v33zM573 371h62v-33h-62v33zM585 727h-63v32h63v-32zM904 56h-31v65h31v-65zM798 -18v-31h-65v31h65zM904 654v-65h-31v65h31zM414 -18h65v-31h-65v31zM904 547v-65h-31v65h31zM200 -18h65v-31h-65v31zM904 269h-31v64h31v-64z
M904 440v-64h-31v64h31zM308 -18h64v-31h-64v31zM585 -18v-31h-63v31h63z" />
    <glyph glyph-name="uni2FF2" unicode="&#x2ff2;" 
d="M99 16h33v-32h33v-32h-66v64zM165 752v-31h-33v-32h-33v63h66zM837 -48v32h33v32h31v-64h-64zM901 689h-31v32h-33v31h64v-63zM132 648v-66h-33v66h33zM132 543v-66h-33v66h33zM132 161h-33v66h33v-66zM132 266h-33v66h33v-66zM132 56h-33v66h33v-66zM132 437v-65h-33v65
h33zM797 -48h-66v32h66v-32zM587 -48h-66v32h66v-32zM692 -48h-66v32h66v-32zM415 -48v32h65v-32h-65zM311 -48v32h65v-32h-65zM205 -48v32h65v-32h-65zM613 631v64h32v-64h-32zM613 320v64h32v-64h-32zM613 527v64h32v-64h-32zM870 266v66h31v-66h-31zM587 752v-31h-66v31
h66zM797 752v-31h-66v31h66zM870 161v66h31v-66h-31zM692 752v-31h-66v31h66zM870 543h31v-66h-31v66zM870 56v66h31v-66h-31zM870 648h31v-66h-31v66zM613 425v63h32v-63h-32zM613 114v63h32v-63h-32zM613 218v63h32v-63h-32zM415 752h65v-31h-65v31zM311 752h65v-31h-65
v31zM870 437h31v-65h-31v65zM205 752h65v-31h-65v31zM613 12v62h32v-62h-32zM356 320v64h31v-64h-31zM356 631v64h31v-64h-31zM356 527v64h31v-64h-31zM356 425v63h31v-63h-31zM356 114v63h31v-63h-31zM356 218v63h31v-63h-31zM356 12v62h31v-62h-31z" />
    <glyph glyph-name="uni2FF3" unicode="&#x2ff3;" 
d="M889 696h-30v32h-34v31h64v-63zM174 759v-31h-33v-32h-30v63h63zM825 -18v30h34v32h30v-62h-64zM111 44h30v-32h33v-30h-63v62zM583 728h-64v31h64v-31zM788 728h-64v31h64v-31zM685 728h-64v31h64v-31zM212 728v31h64v-31h-64zM314 728v31h63v-31h-63zM417 728v31h63
v-31h-63zM889 555v-64h-30v64h30zM111 82v64h30v-64h-30zM889 658v-64h-30v64h30zM111 555h30v-64h-30v64zM111 658h30v-64h-30v64zM889 82h-30v64h30v-64zM212 12h64v-30h-64v30zM583 12v-30h-64v30h64zM685 12v-30h-64v30h64zM788 12v-30h-64v30h64zM770 511h63v-30h-63
v30zM368 260h63v-30h-63v30zM889 453v-63h-30v63h30zM111 287v63h30v-63h-30zM368 511h63v-30h-63v30zM111 453h30v-63h-30v63zM417 12h63v-30h-63v30zM889 287h-30v63h30v-63zM167 260h63v-30h-63v30zM167 511h63v-30h-63v30zM111 185v63h30v-63h-30zM770 260h63v-30h-63
v30zM889 185h-30v63h30v-63zM314 12h63v-30h-63v30zM570 511h62v-30h-62v30zM268 260h62v-30h-62v30zM570 260h62v-30h-62v30zM268 511h62v-30h-62v30zM671 511h61v-30h-61v30zM671 260h61v-30h-61v30zM470 260h60v-30h-60v30zM470 511h60v-30h-60v30z" />
    <glyph glyph-name="uni2FF4" unicode="&#x2ff4;" 
d="M892 694h-31v33h-33v30h64v-63zM171 757v-30h-32v-33h-31v63h63zM828 -25v30h33v32h31v-62h-64zM108 37h31v-32h32v-30h-63v62zM370 560v-28h-37v-37h-28v65h65zM305 235h28v-36h37v-28h-65v64zM694 495h-26v37h-38v28h64v-65zM630 171v28h38v36h26v-64h-64zM861 282v65
h31v-65h-31zM139 449v-65h-31v65h31zM861 449h31v-65h-31v65zM139 282h-31v65h31v-65zM139 553v-64h-31v64h31zM861 178v64h31v-64h-31zM139 178h-31v64h31v-64zM861 553h31v-64h-31v64zM139 654v-63h-31v63h31zM861 654h31v-63h-31v63zM139 76h-31v63h31v-63zM861 76v63h31
v-63h-31zM416 757h64v-30h-64v30zM211 757h64v-30h-64v30zM416 -25v30h64v-30h-64zM583 -25h-64v30h64v-30zM211 -25v30h64v-30h-64zM687 -25h-64v30h64v-30zM687 757v-30h-64v30h64zM583 757v-30h-64v30h64zM789 -25h-63v30h63v-30zM313 757h63v-30h-63v30zM789 757v-30
h-63v30h63zM313 -25v30h63v-30h-63zM521 171v28h67v-28h-67zM521 560h67v-28h-67v28zM333 387h-28v66h28v-66zM333 278h-28v66h28v-66zM413 171v28h65v-28h-65zM413 560h65v-28h-65v28zM668 278v66h26v-66h-26zM668 387v66h26v-66h-26z" />
    <glyph glyph-name="uni2FF5" unicode="&#x2ff5;" 
d="M622 -21v31h33v32h31v-63h-64zM686 491h-31v32h-33v31h64v-63zM111 41h31v-31h32v-31h-63v62zM315 42h30v-32h33v-31h-63v63zM378 554v-31h-33v-32h-30v63h63zM174 757v-30h-32v-33h-31v63h63zM826 -21v31h33v31h30v-62h-63zM889 694h-30v33h-33v30h63v-63zM416 554h65
v-31h-65v31zM142 452v-65h-31v65h31zM655 248h31v-65h-31v65zM416 -21v31h65v-31h-65zM212 -21v31h65v-31h-65zM142 182h-31v65h31v-65zM655 81v64h31v-64h-31zM584 -21h-64v31h64v-31zM788 -21h-64v31h64v-31zM142 554v-64h-31v64h31zM142 656v-64h-31v64h31zM655 452h31
v-64h-31v64zM142 284h-31v64h31v-64zM142 80h-31v64h31v-64zM584 554v-31h-64v31h64zM655 286v63h31v-63h-31zM345 248v-65h-30v65h30zM416 757h65v-30h-65v30zM212 757h65v-30h-65v30zM859 452h30v-65h-30v65zM859 182v65h30v-65h-30zM859 284v64h30v-64h-30zM584 757v-30
h-64v30h64zM788 757v-30h-64v30h64zM345 452v-64h-30v64h30zM859 554h30v-64h-30v64zM686 757v-30h-64v30h64zM345 81h-30v64h30v-64zM859 80v64h30v-64h-30zM859 656h30v-64h-30v64zM315 757h63v-30h-63v30zM345 286h-30v63h30v-63z" />
    <glyph glyph-name="uni2FF6" unicode="&#x2ff6;" 
d="M375 756v-31h-36v-36h-31v67h67zM691 689h-31v36h-33v31h64v-67zM308 226h31v-33h36v-31h-67v64zM902 691h-31v34h-34v31h65v-65zM161 756v-31h-33v-34h-31v65h64zM837 -48v31h34v33h31v-64h-65zM97 16h31v-33h33v-31h-64v64zM627 162v31h33v33h31v-64h-64zM339 478h-31
v67h31v-67zM413 -48v31h67v-31h-67zM660 266v67h31v-67h-31zM308 -48v31h67v-31h-67zM413 162v31h67v-31h-67zM128 267h-31v67h31v-67zM660 478v67h31v-67h-31zM660 651h31v-67h-31v67zM128 162h-31v67h31v-67zM339 651v-67h-31v67h31zM413 756h67v-31h-67v31zM128 545v-67
h-31v67h31zM871 267v67h31v-67h-31zM871 162v67h31v-67h-31zM339 266h-31v67h31v-67zM871 545h31v-67h-31v67zM871 652h31v-66h-31v66zM798 756v-31h-66v31h66zM585 -48h-66v31h66v-31zM585 756v-31h-66v31h66zM201 756h66v-31h-66v31zM128 439v-66h-31v66h31zM798 -48h-66
v31h66v-31zM201 -48v31h66v-31h-66zM871 55v66h31v-66h-31zM339 438v-66h-31v66h31zM128 652v-66h-31v66h31zM128 55h-31v66h31v-66zM871 439h31v-66h-31v66zM660 438h31v-66h-31v66zM585 162h-66v31h66v-31zM691 -48h-64v31h64v-31z" />
    <glyph glyph-name="uni2FF7" unicode="&#x2ff7;" 
d="M827 176v32h34v32h30v-64h-64zM313 240h30v-32h33v-32h-63v64zM891 485h-30v34h-34v30h64v-64zM108 34h31v-31h32v-31h-63v62zM171 754v-30h-32v-33h-31v63h63zM376 549v-30h-33v-34h-30v64h63zM828 -28v31h33v31h30v-62h-63zM891 691h-30v33h-33v30h63v-63zM583 208v-32
h-65v32h65zM789 208v-32h-65v32h65zM621 208h64v-32h-64v32zM415 208h64v-32h-64v32zM790 3v-31h-65v31h65zM108 73v65h31v-65h-31zM210 3h65v-31h-65v31zM108 653h31v-65h-31v65zM686 3v-31h-64v31h64zM108 549h31v-64h-31v64zM108 279v64h31v-64h-31zM108 176v64h31v-64
h-31zM416 3h64v-31h-64v31zM313 3h64v-31h-64v31zM108 446h31v-63h-31v63zM583 3v-31h-63v31h63zM891 73h-30v65h30v-65zM583 519h-65v30h65v-30zM210 724v30h65v-30h-65zM789 519h-65v30h65v-30zM891 653v-65h-30v65h30zM790 724h-65v30h65v-30zM415 519v30h64v-30h-64z
M686 724h-64v30h64v-30zM313 279v64h30v-64h-30zM891 279h-30v64h30v-64zM416 724v30h64v-30h-64zM313 724v30h64v-30h-64zM621 519v30h64v-30h-64zM313 446h30v-63h-30v63zM891 446v-63h-30v63h30zM583 724h-63v30h63v-30z" />
    <glyph glyph-name="uni2FF8" unicode="&#x2ff8;" 
d="M894 693h-31v32h-33v31h64v-63zM169 756v-31h-32v-32h-31v63h63zM830 -30v30h33v32h31v-62h-64zM106 32h31v-32h32v-30h-63v62zM353 570v-31h-30v-29h-30v60h60zM137 551v-66h-31v66h31zM863 551h31v-66h-31v66zM863 278v65h31v-65h-31zM416 756h65v-31h-65v31zM209 756
h65v-31h-65v31zM584 756v-31h-65v31h65zM688 756v-31h-65v31h65zM137 278h-31v65h31v-65zM137 175h-31v64h31v-64zM313 756h64v-31h-64v31zM137 446v-64h-31v64h31zM863 175v64h31v-64h-31zM790 756v-31h-64v31h64zM863 446h31v-64h-31v64zM137 72h-31v64h31v-64zM863 72v64
h31v-64h-31zM137 653v-63h-31v63h31zM863 653h31v-63h-31v63zM416 -30v30h65v-30h-65zM584 -30h-65v30h65v-30zM209 -30v30h65v-30h-65zM688 -30h-65v30h65v-30zM790 -30h-64v30h64v-30zM313 -30v30h64v-30h-64zM742 570v-31h-61v31h61zM838 570v-31h-60v31h60zM584 570h59
v-31h-59v31zM488 570h59v-31h-59v31zM390 570h59v-31h-59v31zM323 122h-30v60h30v-60zM323 473v-60h-30v60h30zM323 25h-30v60h30v-60zM323 376v-60h-30v60h30zM323 278v-59h-30v59h30z" />
    <glyph glyph-name="uni2FF9" unicode="&#x2ff9;" 
d="M833 -40v31h33v33h32v-64h-65zM898 691h-32v33h-33v31h65v-64zM101 24h32v-33h32v-31h-64v64zM165 755v-31h-32v-33h-32v64h64zM709 507h-32v29h-29v31h61v-60zM133 272h-32v65h32v-65zM866 442h32v-65h-32v65zM866 652h32v-65h-32v65zM866 272v65h32v-65h-32zM133 62
h-32v65h32v-65zM866 167v65h32v-65h-32zM133 442v-65h-32v65h32zM866 62v65h32v-65h-32zM133 652v-65h-32v65h32zM133 167h-32v65h32v-65zM866 546h32v-64h-32v64zM133 546v-64h-32v64h32zM585 755v-31h-66v31h66zM585 -40h-66v31h66v-31zM204 -40v31h66v-31h-66zM204 755
h66v-31h-66v31zM414 755h65v-31h-65v31zM794 755v-31h-65v31h65zM414 -40v31h65v-31h-65zM689 755v-31h-65v31h65zM310 -40v31h65v-31h-65zM689 -40h-65v31h65v-31zM794 -40h-65v31h65v-31zM310 755h65v-31h-65v31zM677 16v61h32v-61h-32zM677 113v61h32v-61h-32zM677 272
h32v-60h-32v60zM513 567v-31h-61v31h61zM157 567h61v-31h-61v31zM677 468h32v-59h-32v59zM677 370h32v-59h-32v59zM256 567h60v-31h-60v31zM611 567v-31h-60v31h60zM414 567v-31h-60v31h60z" />
    <glyph glyph-name="uni2FFA" unicode="&#x2ffa;" 
d="M832 -39v31h34v33h31v-64h-65zM103 25h31v-33h33v-31h-64v64zM897 690h-31v34h-34v30h65v-64zM167 754v-30h-33v-34h-31v64h64zM291 208h31v-29h29v-30h-60v59zM585 -39h-66v31h66v-31zM866 442h31v-65h-31v65zM415 -39v31h65v-31h-65zM206 -39v31h65v-31h-65zM134 651
v-65h-31v65h31zM134 273h-31v65h31v-65zM134 64h-31v65h31v-65zM134 168h-31v65h31v-65zM134 442v-65h-31v65h31zM866 273v65h31v-65h-31zM866 168v65h31v-65h-31zM866 64v65h31v-65h-31zM866 651h31v-65h-31v65zM311 -39v31h64v-31h-64zM688 -39h-64v31h64v-31zM793 -39
h-64v31h64v-31zM134 546v-64h-31v64h31zM866 546h31v-64h-31v64zM585 754v-30h-66v30h66zM415 754h65v-30h-65v30zM206 754h65v-30h-65v30zM793 754v-30h-64v30h64zM311 754h64v-30h-64v30zM688 754v-30h-64v30h64zM322 698v-61h-31v61h31zM322 442h-31v60h31v-60zM322 600
v-60h-31v60h31zM322 344h-31v60h31v-60zM841 149h-61v30h61v-30zM322 247h-31v59h31v-59zM585 149v30h60v-30h-60zM389 149v30h60v-30h-60zM743 149h-60v30h60v-30zM487 149v30h60v-30h-60z" />
    <glyph glyph-name="uni2FFB" unicode="&#x2ffb;" 
d="M647 140v31h39v38h31v-69h-70zM352 574v-30h-38v-39h-31v69h69zM717 689h-31v35h-39v30h70v-65zM103 209h31v-38h33v-31h-64v69zM283 25h31v-33h38v-31h-69v64zM897 505h-31v39h-34v30h65v-69zM832 -39v31h34v33h31v-64h-65zM167 754v-30h-33v-35h-31v65h64zM134 648v-69
h-31v69h31zM572 -39h-68v31h68v-31zM686 360v68h31v-68h-31zM681 -39h-68v31h68v-31zM866 285v68h31v-68h-31zM686 251v68h31v-68h-31zM314 464v-68h-31v68h31zM791 -39h-68v31h68v-31zM134 360h-31v68h31v-68zM134 251h-31v68h31v-68zM866 176v68h31v-68h-31zM866 464h31
v-68h-31v68zM314 285h-31v68h31v-68zM496 140h-67v31h67v-31zM606 140h-67v31h67v-31zM394 -39v31h67v-31h-67zM866 67v67h31v-67h-31zM134 470h-31v67h31v-67zM209 754h68v-30h-68v30zM572 574v-30h-68v30h68zM394 574h67v-30h-67v30zM606 754v-30h-67v30h67zM496 754v-30
h-67v30h67zM387 754v-30h-67v30h67zM686 648h31v-64h-31v64zM314 180h-31v64h31v-64zM387 140h-64v31h64v-31zM314 67h-31v64h31v-64zM686 470v64h31v-64h-31zM209 140v31h64v-31h-64zM677 574v-30h-64v30h64zM791 574v-30h-64v30h64z" />
    <glyph glyph-name="uni3000" unicode="&#x3000;" 
 />
    <glyph glyph-name="uni3001" unicode="&#x3001;" 
d="M246 -9l-106 157l62 41l105 -157z" />
    <glyph glyph-name="uni3002" unicode="&#x3002;" 
d="M259 217q42 -2 70.5 -31t28.5 -71q0 -21 -8 -40t-22 -33t-33 -22t-40 -8t-39.5 8t-32.5 22t-22 33t-8 40q0 20 8 38.5t22 32t32.5 22t39.5 9.5h4zM255 72q18 0 30.5 12.5t12.5 30.5q0 17 -12 29t-29 13q-18 -1 -31 -13t-13 -29q0 -18 12.5 -30.5t29.5 -12.5z" />
    <glyph glyph-name="uni3003" unicode="&#x3003;" 
d="M260 193l149 393l70 -27l-149 -393zM539 146l-70 27l149 392l70 -26z" />
    <glyph glyph-name="uni3005" unicode="&#x3005;" 
d="M438 500h328v-51l-163 -307l85 -52l-38 -62l-257 159l38 61l111 -68l132 248h-276l-84 -150l-63 34l210 378l63 -34z" />
    <glyph glyph-name="uni3006" unicode="&#x3006;" 
d="M814 627q-2 -3 -15 -27t-34 -61t-47.5 -83t-54.5 -93q37 -32 62.5 -58t31.5 -33l-54 -48q-12 14 -32.5 34t-45.5 42q-26 -42 -51 -78.5t-46 -62.5q-17 -21 -38 -40.5t-44.5 -34t-47.5 -23t-47 -8.5q-20 0 -38 6q-91 34 -83 211q5 111 65 164q56 51 156 43
q38 -3 77.5 -22.5t77.5 -46.5q28 46 54 91.5t46 81t32 57.5t12 23zM472 205q20 25 45 61.5t51 79.5q-32 24 -64 40.5t-58 18.5q-5 1 -10 1h-10q-54 0 -83 -26q-38 -32 -41 -114q-3 -58 6.5 -94.5t29.5 -44.5q12 -5 28 -1t34 14.5t36.5 27t35.5 37.5z" />
    <glyph glyph-name="uni3007" unicode="&#x3007;" 
d="M480 673q61 -1 114 -25.5t93 -66.5t63 -98t23 -119q0 -64 -23.5 -120.5t-64 -98.5t-95 -66t-115.5 -24q-62 0 -116.5 24t-95 66t-64 98.5t-23.5 120.5q0 63 23.5 119t64 98t95 66.5t116.5 25.5v1h5v-1zM475 128q46 0 87 18.5t72 50.5t48.5 75t17.5 92t-17.5 91.5t-48 75
t-71 51t-86.5 19.5q-47 -1 -88.5 -19.5t-72.5 -51t-49 -75t-18 -91.5t17.5 -92t48.5 -75t72 -50.5t88 -18.5z" />
    <glyph glyph-name="uni3008" unicode="&#x3008;" 
d="M946 693l-194 -320l195 -339l-66 -38l-217 378l217 359z" />
    <glyph glyph-name="uni3009" unicode="&#x3009;" 
d="M111 737l217 -363l-217 -382l-66 38l195 343l-195 324z" />
    <glyph glyph-name="uni300A" unicode="&#x300a;" 
d="M967 694l-184 -321l184 -340l-66 -36l-204 376l204 359zM779 711l-184 -335l184 -354l-66 -34l-204 389l204 370z" />
    <glyph glyph-name="uni300B" unicode="&#x300b;" 
d="M105 732l204 -359l-204 -376l-66 36l184 340l-184 321zM496 377l-203 -389l-66 34l184 354l-184 335l66 36z" />
    <glyph glyph-name="uni300C" unicode="&#x300c;" 
d="M798 679v-677h-76v753h216v-76h-140z" />
    <glyph glyph-name="uni300D" unicode="&#x300d;" 
d="M272 727v-743h-216v76h140v667h76z" />
    <glyph glyph-name="uni300E" unicode="&#x300e;" 
d="M578 -18v0v781h364v-223h-143v-558h-221zM650 691v-637h77v546h1v12h142v79h-220z" />
    <glyph glyph-name="uni300F" unicode="&#x300f;" 
d="M201 205v558h221v-781h-364v223h143zM272 145v0v-12h-142v-79h220v637h-77v-546h-1z" />
    <glyph glyph-name="uni3010" unicode="&#x3010;" 
d="M929 45v-75h-267v760h248v-66h2q-1 -2 -1 -3t-1 -3q-3 -6 -6.5 -12.5t-8.5 -14.5q-10 -18 -23.5 -43.5t-25.5 -60t-20 -79t-8 -99.5q0 -65 11 -113.5t26 -83.5h2v-5q10 -23 20 -39.5t18.5 -28t14.5 -17t7 -6.5z" />
    <glyph glyph-name="uni3011" unicode="&#x3011;" 
d="M326 -30h-267v75l12 11q2 2 21 23.5t39 67.5v5h2q14 35 25 83.5t11 113.5q0 55 -8 99.5t-20 79t-25.5 60t-23.5 43.5q-5 8 -8.5 14.5t-5.5 12.5h-1q0 2 -2 6h2v66h249v-760z" />
    <glyph glyph-name="uni3012" unicode="&#x3012;" 
d="M224 569h549v-72h-549v72zM224 337v72h549v-72h-235v-285h-74v285h-240z" />
    <glyph glyph-name="uni3013" unicode="&#x3013;" 
d="M244 313h519v-140h-519v140zM244 563h519v-140h-519v140z" />
    <glyph glyph-name="uni3014" unicode="&#x3014;" 
d="M788 636v-514l165 -80l-34 -68l-207 100v612l211 90l30 -70z" />
    <glyph glyph-name="uni3015" unicode="&#x3015;" 
d="M84 706l30 70l211 -90v-612l-207 -100l-34 68l165 80v514z" />
    <glyph glyph-name="uni3016" unicode="&#x3016;" 
d="M926 47v-77h-345v760h333v-65l2 -1l-2 -4v-2h-1q-4 -5 -8.5 -11t-9.5 -12q-12 -16 -28.5 -40t-31.5 -58.5t-25.5 -82t-10.5 -110.5q0 -75 17 -129t37.5 -88.5t38 -51t19.5 -17.5zM826 42q-16 19 -33.5 46.5t-32 65t-24 85t-9.5 105.5q0 63 9.5 112.5t24 87.5t31 66
t31.5 48h-170v-616h173z" />
    <glyph glyph-name="uni3017" unicode="&#x3017;" 
d="M87 730h333v-760h-345v77l15 11q2 1 19.5 17.5t38 51t37.5 88.5t17 129q0 63 -10.5 110.5t-25.5 82t-31.5 58.5t-28.5 40q-11 13 -17 23h-2v2q0 1 -0.5 1.5t-0.5 2.5l1 1v65zM179 658q14 -20 30.5 -48t31 -66t24 -87.5t9.5 -112.5q0 -58 -9.5 -105.5t-24 -85t-32 -65
t-33.5 -46.5h173v616h-169z" />
    <glyph glyph-name="uni301D" unicode="&#x301d;" 
d="M780 436l-124 248l66 33l123 -248zM622 397l-127 254l65 32l128 -254z" />
    <glyph glyph-name="uni301E" unicode="&#x301e;" 
d="M115 468l123 248l65 -32l-123 -248zM271 430l128 254l65 -33l-127 -254z" />
    <glyph glyph-name="uni3021" unicode="&#x3021;" 
d="M440 695l87 -33q16 -5 6 -10q-21 -8 -29 -19v-683l2 -83q2 -33 -52 -42q2 20 4 60.5t3 106.5v650q2 15 -29 43z" />
    <glyph glyph-name="uni3022" unicode="&#x3022;" 
d="M589 695l86 -33q18 -5 6 -10q-19 -7 -28 -19v-683l3 -83q1 -33 -54 -42q2 20 4 60.5t3 106.5v650q1 12 -28 43zM292 600l88 -27q2 -1 3.5 -2t3.5 -2q1 -2 -2 -5q-19 -6 -29 -16v-448l3 -72q1 -28 -54 -34q2 10 2.5 24.5t1.5 33.5l3 85v419q1 12 -29 35z" />
    <glyph glyph-name="uni3023" unicode="&#x3023;" 
d="M743 695l85 -33q18 -5 6 -10q-20 -8 -28 -19v-683l3 -83q1 -33 -53 -42q4 39 6 167v650q1 13 -28 43zM139 645l85 -33q14 -5 6 -11q-17 -6 -28 -20v-546l3 -87q2 -29 -54 -35q2 14 4 55.5t3 110.5v512q1 14 -28 43zM445 583l88 -26q5 -2 7 -5q2 -2 -2 -4q-23 -6 -29 -15
v-440l3 -72q2 -26 -53 -32q5 27 6 139v412q1 11 -28 34z" />
    <glyph glyph-name="uni3024" unicode="&#x3024;" 
d="M474 158q34 43 64.5 92.5t58.5 107.5q48 97 70.5 152t24.5 72q4 39 -15 52l8 12l99 -51q5 -3 5 -5q0 -3 -5 -5q-26 -4 -46 -32q-54 -140 -109.5 -245.5t-118.5 -183.5q18 -16 35.5 -30t34.5 -27q115 -84 216 -120q24 -9 60 -15t84 -11v-10q-92 -2 -111 -42
q-57 20 -116.5 50.5t-122.5 72.5q-57 40 -114 93q-22 -25 -44.5 -45.5t-45.5 -37.5q-197 -134 -353 -168l-3 16q217 82 347 200q17 17 33.5 33t31.5 36q-22 21 -42 44t-39 47q-105 126 -209 389l18 10q30 -66 64.5 -126.5t72.5 -120.5q39 -58 75 -104t71 -79z" />
    <glyph glyph-name="uni3025" unicode="&#x3025;" 
d="M469 -144q48 1 90 16.5t79 47.5q68 71 70 160q-2 75 -51 132q-20 22 -47 42.5t-62 39.5q-26 13 -47.5 19.5t-41.5 8.5q-16 0 -87 -56q-27 -22 -51 -47t-45 -53q-35 -44 -33 -105q0 -90 67 -145q63 -59 159 -60zM409 573q23 0 23 -3q0 -6 -14 -17q-62 -53 -62 -83
q-2 -39 38 -70q16 -16 47 -30l10 -3q15 6 43.5 23.5t70.5 45.5q164 90 159 218q3 11 11 11q14 0 34 -33q28 -45 26 -88q2 -27 -26 -40q-42 -29 -90.5 -57.5t-106.5 -57.5l-14 -9q-20 -11 -33 -18t-18 -11l8 -3q5 -2 11 -4t14 -4l44 -14q100 -50 132 -111q43 -74 42 -135
q-2 -75 -36 -135q-38 -54 -95 -88q-72 -42 -158 -42q-79 2 -136 32q-59 30 -95 78q-43 62 -41 133q0 64 34 116q17 32 55.5 70t101.5 86l7 4q9 4 9 7h-1q-3 0 -4 1q-9 2 -11 5q-84 55 -84 118q0 47 30 76q32 32 75 32z" />
    <glyph glyph-name="uni3026" unicode="&#x3026;" 
d="M463 420q0 27 -23 65q-5 5 3 11q20 -3 43 -8.5t48 -13.5q10 -4 8 -12q-2 -12 -35 -22v-142h296l50 56l70 -56q9 -5 9 -10q0 -12 -11 -10q-3 0 -4 1h-770q-21 -1 -37 -1.5t-29 -2.5q-8 -1 -14 -1h-10l-19 35q48 -12 109 -11h316v122z" />
    <glyph glyph-name="uni3027" unicode="&#x3027;" 
d="M463 462q0 27 -23 65q-5 5 3 11q42 -6 91 -22q10 -4 8 -12q-2 -12 -35 -22v-142h296l50 56l70 -56q9 -5 9 -10q0 -12 -11 -10q-1 1 -4 1h-770q-21 -1 -37 -2t-29 -3q-8 -1 -14 -1h-10l-19 36q48 -12 109 -11h316v122zM152 29h520l47 56l85 -65q9 -7 6 -11q-3 -3 -18 -2
h-565q-30 2 -45 -11z" />
    <glyph glyph-name="uni3028" unicode="&#x3028;" 
d="M463 535q0 27 -23 65q-5 4 3 12q20 -4 42.5 -9.5t48.5 -13.5q10 -4 8 -12q-2 -12 -35 -22v-141h296l50 55l70 -55q9 -6 9 -11q0 -12 -11 -10q-1 1 -4 1h-770q-21 -1 -37 -2t-29 -3h-24l-19 35q20 -5 47.5 -8t61.5 -2h316v121zM152 181h520l47 57l85 -64q9 -8 6 -12
q-3 -3 -18 -2h-565q-12 1 -23 -2.5t-22 -10.5zM43 -64l752 -1l42 55l80 -58q7 -10 6 -11q-5 -1 -11 -1.5t-13 -0.5h-756q-17 1 -31.5 -2t-28.5 -8z" />
    <glyph glyph-name="uni3029" unicode="&#x3029;" 
d="M459 604q0 7 -14 43q-2 5 -4 8.5t-3 7.5q-2 7 4 13q1 1 1 2q31 1 90 -21q12 -5 12 -12q-3 -10 -41 -24v-118h250l41 37q17 -13 31.5 -23.5t25.5 -21.5q8 -8 8 -13q-1 -8 -15 -16q-21 -11 -38 -14q-70 -157 -136 -248q-30 -46 -58.5 -80t-55.5 -59l-36 -28l19 -14
q30 -21 69 -41.5t90 -43.5q46 -14 100 -28t118 -29v-14q-41 -3 -57 -33q-61 20 -113 40t-97 40q-83 31 -150 86l-14 10q-17 -12 -34 -22.5t-34 -19.5q-42 -24 -82.5 -42.5t-82.5 -33.5q-48 -20 -97 -36t-103 -29l-7 13q73 24 124.5 43t84.5 36q27 11 66 30.5t93 50.5
q12 7 23 14.5t22 15.5q-51 44 -87 92q-60 67 -102 168q-20 41 -32.5 80.5t-17.5 77.5l19 7q10 -46 26.5 -90t41.5 -87q22 -42 48.5 -78.5t57.5 -70.5q23 -25 42.5 -42.5t36.5 -28.5q17 14 33.5 29.5t35.5 32.5q51 58 105 150q28 43 51.5 95.5t43.5 116.5h-572l-47 -3
q-12 -1 -22.5 -2t-20.5 -3l-16 37q8 -2 18.5 -4t24.5 -3q13 0 28 -0.5t35 0.5h270v100z" />
    <glyph glyph-name="uni303E" unicode="&#x303e;" 
d="M443 128h-258v19h265l61 166h-326v18h332l47 127l17 -6l-45 -121h277v-18h-283l-62 -166h345v-19h-352l-49 -134l-16 5zM830 587q-14 -14 -27.5 -25t-27.5 -19q-50 -35 -113 -35q-32 0 -70 11q-19 6 -49 23.5t-56 35.5q-23 17 -42.5 27.5t-33.5 17.5q-46 17 -83 17
q-35 0 -71.5 -17t-71.5 -46q-3 4 -8 8t-8 8q13 11 28.5 21.5t27.5 17.5q25 13 53 20.5t55 7.5q47 0 90 -22q11 -5 31 -15.5t44 -27.5q48 -32 89.5 -49.5t75.5 -17.5q82 0 150 72zM942 714h-35v37h-37v34h72v-71zM907 -63v37h35v-71h-72v34h37zM92 -63h36v-34h-71v71h35v-37z
M92 751v-37h-35v71h71v-34h-36zM57 481v73h35v-73h-35zM57 205h35v-73h-35v73zM942 481h-35v73h35v-73zM942 205v-73h-35v73h35zM57 321h35v-72h-35v72zM942 321v-72h-35v72h35zM57 365v72h35v-72h-35zM57 90h35v-72h-35v72zM57 598v72h35v-72h-35zM942 365h-35v72h35v-72z
M942 598h-35v72h35v-72zM942 90v-72h-35v72h35zM521 -63h73v-34h-73v34zM521 751v34h73v-34h-73zM637 751v34h73v-34h-73zM637 -63h73v-34h-73v34zM477 -63v-34h-72v34h72zM754 751v34h72v-34h-72zM244 751h-72v34h72v-34zM244 -63v-34h-72v34h72zM361 751h-72v34h72v-34z
M754 -63h72v-34h-72v34zM361 -63v-34h-72v34h72zM477 751h-72v34h72v-34z" />
    <glyph glyph-name="uni3041" unicode="&#x3041;" 
d="M511 -71q210 46 228 201q-5 138 -174 156q-16 -42 -49.5 -91.5t-87.5 -109.5q2 -5 5 -14t6 -23q16 -36 16 -50q-4 -18 -46 0q0 9 -4 13q-3 14 -5 25.5t-2 19.5q-101 -84 -167 -84q-45 8 -38 117q55 110 186 175q5 40 10 77.5t9 74.5q-32 -7 -68 -7q-66 0 -99 52
q6 -2 13.5 -4t17.5 -4q45 -15 68 -15q17 0 75 11q2 10 4 22t4 27q12 43 12 59q-4 27 -31 41v11q80 0 87 -52q0 -15 -15 -34q-11 -23 -27 -66q36 4 66.5 11t55.5 18q45 20 68 0q6 -21 -49 -33q-29 -12 -64.5 -20t-83.5 -13l-15 -82q-4 -22 -7 -38t-5 -25q67 26 126 26
q0 4 3 7q4 8 4 30q0 15 -19 33q-2 4 -4 7t-4 5q45 -7 61 -31q8 -14 0 -47v-4q205 -15 209 -175q-17 -186 -270 -201v4zM250 -2q66 29 140 103q-5 31 -8 59t-3 56v18q-105 -71 -159 -152q-8 -26 -4 -34q0 -4 4 -11q3 -38 19 -39h11zM402 212q0 -24 7 -56q4 -11 4 -26
q87 87 110 156q-34 -4 -64 -13.5t-57 -23.5v-37z" />
    <glyph glyph-name="uni3042" unicode="&#x3042;" 
d="M523 -109q246 66 258 243q-12 167 -194 185q-70 -123 -182 -237q4 -11 9 -23t11 -26q28 -60 0 -75q-36 -7 -57 50q-4 7 -4 25q-137 -108 -201 -108q-31 0 -38 55q-4 32 -6 60t-2 53q54 127 235 212q6 58 14 104t17 81h-91q-104 0 -129 67q84 -26 159 -26h26q16 2 27 3
t19 1l11 59q16 61 16 93q0 16 -35 37q-7 4 -11 4v3q110 8 114 -77l-12 -19q-11 -14 -14 -26q0 -7 -4 -11l-23 -59h7q52 11 92 22t67 25q42 12 54 -10q12 -16 -8 -34q-87 -36 -223 -48q-13 -38 -20 -80t-11 -91q73 23 144 29q11 35 11 49q0 19 -30 37q-4 4 -8 4q66 18 99 -55
q0 -9 -4 -16t-4 -19v-3q247 -42 251 -219q-19 -213 -330 -251v12zM348 268q-137 -75 -185 -179q-17 -90 22 -109q66 18 167 113q-2 26 -3 52t-1 52v71zM390 219q0 -35 8 -81q89 97 129 181q-36 -2 -70 -10t-67 -23v-67z" />
    <glyph glyph-name="uni3043" unicode="&#x3043;" 
d="M432 264q-4 -8 -11.5 -21.5t-18.5 -30.5q-40 -60 -54 -97q-5 -11 0 -41q5 -26 -7 -26q-128 17 -140 327q0 43 -16 100q-3 12 -3 15q60 -36 72 -103q0 -2 -1 -14t-3 -35q-7 -35 -7 -48q6 -134 67 -156q13 4 84 93q14 17 22 27t12 14zM576 387q184 9 213 -198
q-8 -48 -24 -55q-8 4 -15 15l-7 7q-23 20 -65 26h-11q4 4 19 7q24 8 38 15q15 153 -148 183z" />
    <glyph glyph-name="uni3044" unicode="&#x3044;" 
d="M425 301q-38 -54 -66.5 -104.5t-51.5 -99.5q-3 -8 0 -33q11 -56 -11 -56q-168 30 -175 430q0 48 -7 85t-23 67q86 -52 91 -123q0 -2 -1 -15.5t-3 -39.5q-3 -26 -5 -41t-2 -19q10 -221 91 -226q34 38 74.5 84.5t88.5 104.5v-14zM686 186q120 11 113 63q-57 193 -204 189v4
q235 22 284 -256q0 -46 -22 -71q-35 5 -42 34q-29 22 -129 33v4z" />
    <glyph glyph-name="uni3045" unicode="&#x3045;" 
d="M318 383q28 -19 46 -19q12 0 53 19q83 37 148 37q98 5 98 -138q-11 -251 -204 -338q158 130 163 375q0 82 -57 82q-75 0 -148 -67q-20 -15 -23 -15q-74 17 -87 70zM455 668q19 -28 83 -48q8 -2 15 -4.5t12 -6.5q103 -30 57 -82q-8 0 -35 18q-15 12 -19 12l-34 19
q-83 41 -83 92h4z" />
    <glyph glyph-name="uni3046" unicode="&#x3046;" 
d="M447 -143q220 193 216 437q0 140 -79 144q-59 0 -156 -67q-55 -40 -76 -40q-71 18 -102 85v14q5 0 15 -10q42 -32 65 -27q7 0 21.5 5t38.5 14q107 49 182 49q148 4 148 -208q0 -248 -261 -396h-12zM421 776q25 -59 128 -82q94 -18 99 -74q0 -30 -26 -30q-10 0 -31 15
q-14 11 -26 19.5t-23 13.5q-20 11 -39 23.5t-37 25.5q-50 39 -45 89z" />
    <glyph glyph-name="uni3047" unicode="&#x3047;" 
d="M310 389q3 0 8 -6q7 -12 16 -12q42 0 204 59q31 -4 46 -25q11 -23 -35 -56q-12 -8 -18 -15q-16 -15 -49.5 -52t-87.5 -100l-38 -48q69 7 117 -60q43 -66 114 -66q32 0 60 3.5t54 11.5q43 9 60 -8q20 -20 -14 -35q-47 -14 -125 -14q-119 0 -175 98q-33 59 -72 59
q-33 0 -75 -67q-44 -68 -84 -68q-38 26 30 97q51 31 119 107t162 197q-92 -18 -152 -58q-18 -12 -27 -12q-41 20 -44 70h6zM417 635q45 -38 72 -49l26 -10q66 -24 61 -53q0 -20 -23 -25q-128 59 -140 140z" />
    <glyph glyph-name="uni3048" unicode="&#x3048;" 
d="M527 409q-91 -12 -183 -71q-22 -19 -30 -19q-74 30 -68 111h8q4 -2 8 -10q10 -33 30 -33q48 0 185 55q68 25 84 25q61 -6 65 -58q0 -20 -61 -57q-44 -26 -54 -40q-4 -5 -21.5 -26.5t-50.5 -58.5q-38 -46 -65 -78.5t-44 -55.5q107 -8 167 -102q42 -62 151 -66
q28 0 58.5 6.5t62.5 20.5q2 0 8 2q60 0 72 -33q0 -42 -141 -42q-173 -3 -211 50q-6 8 -15 18.5t-23 24.5q-71 113 -118 106q-4 0 -11 -4l-26 -7q-10 -11 -21 -25.5t-25 -33.5q-10 -13 -15.5 -19.5t-7.5 -8.5l-8 -8q-38 -62 -76 -62q-60 4 12 105q143 77 371 386zM398 735
q28 -46 133 -81q57 -20 64 -30q30 -62 -23 -67q-163 79 -178 178h4z" />
    <glyph glyph-name="uni3049" unicode="&#x3049;" 
d="M171 105q14 -23 41 -23q7 0 46 33q29 25 52.5 43.5t41.5 30.5q0 32 1 72t3 91h-38q-95 7 -102 57q32 -20 60 -20q42 0 80 12v134q0 25 -30 37v14q59 8 87 -44q0 -14 -4 -22q-8 -26 -13.5 -54t-9.5 -57l31 11q42 18 49 18q37 -4 31 -29q-11 -21 -61 -38q-11 -3 -25.5 -7
t-31.5 -8v-41q-2 -26 -3 -47t-1 -38v-22q102 63 209 63q169 -3 174 -126q-8 -134 -163 -137q-65 0 -106 19v6q3 0 8 -3q20 -3 32.5 -5t19.5 -2q144 9 159 122q-7 109 -136 115q-91 0 -197 -78v-141q2 -14 3 -23.5t1 -17.5q-4 -30 -31 -34q-13 5 -18 14q2 -2 2 -1t-2 5
q-14 19 -29.5 37.5t-35.5 38.5q-7 -37 -30 -37q-56 18 -68 82h4zM618 465q147 46 185 -94q0 -15 -42 -3q-11 3 -18 3q-16 -2 -32 -4.5t-33 -6.5l8 8q30 25 30 52q-15 49 -98 41v4zM348 15q0 10 1 45.5t3 99.5q-24 -23 -44.5 -45t-38.5 -48q6 -6 12 -10.5t11 -8.5
q12 -6 42 -33h14z" />
    <glyph glyph-name="uni304A" unicode="&#x304a;" 
d="M95 64q22 -34 49 -34h3q75 69 179 149v214h-34q-12 -2 -20.5 -3t-13.5 -1q-104 0 -114 72l23 -12q37 -22 72 -22q23 0 44.5 2.5t42.5 8.5v182q-4 45 -53 52v7q113 26 129 -59q0 -1 -1 -2l-3 -5q-31 -52 -38 -160q34 11 83 33q22 12 26 12q35 0 38 -23q0 -41 -151 -78
v-200q151 93 284 93q193 -17 209 -156q-17 -173 -209 -180h-8q-39 0 -109 22q-14 4 -23 7l-15 5v6q23 -5 47.5 -8.5t51.5 -5.5h7q178 12 190 165q-8 119 -163 126q-119 0 -262 -119v-59q0 -17 2 -46.5t6 -74.5v-24q0 -57 -46 -57q-8 0 -11 11q-2 2 -2 3l-1 1q-17 38 -77 85
q-5 5 -10 8t-8 5q-8 -10 -13.5 -16.5t-10.5 -11.5q-3 -10 -18 -10q-95 33 -80 98h8zM660 531q75 52 159 4q93 -67 56 -134q-7 0 -15 8q-20 11 -34 11q-10 0 -34.5 -8t-63.5 -23v8l26 23q45 33 45 63q-7 61 -139 44v4zM322 -42q2 17 3 34t1 35v99q-42 -35 -69.5 -63.5
t-44.5 -51.5q28 -17 53.5 -30t48.5 -23h8z" />
    <glyph glyph-name="uni304B" unicode="&#x304b;" 
d="M304 668q70 30 132 -59q0 -9 -11 -23q-8 -13 -16 -28.5t-15 -34.5l-4 -3q-8 -17 -14 -33.5t-12 -33.5q42 8 73 11t52 3q129 0 129 -125q-38 -371 -235 -423q-4 1 -4 17q-4 7 -4 18q-3 10 -14.5 22t-30.5 28q-14 15 -23 25.5t-15 18.5h8q67 -40 109 -40q129 58 156 326
q0 109 -80 104q-21 0 -55 -5.5t-82 -16.5q-135 -344 -151 -360l-5 -10q-3 -6 -7 -16q-42 -93 -90 -86q-49 18 22 104q13 14 20.5 23.5t9.5 13.5q34 52 70.5 128.5t78.5 179.5q-14 -5 -34 -13.5t-46 -19.5q-60 -29 -72 -29q-90 36 -95 99q3 0 19 -10q36 -27 69 -27q5 0 25 5
t54 14q30 10 53.5 16t40.5 10q22 60 32 102.5t10 68.5q0 41 -48 52v7zM656 498q268 -81 261 -271q-7 -22 -38 -27q-8 5 -11 12q0 7 -4 7q-29 23 -167 41q136 20 140 45q-5 45 -50.5 92t-130.5 101z" />
    <glyph glyph-name="uni304C" unicode="&#x304c;" 
d="M19 424q22 -34 64 -37q7 0 21 1.5t35 5.5q-2 -1 3 1t17 6q27 8 54.5 14.5t55.5 11.5q45 99 45 171q0 41 -52 59v7q47 15 90 -10q2 -2 6.5 -5t9.5 -7q30 -21 30 -41q0 -8 -12 -18q-2 -4 -3.5 -6.5t-3.5 -4.5q-8 -8 -15 -33q-2 -6 -4 -11t-4 -8q-7 -11 -12 -23.5t-10 -29.5
l-12 -25q32 9 62 14t59 5h20q64 0 86 -37q27 -33 27 -82v-19q0 -48 -10 -100t-32 -112q-37 -96 -91 -145q-45 -56 -102 -56q-3 6 -3 15q0 12 -4 19q-7 21 -46 54q-11 14 -20 24.5t-14 18.5h8q21 -11 42 -21.5t44 -19.5q1 0 4 -0.5t8 -1.5h8q26 0 37 17q34 19 61 86
q61 106 61 218v19q0 40 -16 59q-10 30 -56 33h-23q-56 0 -106 -25q-11 0 -22 -8l-4 -4q0 -3 -4 -6l-91 -224q-11 -28 -23.5 -56t-26.5 -59q-18 -44 -42 -78q-3 -5 -3 -8q-29 -26 -57 -26q-19 5 -23 30q0 19 27 49q16 17 29 33.5t24 33.5q14 22 26.5 46t22.5 51q20 35 39 79
t41 98q2 2 7 19q4 4 4 8q-14 -6 -29 -11.5t-32 -11.5h-4q-9 -2 -21.5 -6.5t-26.5 -11.5q-4 0 -12 -8l-12 -11q-9 -4 -30 -4q-15 0 -37 33q-46 34 -34 72h7zM614 490q33 0 94 -29q28 -14 52.5 -31t46.5 -37q94 -92 72 -174q-11 -26 -38 -26q-12 5 -15 11q0 7 -3 12
q-4 7 -16 7q-11 4 -25.5 6.5t-31.5 4.5q-7 4 -11 4q-7 0 -11 3q-35 11 -70 12q26 5 53.5 11t53.5 14q4 0 8 4q26 5 26 15q0 18 -14 41l-4 4q-5 15 -27 37l-11 14q-29 29 -61 53.5t-68 43.5zM743 568q71 0 114 -37q45 -44 7 -70q-28 0 -53 37l-8 10q-12 18 -27.5 33t-32.5 27
zM819 638q134 -3 139 -74q-4 -22 -18 -25q-19 0 -46 37l-23 25q-13 12 -26 21t-26 16z" />
    <glyph glyph-name="uni304D" unicode="&#x304d;" 
d="M197 527q68 -15 182 12q14 3 26 7.5t23 10.5q-4 3 -8.5 10t-10.5 16q-9 17 -17 28.5t-13 19.5q-18 44 -38 56q-20 7 -57 -12l-4 -3l-7 3q3 4 7 9.5t8 13.5l16 22q31 22 94 -8h2l5 -3q23 -15 23 -30v-22q0 -27 27 -67q8 -8 11 -26q20 7 65 30q5 2 9 3.5t6 3.5l19 12
q26 14 41 14q42 0 46 -22q0 -20 -20 -29q-14 -4 -27 -9t-29 -10l-38 -15l-49 -15l8 -7q15 -28 31.5 -55.5t36.5 -55.5q25 8 46.5 18.5t40.5 21.5q25 12 53 12q42 0 42 -19q0 -22 -31 -26q-36 -17 -64 -27q-31 -6 -65 -18q20 -28 40 -54.5t43 -52.5q19 -22 35 -37.5t30 -26.5
q4 -4 19 -11q7 -3 11 -7q12 -3 12 -30q0 -11 -8 -37q-11 -29 -26 -33q-10 0 -23 7l-8 8q-38 25 -117 48q-42 10 -83.5 14t-83.5 4h-23q-104 0 -147 -40q-31 -22 -31 -59t35 -70q20 -20 90 -40q38 -7 66 -10.5t48 -3.5h38q8 4 23 4h15q45 0 64 -19q27 -23 12 -38
q-13 -22 -38 -18h-15q-14 0 -33.5 2t-46.5 5q-20 3 -30 3q-8 2 -19 4t-27 4l-49 11q-105 24 -144 86q-34 60 -4 113q27 58 140 82q42 3 87 3h50q21 0 52.5 -1.5t76.5 -5.5q21 -2 37 -3t27 -1q0 10 -8 15q-4 1 -7 11q-13 20 -25.5 34.5t-23.5 24.5l-72 104q-60 -22 -106 -36
t-80 -19q-54 -7 -76 0q-45 17 -87 47v8l26 -8q27 -5 46 -7.5t31 -2.5q83 0 189 41q8 4 17.5 6t20.5 4q-17 25 -36 55t-40 68h-8q-90 -33 -159 -33q-15 0 -29 3q0 1 -5 4q-5 4 -11 8.5t-16 9.5q-13 10 -26 15v4z" />
    <glyph glyph-name="uni304E" unicode="&#x304e;" 
d="M110 352q70 -21 102 -21q45 0 99.5 14t124.5 42q-20 28 -37.5 57t-34.5 61q-64 -19 -106 -28.5t-65 -9.5q-22 0 -72 35l-11 6v12q106 -19 231 22q-67 115 -87 130q-17 14 -57 -8q-5 -3 -8 -3l-4 3q57 106 153 4v-26q0 -21 37 -85q14 5 34 14t46 23q50 26 64 26
q39 -5 46 -26q0 -18 -23 -30q-21 -8 -55.5 -19.5t-88.5 -28.5l15 -26l60 -93q16 6 35 14t45 19q55 23 61 23q42 -5 42 -23q0 -17 -27 -29q-1 -1 -5 -2l-14 -6q-32 -9 -58.5 -17t-50.5 -16q42 -57 77 -99.5t66 -71.5l12 -7q13 -3 18 -11q28 -47 -22 -97q-12 -4 -30 11l-8 8
q-101 56 -284 59q-183 -3 -189 -100q13 -118 245 -123h31q12 4 26 4q68 0 88 -35q15 -36 -50 -41q-348 12 -371 173q-8 146 262 141q32 0 74 -2t96 -6q34 -3 53 -3q0 8 -4 15l-4 4q-32 33 -63.5 74.5t-60.5 95.5q-198 -59 -232 -59q-51 0 -121 52v10zM606 646
q83 -12 122 -48q42 -58 -8 -75q-18 0 -46 45q-34 64 -68 70v8zM708 698q182 -23 137 -108q-22 0 -64 45q-42 48 -73 59v4z" />
    <glyph glyph-name="uni304F" unicode="&#x304f;" 
d="M670 -121q-7 -40 -38 -22q-14 4 -30 30q-2 6 -3.5 9.5t-3.5 5.5q-14 26 -29 50t-32 46q-15 23 -36.5 51t-50.5 62q-4 5 -8.5 11t-10.5 12l-11 15q-17 23 -31.5 39.5t-25.5 30.5l-12 11q-38 32 -44 56q-19 36 34 89q5 8 13.5 17t20.5 20q11 14 18 23.5t12 13.5
q42 42 79 84.5t72 90.5q19 18 34 44q4 8 4 26q0 14 -26 34q-7 4 -10.5 6.5t-5.5 4.5v7q99 0 114 -89q0 -32 -53 -67l-34 -30q-15 -14 -27.5 -25t-21.5 -19l-12 -11q-29 -25 -57.5 -51t-59.5 -57q-47 -32 -64 -63q-20 -29 30 -74q8 -8 20 -18.5t29 -25.5q29 -23 49.5 -40.5
t34.5 -30.5q34 -35 65 -72t60 -79q48 -50 48 -99v-16z" />
    <glyph glyph-name="uni3050" unicode="&#x3050;" 
d="M432 746q97 0 114 -89q0 -27 -95 -108q-54 -46 -100.5 -86t-88.5 -80q-42 -34 -46 -71q5 -43 49 -74q285 -241 292 -343q-4 -37 -23 -41q-43 0 -68 75q-29 51 -76.5 113t-116.5 140q-14 17 -23 28t-15 17l-15 22q-35 44 -35 66q4 32 65 90q22 27 60 66q183 191 163 223
q0 27 -41 45v7zM557 490q68 0 103 -41q38 -62 -8 -78q-13 0 -34 41q-33 62 -61 78zM656 539q71 -8 109 -41q42 -53 12 -78q-20 0 -42 37q-38 52 -79 78v4z" />
    <glyph glyph-name="uni3051" unicode="&#x3051;" 
d="M443 401q-22 0 -75 19q-8 4 -14 6t-10 4v8q67 -15 171 4l69 11l64 12v88q5 96 -38 115q-20 11 -64 11v12q55 31 114 3q48 -30 48 -85q0 -19 -7 -37q-4 -7 -4 -19v-82l46 12q7 0 15 3q17 2 31 3t26 1q31 0 53 -19q34 -18 19 -41q-23 -3 -68 0h-58q-30 0 -64 -3v-130
q0 -141 -37 -249q-22 -54 -51 -93t-67 -64q-37 -30 -65 -34q88 79 133 228q38 128 38 286v53l-64 -12q-40 -5 -71 -8t-54 -3h-16zM121 245q0 -70 26 -140q3 0 8 6l4 4q21 28 41.5 70.5t42.5 100.5v-8q-11 -35 -20.5 -70t-17.5 -70q-23 -89 -23 -127v-27q0 -14 -15 -18
q-61 0 -72 116q-12 63 -12 130v59q0 45 9.5 106.5t28.5 142.5q2 5 4 14t4 23q15 48 15 74q0 36 -42 63q-3 11 8 11q19 0 49 -18q53 -41 53 -74q0 -13 -7 -23q-84 -207 -84 -330v-15z" />
    <glyph glyph-name="uni3052" unicode="&#x3052;" 
d="M292 438q8 0 20 -1t29 -3h27q28 0 78 6t122 17q14 2 23 3t15 1q7 241 -109 211v7q125 60 170 -74q0 -7 -4 -11q-11 -36 -15 -127q45 10 75.5 15.5t49.5 7.5q59 -10 76 -48q0 -15 -12 -15q-17 0 -68 3h-22q-45 0 -99 -3v-11q12 -444 -205 -559h-7v8q175 145 170 555
l-79 -11q-87 -12 -125 -12q-58 0 -110 33v8zM193 253q-68 -167 -56 -253q5 -20 0 -28q-5 -18 -24 -18q-79 39 -83 258q0 106 50 308q22 87 22 104q0 20 -26 55q-15 16 -15 19q86 -8 110 -89q0 -9 -16 -37q-83 -178 -83 -334q4 -130 38 -133q14 20 29.5 49.5t35.5 68.5
q5 14 9.5 23t8.5 14v-7zM716 668q62 -5 95 -51q40 -69 -4 -78q-11 0 -34 44q-30 64 -57 85zM807 720q68 -7 106 -45q45 -48 11 -66q-23 -5 -60 48q-37 47 -57 55v8z" />
    <glyph glyph-name="uni3053" unicode="&#x3053;" 
d="M459 8q125 0 253 33h8q36 7 65 4q34 -12 30 -45q0 -21 -30 -28q-10 -2 -28.5 -5t-44.5 -5q-11 -4 -26 -4q-10 0 -22 -1t-28 -3h-147q-185 0 -284 69q-50 36 -50 107q0 64 42 123q0 -1 -8 -23l-7 -33q-15 -88 49 -145q31 -25 95 -37q26 -4 49 -5.5t46 -1.5h38zM497 598
q17 0 34 -1t34 -3q56 0 91 -15q52 -16 34 -56q-12 -11 -30 -15h-20q-78 0 -201 -55q-22 -10 -41 -15h-8l4 4q34 22 65 46.5t60 50.5v3q-5 0 -12 3q-7 4 -26 4h-18q-101 0 -163 56l-12 15q-19 15 -19 26q67 -48 194 -48h34z" />
    <glyph glyph-name="uni3054" unicode="&#x3054;" 
d="M137 245q-20 -51 -20 -96q4 -150 262 -155q122 0 269 33q36 6 49 6q43 0 53 -25q7 -33 -26 -46q-51 -8 -114 -12t-144 -6q-367 0 -371 175q0 54 42 126zM209 638q57 -45 250 -52q173 -8 173 -55q0 -33 -56 -33q-84 0 -235 -60q10 9 24.5 21t36.5 27q56 38 49 53
q-193 0 -242 99zM652 620q85 -10 121 -52q42 -52 4 -78q-18 -7 -53 49q-16 22 -27 36t-19 19l-8 7q-13 7 -18 19zM735 675q38 -3 66.5 -14.5t47.5 -29.5q45 -49 11 -74q-22 0 -61 48q-38 53 -64 63v7z" />
    <glyph glyph-name="uni3055" unicode="&#x3055;" 
d="M443 200q-67 4 -133 -18q-83 -36 -83 -100q0 -40 31 -71q22 -31 98 -49q32 -8 64 -14t65 -12q11 0 34 -3q26 -4 43.5 -6t28.5 -2h15q57 0 57 -30q-3 -34 -57 -38h-15q-52 0 -105.5 11.5t-110.5 33.5q-166 60 -166 154v22q3 64 64 104q43 31 110 37q32 5 60 8t54 3h41
q90 0 170 -26v12q-26 39 -55.5 77t-61.5 78q-8 11 -22.5 29.5t-37.5 45.5l-8 7q-147 -48 -235 -48h-19q-40 5 -72 25q-34 37 -30 68h4q26 -41 94 -41h19q27 0 55.5 2.5t58.5 7.5q23 6 43 12t40 11q-14 14 -30.5 27t-33.5 25q-6 5 -15 11.5t-23 14.5l-38 26q-23 18 0 78
q11 26 34 26q9 0 19 -7q7 -4 11 -4q12 -7 38 -12q16 -3 23 -7q40 -8 75.5 -19t68.5 -25l34 -11l19 -12q4 -2 10.5 -2.5t16.5 -0.5h22q20 -5 27 -19q11 -18 -8 -37l-26 -15q-8 -5 -14.5 -10t-12.5 -9q-26 -16 -80 -33l-30 -10q39 -39 102 -123l61 -71q42 -40 58 -67
q14 -17 14 -37q0 -8 -11 -33q-3 -10 -7 -11q-19 -19 -50 0q-11 13 -22.5 22.5t-22.5 17.5q-18 15 -61 23q-28 5 -50.5 8t-40.5 3q-23 3 -61 3h-34zM648 557q5 18 -19 33q-76 67 -178 67q-49 0 -53 -22q0 -14 19 -30q8 -8 20 -17.5t29 -23.5q15 -14 26 -23.5t19 -17.5
q7 -10 20 -18q29 11 58.5 24t58.5 28z" />
    <glyph glyph-name="uni3056" unicode="&#x3056;" 
d="M83 498q20 -41 102 -41q51 2 101 10t104 23q-15 14 -41.5 35t-64.5 47l-30 22q-33 70 34 104q5 0 12 -4q14 -3 18 -7q76 -17 139 -38.5t115 -47.5q5 -2 12 -2.5t18 -0.5h20q53 -23 18 -56q-29 -18 -68 -37.5t-91 -39.5q48 -48 86.5 -95.5t72.5 -98.5q6 -8 14.5 -17
t19.5 -20q42 -42 38 -67q-11 -45 -42 -52q-14 0 -41 27q-20 18 -27 21q-46 34 -230 37q-225 -3 -235 -118q13 -142 370 -157q64 0 69 -30q-8 -34 -69 -38q-367 30 -386 210q-4 163 307 163q72 -4 119.5 -10t70.5 -16v12q-54 81 -100 138.5t-86 94.5q-66 -22 -126 -33
t-117 -11q-106 6 -109 93h3zM561 557q-12 52 -118 85q-109 33 -136 -7q0 -10 15 -22l8 -8q57 -49 106 -100q106 33 125 52zM663 638q71 -6 110 -52q43 -51 8 -78q-23 0 -53 49q-28 37 -46 52q-2 2 -4 5l-4 6q-15 9 -11 18zM747 691q129 -17 147 -101q-5 -18 -19 -22
q-18 0 -46 37q-41 57 -82 74v12z" />
    <glyph glyph-name="uni3057" unicode="&#x3057;" 
d="M284 588l-4 -9q-8 -29 -14.5 -72.5t-11.5 -101.5q-2 -15 -3 -26t-1 -19q0 -11 -1 -26.5t-3 -36.5q-3 -42 -5 -73.5t-2 -56.5v-56q0 -88 37 -131q31 -36 107 -36h38q188 0 394 161q-4 -27 -46 -75l-4 -3q-154 -131 -333 -136h-19q-120 4 -174 63q-42 43 -42 151v62
q0 25 1 48t3 45q4 64 6 126t2 122v101q0 29 -12 52q-4 5 -12.5 11.5t-21.5 14.5l-4 4q-5 11 12 14q40 0 72 -18q45 -45 45 -82q0 -10 -4 -17q2 2 0 -2v2z" />
    <glyph glyph-name="uni3058" unicode="&#x3058;" 
d="M155 698q149 -11 125 -134q-21 -91 -34 -198.5t-19 -239.5q-5 -195 171 -190q218 5 413 179h4q-141 -224 -376 -236q-249 -18 -242 244q0 51 2 146t6 243q2 40 3 67.5t1 44.5q0 40 -54 67v7zM511 568q73 -4 118 -45q45 -55 0 -70q-20 0 -49 41q-17 23 -34.5 39t-34.5 27
v8zM428 523q153 -56 106 -134q-31 -2 -68 76q-11 22 -20.5 36t-17.5 22z" />
    <glyph glyph-name="uni3059" unicode="&#x3059;" 
d="M648 557q48 0 88.5 2t82.5 5h7q38 12 53 0q1 0 2 -1l6 -3q30 -18 30 -37v-15q-16 -10 -34 -10q-19 0 -50 10q-5 2 -9.5 4t-8.5 4q-51 5 -99.5 8t-97.5 3h-87q0 -40 1.5 -76.5t5.5 -71.5q2 -2 4 -5l4 -6q3 -12 3 -16q12 -20 17.5 -49t5.5 -65v-26q0 -136 -65 -228
q-44 -69 -143 -130h-8v3q151 147 148 258h-27q-61 0 -105 41q-46 61 -46 108v22q12 122 129 134q25 0 42 -11v114q-35 -2 -65 -6.5t-57 -11.5q-121 -10 -178 -48q-5 0 -12 -4q-21 -15 -38 -15q-30 0 -52 19q-53 31 -42 66q13 0 30 -18l3 -5q1 -1 1 -2q31 -12 64 -4l38 11
q14 4 23.5 6.5t14.5 4.5q69 15 135 25t135 16v145q-5 48 -84 55v8l23 11h23q46 0 79 -45q35 -35 4 -89q-11 -25 -11 -63v-22h117zM504 286q2 15 0 30.5t-7 32.5q-28 40 -65 40q-25 0 -60 -29q-31 -25 -31 -70q0 -40 31 -74q41 -53 97 -53q35 0 35 26v97z" />
    <glyph glyph-name="uni305A" unicode="&#x305a;" 
d="M413 757q11 4 21 6t21 2q110 -17 98 -93q-22 -10 -22 -115h98q28 0 74 2t112 5l30 3q10 1 12 1q48 -7 64 -37q0 -33 -42 -33q-67 13 -133 19t-132 6h-80q0 -11 1 -30t3 -47v-63q38 -47 38 -156q-5 -258 -224 -373h-8q125 107 160 247q-165 18 -182 185q12 122 117 134
q38 0 58 -11v111q-260 -26 -322 -67q-77 -41 -126 70q5 0 15 -7q37 -22 53 -22q5 0 21.5 3t43.5 8q88 20 165 31.5t150 16.5v89q5 96 -84 101v14zM504 294q-5 86 -72 95q-83 -21 -88 -99q12 -107 129 -127q26 4 31 30v101zM648 728q72 -12 110 -53q31 -54 -15 -66
q-11 0 -42 48q-28 53 -53 67v4zM747 765q153 -7 121 -93q-22 -15 -53 30q-35 47 -68 59v4z" />
    <glyph glyph-name="uni305B" unicode="&#x305b;" 
d="M356 230q-22 -235 235 -222q38 0 72.5 2.5t64.5 8.5q8 4 19 4q81 -4 86 -32q7 -37 -170 -37q-206 -3 -277 65q-79 73 -79 271v37q-63 -15 -108.5 -28.5t-77.5 -27.5q-68 15 -105 100q2 0 9.5 -3.5t20.5 -11.5q37 -25 53 -25q8 0 24.5 3.5t43.5 11.5q42 9 76.5 16.5
t63.5 12.5v141q0 44 -72 44q49 85 133 -21q0 -5 -8 -19q-4 -7 -4 -12v-121q85 15 154 23t130 10q12 81 12 166q0 70 -72 75q15 40 72 18q67 -33 72 -78q0 -3 -8 -11t-8 -14v-19q-4 -45 -7.5 -79.5t-6.5 -57.5h45q64 0 106 14q7 4 19 4q72 -18 90 -63q-3 -11 -22 -15
q-10 0 -19 4q-45 9 -92 14t-101 5h-34q-32 -245 -102 -260q-8 3 -12 15q-2 3 -3.5 6t-3.5 5q-17 31 -72 63q-7 2 -10.5 4t-5.5 3v4l84 -23q49 -13 79 175q-48 -2 -114 -10t-154 -23q-7 -4 -16 -4v-108z" />
    <glyph glyph-name="uni305C" unicode="&#x305c;" 
d="M344 145q0 -97 54 -130q39 -27 129 -27h57q44 0 83 6q7 0 19 6q29 8 30 8q25 3 45 -8q50 -9 34 -34q-8 -14 -64 -26h-7q-13 0 -30 -4h-76q-69 0 -117 16q-38 3 -71.5 14t-61.5 28q-65 59 -72 229v78q-11 0 -20 -2t-18 -5q-62 -12 -121 -41q-9 0 -16 -4t-15 -4t-34 8
l-34 33l-16 15q0 4 -3 7l-5 15q-2 6 -2 8q9 4 18 -8q8 -8 12 -8q31 -22 91 -10q49 11 94 18q34 10 65 15v82q0 15 -1 28t-3 27q0 32 -19 48q-22 13 -46 8q0 26 46 26q26 0 35 -4q48 -21 48 -51q0 -4 -1 -12t-3 -19q-2 -14 -3 -22.5t-1 -14.5v-85q9 3 28 3q9 4 26 4
q5 2 14.5 4t23.5 4q58 9 99.5 14t70.5 5h8q12 67 12 140v30q0 25 -12 45q-20 29 -57 26v7q29 29 72 7q68 -30 68 -70q0 -11 -3 -11q4 -9 -12 -18q-8 -5 -8 -8q0 -6 -1 -16t-3 -25q0 -25 -3 -41q0 -25 -4 -37v-29h23q86 0 137 18q25 0 56 -14q53 -23 38 -53h-11q-9 -3 -16 -3
h-15q-60 11 -102 16t-72 5h-45q-2 -23 -6 -48t-10 -51q-15 -86 -53 -134q-3 0 -3 -4q-16 -10 -31 -10q-16 0 -26 21l-4 4q-10 19 -29.5 36.5t-50.5 33.5h12q21 -5 42.5 -12.5t44.5 -16.5q22 -8 38 37q4 7 4 11q10 26 15 50.5t7 49.5v12q4 8 4 21q-35 -2 -89.5 -8.5
t-130.5 -20.5q-15 -2 -26.5 -4t-19.5 -4v-170zM739 598q72 -4 110 -41q38 -59 -8 -74q-15 0 -34 33q-30 53 -68 74v8zM829 646q104 -15 125 -60q12 -38 -10 -47q-13 -4 -31 25q-35 56 -84 74v8z" />
    <glyph glyph-name="uni305D" unicode="&#x305d;" 
d="M739 334q-99 0 -178 -48q-117 -58 -140 -152q-16 -57 22 -119q39 -49 152 -75q91 -7 91 -49q0 -18 -12 -30q-21 -6 -64 0q-3 3 -15 8q-8 2 -20 6t-29 12q-155 70 -160 180v18q5 113 125 205q16 12 29 21t25 16l-4 4q-251 -45 -360 -138q-2 -2 -5.5 -4.5t-10.5 -6.5
q-26 -30 -52 -30q-46 12 -27 52q11 26 41 41q4 2 11 4t17 4q8 2 13 3.5t9 3.5l91 67q8 8 19 17.5t27 23.5q38 33 65 58t44 41q46 42 87 84t76 87q7 16 -8 19h-30l-30 -11q-11 -6 -20 -9.5t-14 -5.5q-28 -10 -54.5 -25t-51.5 -38q-4 0 -8 -4q-2 -2 -4.5 -3.5t-6.5 -3.5
q-23 0 -53 37q-30 30 -30 67v14h4q30 -44 64 -44q11 0 24.5 1t30.5 6q-3 0 1.5 1.5t18.5 6.5q44 11 133 41q10 4 16.5 6.5t9.5 4.5h4q19 0 50 -37q7 -11 15 -19q7 -7 7 -22q0 -21 -26 -26q-35 -8 -80 -59l-7 -8q-70 -66 -144 -125t-152 -116q81 28 163 49t170 36q12 4 27 8
t35 8q23 3 26 6l15 8q30 8 42 8q27 0 38 -4q9 -2 21.5 -6.5t26.5 -9.5q6 -1 10 -1.5t6 -0.5q4 0 8 -4q18 -12 18 -27q0 -25 -38 -25h-44q-24 3 -35 3h-15z" />
    <glyph glyph-name="uni305E" unicode="&#x305e;" 
d="M493 331q-251 -55 -376 -156q-26 -23 -37 -23q-72 37 11 93q97 48 210 145t252 248q7 13 -11 19q-69 -3 -170 -74q-35 -26 -42 -26q-81 30 -91 118h7l12 -11q25 -33 46 -33q63 0 215 60l27 7q39 -11 76 -78q0 -20 -24 -26h-3q-11 -5 -106 -86q-91 -78 -160 -132.5
t-120 -89.5q48 15 119.5 33.5t168.5 40.5q116 26 139 33q4 0 8 4q16 12 42 12q113 -8 129 -49q5 -29 -68 -29h-39q-45 3 -52 3q-259 -36 -296 -229q0 -139 182 -165q81 -5 90 -42q0 -48 -75 -37q-215 65 -227 217q0 130 163 245v8zM792 646q111 -8 132 -93q-3 -30 -26 -30
t-38 34q-22 55 -68 81v8zM690 598q72 -15 105 -59q34 -56 -6 -72q-22 0 -42 41q-10 20 -19.5 34.5t-19.5 25.5l-7 11q-15 15 -11 19z" />
    <glyph glyph-name="uni305F" unicode="&#x305f;" 
d="M288 702q52 18 117 -38q12 -3 12 -22q0 -7 -8 -18q-4 -4 -6.5 -7.5t-4.5 -7.5q-6 -8 -12 -23.5t-11 -40.5q-3 -5 -3 -10q0 -4 -4 -4q-4 -4 -4 -15q40 10 75 33l16 8q20 11 34 11q34 -4 42 -19q0 -24 -50 -44q-11 -3 -15 -7q-20 -6 -39.5 -13.5t-40.5 -17.5l-22 -4
q-11 -2 -23 -6q-34 -100 -72 -191t-80 -188l-14 -41q-8 -25 -12 -29l-4 -8q-2 -4 -4 -9q-4 -14 -11 -21q-23 -23 -45 -12q-12 12 -12 26v24q0 12 15 33l8 7q49 55 102 186q22 51 41 102.5t39 105.5q-22 -6 -41 -10.5t-35 -7.5q-71 -8 -106 18q-16 15 -24 27t-10 21
q6 0 23 -11q12 -5 14 -8q51 -25 179 19h18l12 30l12 37q0 14 4 22q21 67 0 93q-7 14 -38 19q-8 3 -12 3v8zM754 -38q8 0 17.5 1t23.5 3q13 4 22.5 5t15.5 1q44 0 61 -18q0 -14 -11 -25q-28 -19 -84 -19h-91q-29 0 -59 3t-62 8q-95 7 -132 63q-27 42 -12 98q2 5 4 13.5
t4 19.5q4 8 5.5 14.5t2.5 11.5v-48q0 -26 14 -63q16 -30 42 -42q20 -8 50 -13t75 -9h23q5 0 13 -1t18 -3h60zM769 383q0 16 -30 33q-32 11 -57 14q-14 2 -33.5 4t-46.5 4q-14 2 -23.5 3t-17.5 1q54 18 108.5 17.5t111.5 -21.5q60 -18 79 -49q15 -21 15 -47q0 -22 -26 -27
q-5 0 -12 4h-11q-15 12 -31 12q-7 0 -34 -8l-37 -15q-17 -8 -30.5 -12t-23.5 -6q4 3 11 8t16 10q51 36 64 52q8 8 8 23z" />
    <glyph glyph-name="uni3060" unicode="&#x3060;" 
d="M231 698q88 25 121 -63q0 -15 -18 -45l-4 -4q-2 -15 -8.5 -34t-17.5 -44q24 11 50.5 25t54.5 31l9 3q1 1 3 1q52 -4 52 -26q0 -21 -26 -26q-37 -21 -79 -38t-88 -32q-59 -161 -104 -274t-77 -188q-12 -30 -35 -32q-26 -17 -38 0q-11 44 4 75q12 9 24 24.5t26 37.5
q75 121 151 341q-44 -10 -84 -10q-94 -5 -128 70q7 -4 23 -7q44 -22 71 -22q71 0 137 29q4 10 9 24.5t10 34.5q7 19 12 32.5t7 23.5q8 86 -57 89v4zM409 134q-33 -180 197 -180q20 0 55 4t89 12q11 1 18 1.5t9 0.5q90 -2 68 -43q-40 -31 -144 -31q-310 4 -318 143
q0 37 22 93h4zM504 442q279 65 311 -119q-16 -16 -46 0l-22 8q-9 0 -18.5 -2t-20.5 -6q-5 -2 -12.5 -4t-17.5 -4q-19 -5 -34 -8.5t-26 -5.5q2 2 8.5 7t17.5 11q17 10 29 17.5t21 15.5q57 78 -190 90zM789 675q151 -3 162 -77q0 -30 -30 -30q-16 0 -46 33q-45 50 -86 67v7z
M708 598q85 0 129 -41q49 -64 -8 -74q-10 0 -37 33q-46 61 -84 74v8z" />
    <glyph glyph-name="uni3061" unicode="&#x3061;" 
d="M296 694q16 16 42 11q2 0 10 -3q53 -7 61 -38q4 -7 4 -22q0 -23 -15 -44q-20 -45 -30 -93h11l38 11q29 9 49.5 17t34.5 16q3 0 6 4q88 37 133 0q0 -30 -22 -33q-12 -8 -42 -12q-9 -2 -17 -3t-13 -3q-12 0 -19 -4l-80 -23q-19 -5 -42 -10.5t-49 -11.5q-6 -25 -11.5 -50
t-10.5 -51l-16 -70q-9 -43 -14.5 -74.5t-7.5 -51.5h4q172 115 336 115q221 0 221 -148v-8q-7 -114 -118 -179q-111 -57 -262 -57h-34v12q114 10 231 75q125 65 125 168v11q-4 103 -151 108q-185 -12 -326 -138q-4 -4 -8 -10t-7 -16q-3 -11 -7 -15q0 -6 -4 -10q0 -17 -8 -31
q-7 -10 -30 -10q-27 4 -27 55v15l23 93q10 40 17 67.5t13 47.5q4 15 8 37t8 51q2 17 3.5 29t3.5 20q-23 -4 -45.5 -6t-45.5 -2h-19q-80 12 -84 93q5 -2 10.5 -6.5t13.5 -11.5q10 -11 18 -15q22 -15 42 -15h19q54 4 102 15q6 26 11 51.5t9 48.5q0 5 3 11q8 33 -3 56
q-12 29 -42 34v3z" />
    <glyph glyph-name="uni3062" unicode="&#x3062;" 
d="M227 687q73 40 121 -49q0 -12 -10 -33q-5 -8 -8 -11q-4 -7 -16 -41q-4 -17 -7 -30.5t-7 -24.5q20 5 47.5 14t61.5 23q87 33 102 33q44 -5 57 -29q12 -19 -22 -34q-20 -2 -57.5 -10.5t-94.5 -23.5q-36 -11 -62.5 -18t-43.5 -11q-8 -40 -17.5 -95.5t-20.5 -127.5l-7 -39
q-2 -15 -4 -20q174 111 352 111q200 -8 212 -156q-21 -216 -413 -236v12q341 62 353 254q-4 103 -148 108q-214 -16 -337 -156q-17 -53 -38 -70q-7 -4 -27 -4q-21 24 -26 62q0 13 22 94q23 78 39.5 140.5t25.5 114.5q-27 -5 -51.5 -8.5t-47.5 -5.5q-91 7 -98 88
q50 -41 94 -41q26 0 52 5t55 14q2 7 3.5 17t3.5 24q6 38 8.5 65.5t2.5 45.5q-3 34 -49 37v12zM670 557q175 -49 111 -137q-27 0 -50 47q-13 31 -28.5 52t-32.5 34v4zM773 598q74 -4 117 -49q27 -26 23 -51q-11 -32 -42 -12q-8 0 -18 22q-34 53 -80 82v8z" />
    <glyph glyph-name="uni3063" unicode="&#x3063;" 
d="M622 453q70 0 136 -33q68 -38 71 -119v-15q-6 -129 -117 -204q-84 -54 -215 -59h-20l4 4q6 2 15 4t23 6q96 27 129 52q83 56 110 111q23 54 23 94v18q0 48 -38 81q-43 37 -111 37h-26q-82 0 -204 -43q-45 -17 -81.5 -37t-66.5 -45q-11 -11 -27 -15q-14 0 -42 25
q-44 26 -41 56q6 5 19 -11q4 -2 7 -4t5 -4q28 -13 105 23q19 7 27 12q46 17 79.5 28.5t56.5 14.5q46 12 82 17.5t62 5.5h35z" />
    <glyph glyph-name="uni3064" unicode="&#x3064;" 
d="M443 -16q390 64 414 339q-12 182 -205 200q-97 -3 -193.5 -41.5t-196.5 -110.5q-9 -4 -19 -19q-33 -33 -54 -33q-105 41 -136 119l23 -14q44 -23 53 -23q44 0 147 52q193 100 342 100q289 -8 299 -234q-27 -321 -474 -339v4z" />
    <glyph glyph-name="uni3065" unicode="&#x3065;" 
d="M352 -6q383 66 395 329v8q-5 89 -53 130q-43 37 -122 37h-11q-218 0 -394 -149q-46 -34 -57 -34q-69 17 -98 86q9 0 22 -4q26 -10 42 -10q20 0 87 37q189 99 352 99q284 0 284 -226q-8 -300 -447 -309v6zM747 568q148 -12 106 -101q-22 0 -54 41q-31 37 -52 52v8z
M829 638q111 -6 129 -66q-13 -45 -56 -8q-2 2 -4 5t-4 7q-31 49 -65 59v3z" />
    <glyph glyph-name="uni3066" unicode="&#x3066;" 
d="M652 -16q32 0 64 -18q34 -12 34 -37q0 -42 -83 -27q-293 47 -299 284q6 237 264 382v8q-37 -2 -84 -11t-105 -23q-133 -34 -208 -77q-15 -12 -42 -12q-22 0 -38 18q-14 14 -25 26t-20 26q-10 7 -15 19v15h11q19 -34 57 -34q29 0 83 12q15 7 23 7q137 42 269 63
q16 4 37.5 8t50.5 7q23 5 40 9t31 6q3 0 11 3q17 4 27 6t15 2q9 0 20 -1t25 -3q7 -4 16 -4q4 0 12 -3q12 -4 20.5 -6.5t13.5 -4.5q26 -15 14 -45q-11 -11 -30 -11q-7 0 -15.5 1t-18.5 3q-15 4 -30 4q-330 -75 -379 -372q27 -205 242 -220h12z" />
    <glyph glyph-name="uni3067" unicode="&#x3067;" 
d="M568 579q-147 0 -352 -96q-59 -30 -72 -30q-94 30 -114 104h12q19 -34 64 -34q17 0 58.5 9.5t108.5 27.5q94 28 160.5 44t108.5 20q8 0 29.5 3.5t57.5 10.5q26 4 39.5 6t17.5 2q31 0 56 -5t47 -14q25 -10 18 -37q-12 -26 -60 -18q-52 11 -103 -8q-243 -90 -288 -330
q5 -242 262 -254q10 0 14 -4q13 0 20 -4q44 -13 49 -28q-66 -79 -262 18q-125 75 -125 224q12 240 254 386v7zM708 483q69 -26 99 -78q30 -63 -15 -74q-24 6 -45 62q-11 30 -23 52.5t-23 37.5h7zM811 508q163 -51 117 -133q-26 -20 -64 55q-15 27 -28.5 45.5t-24.5 32.5z
" />
    <glyph glyph-name="uni3068" unicode="&#x3068;" 
d="M504 -34q45 0 85.5 4t77.5 14q4 0 11 4h12q79 0 79 -30q-5 -18 -38 -33q-31 -8 -71.5 -11.5t-91.5 -3.5h-67q-308 -5 -300 172q0 97 155 219q8 5 13.5 9.5t9.5 8.5q-7 16 -12 34t-7 40q0 9 -4 16q-8 33 -13 69.5t-9 78.5v33q-2 14 -3 23.5t-1 17.5q0 4 -4 7q0 16 -8 19
q-14 5 -27.5 10t-28.5 8v16q32 22 94 -4q46 -31 46 -67v-19q0 -8 -1 -18.5t-3 -25.5t-3 -25.5t-1 -15.5v-45q0 -32 5 -63t14 -62q151 111 254 115q49 0 49 -27q0 -25 -49 -41l-15 -6q-417 -135 -429 -320q7 -96 179 -101h102z" />
    <glyph glyph-name="uni3069" unicode="&#x3069;" 
d="M216 691q117 21 144 -64q0 -2 -1 -8l-3 -18q-19 -136 12 -259h4q214 133 246 119q46 -5 56 -34q4 -27 -42 -40q-470 -141 -465 -323q-8 -98 208 -98q76 0 137.5 4t109.5 14q9 4 26 4q57 0 64 -34q-5 -34 -56 -35q-4 0 -34 -3q-69 -6 -99 -6q-379 0 -376 157
q12 154 191 252q-16 42 -28 103.5t-22 149.5q-4 37 -8 57.5t-7 24.5q-23 18 -57 21v16zM602 638q76 -3 126 -44q46 -52 7 -71q-14 0 -45 37q-24 27 -46 44t-42 27v7zM663 705q85 0 132 -26q50 -44 12 -70q-14 0 -46 29q-51 52 -98 60v7z" />
    <glyph glyph-name="uni306A" unicode="&#x306a;" 
d="M697 461q117 -4 171 -49q70 -97 -31 -74q-26 8 -53.5 11t-55.5 3q-127 5 -122 -118q2 -54 6 -103t10 -98q35 -9 62 -19t47 -23q64 -36 27 -81q-16 0 -34 19q-7 4 -10.5 6.5t-5.5 4.5q-34 25 -86 44q-19 -115 -156 -115q-174 5 -190 93q19 85 201 90q26 0 49 -1t46 -3
q-4 55 -5.5 85t-1.5 38q0 110 41 148q26 23 99 41q80 23 80 45q-20 45 -88 52v4zM80 553q58 -30 105 -30q88 0 145 12q8 13 17 31.5t21 42.5q8 21 18 37q19 73 -48 78v4q38 21 79 -8q46 -40 30 -74q-2 -4 -5 -7.5t-6 -7.5q-8 -5 -8 -7q-5 -15 -16 -33.5t-26 -41.5
q42 7 99 27q7 2 11.5 2.5t7.5 0.5q49 4 61 -30q3 -21 -209 -59q-73 -144 -124 -232t-81 -124q-21 -25 -52 0q-12 28 30 93q11 0 26 18l12 11q29 37 64 94t76 136q-45 -9 -75.5 -14t-49.5 -5q-53 4 -102 75v11zM447 23q-137 -5 -147 -61q13 -59 143 -64q99 4 129 102
q-61 23 -125 23z" />
    <glyph glyph-name="uni306B" unicode="&#x306b;" 
d="M121 668q92 -26 102 -104q0 -14 -22 -59q-68 -142 -68 -293q2 -45 8.5 -83.5t17.5 -72.5q4 -4 12 -4l45 127l46 122q-2 -32 -10 -79.5t-21 -110.5q-14 -54 -21 -92t-9 -61q-5 -42 -34 -39q-65 21 -76 278q0 45 9.5 108t28.5 148q22 85 22 119q0 38 -22 78q-8 14 -8 18z
M383 223q-17 -179 239 -171q62 0 125 18l26 8q56 -5 106 -37q12 -47 -159 -47q-350 -3 -345 177q0 45 4 52h4zM595 438l61 52q22 16 22 33q-13 4 -60 4q-63 0 -120.5 -7t-114.5 -22v4q125 77 295 77q121 -3 129 -56q0 -25 -72 -40q-42 -10 -72.5 -20.5t-56.5 -24.5h-11z" />
    <glyph glyph-name="uni306C" unicode="&#x306c;" 
d="M151 539q0 -82 46 -201q54 51 113.5 85.5t128.5 55.5q12 48 12 104q0 59 -72 74v4q105 21 122 -71q0 -23 -2 -48.5t-6 -51.5q49 12 83 8q310 -12 318 -282q0 -109 -53 -189q10 -6 23 -14.5t30 -21.5l16 -15q28 -32 0 -66q-24 -5 -46 23l-11 11q-22 28 -50 44
q-92 -63 -185 -63q-100 5 -107 69q4 83 137 88q76 0 137 -26q48 75 48 163q-8 257 -257 264q-53 0 -91 -16q-42 -185 -159 -359q8 -16 18 -26l12 -15q23 -29 23 -48q0 -21 -15 -25q-17 0 -38 21q-10 9 -19 19.5t-19 21.5q-103 -112 -175 -112q-37 4 -49 44q0 3 -3 12
q-15 25 -15 74q5 113 113 227q-22 81 -22 148q0 10 1.5 26t5.5 41q3 12 3 23h4zM432 453q-114 -48 -216 -159q20 -42 40.5 -76.5t43.5 -68.5q51 72 83.5 147.5t48.5 156.5zM178 253q-97 -129 -102 -212q4 -57 37 -61q55 5 149 113q-53 69 -84 160zM648 64q-111 0 -117 -66
q6 -47 87 -54q76 0 147 75q-57 45 -117 45z" />
    <glyph glyph-name="uni306D" unicode="&#x306d;" 
d="M258 420q-42 -12 -73 -52q-16 -21 -30 -26q-72 18 -91 78q11 0 31 -11q11 -4 18 -6t12 -2q58 5 140 78l11 78q2 14 3 25.5t1 22.5v8q0 28 -18 48q-8 18 -42 33v4q31 19 76 -7q47 -38 38 -71q-20 -74 -30 -145q44 -32 44 -51q0 -24 -22 -37q-11 -12 -21.5 -26.5
t-20.5 -33.5v-26q-2 -14 -3 -23.5t-1 -17.5q207 197 376 201q198 -12 204 -231q0 -116 -37 -193q45 -27 87 -65q11 -28 11 -47q0 -15 -23 -15q-16 0 -45 26q-2 2 -4 5t-4 7q-34 28 -56 36q-62 -65 -175 -65q-113 1 -121 79q7 84 136 84q45 0 80 -5.5t64 -16.5q30 87 30 170
q0 204 -163 200q-174 -3 -360 -189v-81q0 -14 1 -34.5t3 -51.5q2 -29 3 -50.5t1 -35.5q0 -85 -30 -109q-9 -3 -23 8q-8 5 -8 23q-4 4 -4 11q-11 54 -72 127q-4 -9 -8.5 -21t-9.5 -29q-7 -23 -12 -28q-10 -40 -57 -34q-26 36 -3 62q122 164 197 373v49zM610 52q-83 0 -87 -52
q4 -52 91 -56q79 4 133 67q-56 41 -137 41zM250 212q-15 -15 -26 -27t-19 -22h-4l-16 -37q-11 -25 -18.5 -42.5t-11.5 -31.5q4 -4 11 -9t16 -13q11 -11 20.5 -19t17.5 -13q10 -10 30 -10v224zM250 264l-19 -34l-26 -48l22 18q14 21 23 27v37z" />
    <glyph glyph-name="uni306E" unicode="&#x306e;" 
d="M572 -46l4 8q257 125 269 339q-27 278 -322 297h-34q68 -56 49 -108q-5 -5 -12 -15t-15 -26l-7 -19q-215 -384 -315 -415q-98 38 -125 219q62 347 463 393q362 -21 379 -333q-4 -263 -326 -340h-8zM469 594q-329 -111 -374 -360q37 -149 102 -156q238 238 292 475z" />
    </font>
</defs>
</svg>
